SplineFontDB: 3.0
FontName: Gelasio-Regular
FullName: Gelasio Regular
FamilyName: Gelasio
Weight: Book
Copyright: Copyright (c) 2012, Sorkin Type Co (www.sorkintype.com) with Reserved Font Name 'Gelasio'
Version: 1.000
ItalicAngle: 0
UnderlinePosition: -137
UnderlineWidth: 106
Ascent: 1638
Descent: 410
sfntRevision: 0x00010000
LayerCount: 2
Layer: 0 1 "Back"  1
Layer: 1 1 "Fore"  0
XUID: [1021 631 1661839179 10290030]
FSType: 0
OS2Version: 3
OS2_WeightWidthSlopeOnly: 0
OS2_UseTypoMetrics: 1
CreationTime: 1352811360
ModificationTime: 1353610929
PfmFamily: 17
TTFWeight: 400
TTFWidth: 5
LineGap: 0
VLineGap: 0
Panose: 2 4 5 2 5 4 5 2 3 3
OS2TypoAscent: 1889
OS2TypoAOffset: 0
OS2TypoDescent: -671
OS2TypoDOffset: 0
OS2TypoLinegap: 0
OS2WinAscent: 1889
OS2WinAOffset: 0
OS2WinDescent: 671
OS2WinDOffset: 0
HheadAscent: 1889
HheadAOffset: 0
HheadDescent: -671
HheadDOffset: 0
OS2SubXSize: 1434
OS2SubYSize: 1331
OS2SubXOff: 0
OS2SubYOff: 155
OS2SupXSize: 1434
OS2SupYSize: 1331
OS2SupXOff: 0
OS2SupYOff: 542
OS2StrikeYSize: 126
OS2StrikeYPos: 559
OS2FamilyClass: 1027
OS2Vendor: 'STC '
OS2CodePages: 20000093.00000000
OS2UnicodeRanges: a00000af.5000204a.00000000.00000000
Lookup: 1 0 0 "'aalt' Access All Alternates in Latin lookup 0"  {"'aalt' Access All Alternates in Latin lookup 0 subtable"  } ['aalt' ('DFLT' <'dflt' > 'latn' <'MOL ' 'ROM ' 'TRK ' 'dflt' > ) ]
Lookup: 6 0 0 "'ordn' Ordinals in Latin lookup 1"  {"'ordn' Ordinals in Latin lookup 1 contextual 0"  "'ordn' Ordinals in Latin lookup 1 contextual 1"  "'ordn' Ordinals in Latin lookup 1 contextual 2"  "'ordn' Ordinals in Latin lookup 1 contextual 3"  } ['ordn' ('latn' <'MOL ' 'ROM ' 'TRK ' 'dflt' > ) ]
Lookup: 1 0 0 "'locl' Localized Forms in Latin lookup 2"  {"'locl' Localized Forms in Latin lookup 2 subtable"  } ['locl' ('latn' <'AZE ' > ) ]
Lookup: 1 0 0 "'locl' Localized Forms in Latin lookup 3"  {"'locl' Localized Forms in Latin lookup 3 subtable"  } ['locl' ('latn' <'CRT ' > ) ]

StartChar: .notdef
Encoding: 65536 -1 0
Width: 2048
GlyphClass: 2
Flags: W
LayerCount: 2
Fore
SplineSet
246 1547 m 1,0,-1
 1802 1547 l 1,1,-1
 1802 0 l 1,2,-1
 246 0 l 1,3,-1
 246 1547 l 1,0,-1
1696 90 m 1,4,-1
 1696 1457 l 1,5,-1
 352 1457 l 1,6,-1
 352 90 l 1,7,-1
 1696 90 l 1,4,-1
936 767 m 1,8,-1
 571 1138 l 1,9,-1
 663 1224 l 1,10,-1
 1024 857 l 1,11,-1
 1385 1224 l 1,12,-1
 1477 1138 l 1,13,-1
 1112 767 l 1,14,-1
 1477 397 l 1,15,-1
 1385 312 l 1,16,-1
 1024 678 l 1,17,-1
 663 312 l 1,18,-1
 571 397 l 1,19,-1
 936 767 l 1,8,-1
EndSplineSet
EndChar

StartChar: exclam
Encoding: 33 33 3
Width: 678
GlyphClass: 2
Flags: W
LayerCount: 2
Fore
SplineSet
298 432 m 1,0,1
 281 650 281 650 265 817.5 c 128,-1,2
 249 985 249 985 236 1103.5 c 128,-1,3
 223 1222 223 1222 215 1293 c 128,-1,4
 207 1364 207 1364 207 1389 c 0,5,6
 207 1418 207 1418 217 1443.5 c 128,-1,7
 227 1469 227 1469 244.5 1487.5 c 128,-1,8
 262 1506 262 1506 286 1517 c 128,-1,9
 310 1528 310 1528 338 1528 c 0,10,11
 365 1528 365 1528 389 1517 c 128,-1,12
 413 1506 413 1506 431 1487.5 c 128,-1,13
 449 1469 449 1469 459 1443.5 c 128,-1,14
 469 1418 469 1418 469 1389 c 0,15,16
 469 1364 469 1364 458.5 1293 c 128,-1,17
 448 1222 448 1222 434 1103.5 c 128,-1,18
 420 985 420 985 404 817.5 c 128,-1,19
 388 650 388 650 378 432 c 1,20,-1
 298 432 l 1,0,1
198 122 m 256,21,22
 198 150 198 150 209 174.5 c 128,-1,23
 220 199 220 199 238.5 217.5 c 128,-1,24
 257 236 257 236 282.5 246.5 c 128,-1,25
 308 257 308 257 338 257 c 256,26,27
 368 257 368 257 393.5 246.5 c 128,-1,28
 419 236 419 236 438 217.5 c 128,-1,29
 457 199 457 199 468 174.5 c 128,-1,30
 479 150 479 150 479 122 c 256,31,32
 479 94 479 94 468 68 c 128,-1,33
 457 42 457 42 438 22.5 c 128,-1,34
 419 3 419 3 393.5 -8.5 c 128,-1,35
 368 -20 368 -20 338 -20 c 256,36,37
 308 -20 308 -20 282.5 -8.5 c 128,-1,38
 257 3 257 3 238.5 22.5 c 128,-1,39
 220 42 220 42 209 68 c 128,-1,40
 198 94 198 94 198 122 c 256,21,22
EndSplineSet
EndChar

StartChar: numbersign
Encoding: 35 35 5
Width: 1317
GlyphClass: 2
Flags: W
LayerCount: 2
Fore
SplineSet
332 420 m 1,0,-1
 98 420 l 1,1,-1
 98 526 l 1,2,-1
 352 526 l 1,3,-1
 422 900 l 1,4,-1
 148 900 l 1,5,-1
 148 1006 l 1,6,-1
 442 1006 l 1,7,-1
 520 1419 l 1,8,-1
 647 1419 l 1,9,-1
 568 1006 l 1,10,-1
 859 1006 l 1,11,-1
 937 1419 l 1,12,-1
 1064 1419 l 1,13,-1
 985 1006 l 1,14,-1
 1218 1006 l 1,15,-1
 1218 900 l 1,16,-1
 965 900 l 1,17,-1
 894 526 l 1,18,-1
 1148 526 l 1,19,-1
 1148 420 l 1,20,-1
 874 420 l 1,21,-1
 795 0 l 1,22,-1
 670 0 l 1,23,-1
 749 420 l 1,24,-1
 457 420 l 1,25,-1
 378 0 l 1,26,-1
 253 0 l 1,27,-1
 332 420 l 1,0,-1
769 526 m 1,28,-1
 839 900 l 1,29,-1
 548 900 l 1,30,-1
 477 526 l 1,31,-1
 769 526 l 1,28,-1
EndSplineSet
EndChar

StartChar: dollar
Encoding: 36 36 6
Width: 1249
GlyphClass: 2
Flags: W
LayerCount: 2
Fore
SplineSet
175 72 m 0,0,1
 178 125 178 125 177 179.5 c 128,-1,2
 176 234 176 234 172.5 283.5 c 128,-1,3
 169 333 169 333 164.5 375.5 c 128,-1,4
 160 418 160 418 157 448 c 1,5,6
 153 477 153 477 165 492.5 c 128,-1,7
 177 508 177 508 193.5 510 c 128,-1,8
 210 512 210 512 225.5 501 c 128,-1,9
 241 490 241 490 246 468 c 0,10,11
 249 455 249 455 252.5 439.5 c 128,-1,12
 256 424 256 424 263.5 401.5 c 128,-1,13
 271 379 271 379 283.5 348 c 128,-1,14
 296 317 296 317 316 274 c 0,15,16
 343 217 343 217 385 176 c 128,-1,17
 427 135 427 135 475 109 c 128,-1,18
 523 83 523 83 571 71 c 128,-1,19
 619 59 619 59 658 59 c 0,20,21
 703 59 703 59 744.5 73 c 128,-1,22
 786 87 786 87 818 117.5 c 128,-1,23
 850 148 850 148 869 196 c 128,-1,24
 888 244 888 244 888 311 c 0,25,26
 888 354 888 354 864 391 c 128,-1,27
 840 428 840 428 799.5 460.5 c 128,-1,28
 759 493 759 493 706 521.5 c 128,-1,29
 653 550 653 550 594 576 c 1,30,31
 525 609 525 609 456.5 649 c 128,-1,32
 388 689 388 689 333.5 740 c 128,-1,33
 279 791 279 791 245 856 c 128,-1,34
 211 921 211 921 211 1005 c 0,35,36
 211 1091 211 1091 247 1154 c 128,-1,37
 283 1217 283 1217 339.5 1259.5 c 128,-1,38
 396 1302 396 1302 465 1324 c 128,-1,39
 534 1346 534 1346 601 1350 c 1,40,-1
 601 1548 l 1,41,-1
 707 1548 l 1,42,-1
 707 1345 l 1,43,44
 763 1336 763 1336 801.5 1321 c 128,-1,45
 840 1306 840 1306 860 1303 c 0,46,47
 881 1299 881 1299 893 1300.5 c 128,-1,48
 905 1302 905 1302 913 1306 c 128,-1,49
 921 1310 921 1310 927 1316 c 128,-1,50
 933 1322 933 1322 942 1327 c 0,51,52
 953 1334 953 1334 965 1334 c 128,-1,53
 977 1334 977 1334 986.5 1329 c 128,-1,54
 996 1324 996 1324 1002.5 1315 c 128,-1,55
 1009 1306 1009 1306 1009 1296 c 0,56,57
 1009 1287 1009 1287 1011 1257 c 128,-1,58
 1013 1227 1013 1227 1016.5 1187 c 128,-1,59
 1020 1147 1020 1147 1024.5 1101 c 128,-1,60
 1029 1055 1029 1055 1034 1014 c 0,61,62
 1039 978 1039 978 1027.5 961.5 c 128,-1,63
 1016 945 1016 945 1000 942.5 c 128,-1,64
 984 940 984 940 969.5 947 c 128,-1,65
 955 954 955 954 953 965 c 0,66,67
 938 1045 938 1045 908.5 1103 c 128,-1,68
 879 1161 879 1161 838.5 1198.5 c 128,-1,69
 798 1236 798 1236 748.5 1254 c 128,-1,70
 699 1272 699 1272 645 1272 c 0,71,72
 593 1272 593 1272 550 1260.5 c 128,-1,73
 507 1249 507 1249 475.5 1222.5 c 128,-1,74
 444 1196 444 1196 426.5 1153.5 c 128,-1,75
 409 1111 409 1111 409 1049 c 0,76,77
 409 1005 409 1005 434.5 965.5 c 128,-1,78
 460 926 460 926 502.5 891 c 128,-1,79
 545 856 545 856 600.5 824.5 c 128,-1,80
 656 793 656 793 715 765 c 1,81,82
 784 730 784 730 852 689 c 128,-1,83
 920 648 920 648 973 598 c 128,-1,84
 1026 548 1026 548 1059 487.5 c 128,-1,85
 1092 427 1092 427 1092 352 c 0,86,87
 1092 260 1092 260 1063.5 191 c 128,-1,88
 1035 122 1035 122 983.5 74.5 c 128,-1,89
 932 27 932 27 861.5 1 c 128,-1,90
 791 -25 791 -25 707 -29 c 1,91,-1
 707 -245 l 1,92,-1
 601 -245 l 1,93,-1
 601 -26 l 1,94,95
 559 -21 559 -21 525.5 -12 c 128,-1,96
 492 -3 492 -3 466.5 7 c 128,-1,97
 441 17 441 17 422 26.5 c 128,-1,98
 403 36 403 36 390 41 c 0,99,100
 369 48 369 48 354 59 c 128,-1,101
 339 70 339 70 326 76.5 c 128,-1,102
 313 83 313 83 301.5 82 c 128,-1,103
 290 81 290 81 276 65 c 0,104,105
 254 40 254 40 235 31 c 128,-1,106
 216 22 216 22 202.5 25 c 128,-1,107
 189 28 189 28 181.5 40.5 c 128,-1,108
 174 53 174 53 175 72 c 0,0,1
EndSplineSet
EndChar

StartChar: percent
Encoding: 37 37 7
Width: 1674
GlyphClass: 2
Flags: W
LayerCount: 2
Fore
SplineSet
435 711 m 0,0,1
 360 711 360 711 299 736.5 c 128,-1,2
 238 762 238 762 195 809.5 c 128,-1,3
 152 857 152 857 129 924.5 c 128,-1,4
 106 992 106 992 106 1076 c 0,5,6
 106 1162 106 1162 130 1231 c 128,-1,7
 154 1300 154 1300 197.5 1348.5 c 128,-1,8
 241 1397 241 1397 302.5 1423 c 128,-1,9
 364 1449 364 1449 439 1449 c 0,10,11
 517 1449 517 1449 579 1423 c 128,-1,12
 641 1397 641 1397 685 1348.5 c 128,-1,13
 729 1300 729 1300 752.5 1231 c 128,-1,14
 776 1162 776 1162 776 1076 c 0,15,16
 776 992 776 992 752 924.5 c 128,-1,17
 728 857 728 857 683.5 809.5 c 128,-1,18
 639 762 639 762 576 736.5 c 128,-1,19
 513 711 513 711 435 711 c 0,0,1
437 788 m 0,20,21
 531 788 531 788 568.5 859 c 128,-1,22
 606 930 606 930 606 1076 c 0,23,24
 606 1225 606 1225 567 1298.5 c 128,-1,25
 528 1372 528 1372 434 1372 c 256,26,27
 340 1372 340 1372 302.5 1298.5 c 128,-1,28
 265 1225 265 1225 265 1076 c 0,29,30
 265 1003 265 1003 274 949 c 128,-1,31
 283 895 283 895 303.5 859 c 128,-1,32
 324 823 324 823 357 805.5 c 128,-1,33
 390 788 390 788 437 788 c 0,20,21
892 336 m 0,34,35
 892 422 892 422 916 491 c 128,-1,36
 940 560 940 560 983.5 608.5 c 128,-1,37
 1027 657 1027 657 1088.5 683 c 128,-1,38
 1150 709 1150 709 1225 709 c 0,39,40
 1303 709 1303 709 1365 683 c 128,-1,41
 1427 657 1427 657 1471 608.5 c 128,-1,42
 1515 560 1515 560 1538.5 491 c 128,-1,43
 1562 422 1562 422 1562 336 c 0,44,45
 1562 252 1562 252 1538 184.5 c 128,-1,46
 1514 117 1514 117 1469.5 69.5 c 128,-1,47
 1425 22 1425 22 1362 -3.5 c 128,-1,48
 1299 -29 1299 -29 1221 -29 c 0,49,50
 1146 -29 1146 -29 1085 -3.5 c 128,-1,51
 1024 22 1024 22 981 69.5 c 128,-1,52
 938 117 938 117 915 184.5 c 128,-1,53
 892 252 892 252 892 336 c 0,34,35
1051 336 m 0,54,55
 1051 263 1051 263 1060 209 c 128,-1,56
 1069 155 1069 155 1089.5 119 c 128,-1,57
 1110 83 1110 83 1143 65.5 c 128,-1,58
 1176 48 1176 48 1223 48 c 0,59,60
 1317 48 1317 48 1354.5 119 c 128,-1,61
 1392 190 1392 190 1392 336 c 0,62,63
 1392 485 1392 485 1353 558.5 c 128,-1,64
 1314 632 1314 632 1220 632 c 256,65,66
 1126 632 1126 632 1088.5 558.5 c 128,-1,67
 1051 485 1051 485 1051 336 c 0,54,55
408 0 m 1,68,-1
 1105 1419 l 1,69,-1
 1252 1419 l 1,70,-1
 553 0 l 1,71,-1
 408 0 l 1,68,-1
EndSplineSet
Ligature2: "'frac' Diagonal Fractions in Latin lookup 11 subtable" zero slash zero
EndChar

StartChar: ampersand
Encoding: 38 38 8
Width: 1455
GlyphClass: 2
Flags: W
LayerCount: 2
Fore
SplineSet
122 353 m 0,0,1
 122 423 122 423 147 480.5 c 128,-1,2
 172 538 172 538 214.5 586.5 c 128,-1,3
 257 635 257 635 314.5 677 c 128,-1,4
 372 719 372 719 438 758 c 1,5,6
 406 798 406 798 376 841 c 128,-1,7
 346 884 346 884 323.5 928.5 c 128,-1,8
 301 973 301 973 287.5 1018.5 c 128,-1,9
 274 1064 274 1064 274 1109 c 0,10,11
 274 1176 274 1176 290 1237 c 128,-1,12
 306 1298 306 1298 347.5 1345 c 128,-1,13
 389 1392 389 1392 459.5 1420 c 128,-1,14
 530 1448 530 1448 640 1448 c 0,15,16
 719 1448 719 1448 781 1429.5 c 128,-1,17
 843 1411 843 1411 885 1378 c 128,-1,18
 927 1345 927 1345 949 1299 c 128,-1,19
 971 1253 971 1253 971 1198 c 0,20,21
 971 1112 971 1112 945.5 1052 c 128,-1,22
 920 992 920 992 879 949 c 128,-1,23
 838 906 838 906 787.5 874.5 c 128,-1,24
 737 843 737 843 686 814 c 0,25,26
 676 809 676 809 667 803 c 128,-1,27
 658 797 658 797 650 792 c 1,28,29
 685 752 685 752 728.5 702.5 c 128,-1,30
 772 653 772 653 820 599 c 128,-1,31
 868 545 868 545 917.5 489.5 c 128,-1,32
 967 434 967 434 1013 382 c 1,33,34
 1039 439 1039 439 1062.5 501.5 c 128,-1,35
 1086 564 1086 564 1104 617.5 c 128,-1,36
 1122 671 1122 671 1132.5 707 c 128,-1,37
 1143 743 1143 743 1145 748 c 0,38,39
 1151 768 1151 768 1139.5 781 c 128,-1,40
 1128 794 1128 794 1108 801.5 c 128,-1,41
 1088 809 1088 809 1065.5 812.5 c 128,-1,42
 1043 816 1043 816 1027 818 c 0,43,44
 1007 820 1007 820 1001.5 829.5 c 128,-1,45
 996 839 996 839 996 855 c 0,46,47
 996 870 996 870 1004.5 883 c 128,-1,48
 1013 896 1013 896 1030 896 c 2,49,-1
 1423 896 l 2,50,51
 1440 896 1440 896 1448.5 883 c 128,-1,52
 1457 870 1457 870 1457 855 c 0,53,54
 1457 818 1457 818 1424 818 c 0,55,56
 1321 818 1321 818 1272 741 c 1,57,58
 1252 705 1252 705 1230 657.5 c 128,-1,59
 1208 610 1208 610 1183 555.5 c 128,-1,60
 1158 501 1158 501 1131 439.5 c 128,-1,61
 1104 378 1104 378 1073 314 c 1,62,-1
 1210 162 l 1,63,64
 1225 147 1225 147 1247 133 c 128,-1,65
 1269 119 1269 119 1294 108 c 128,-1,66
 1319 97 1319 97 1345 89 c 128,-1,67
 1371 81 1371 81 1395 78 c 0,68,69
 1416 76 1416 76 1423.5 70 c 128,-1,70
 1431 64 1431 64 1431 41 c 0,71,72
 1431 26 1431 26 1422.5 13 c 128,-1,73
 1414 0 1414 0 1397 0 c 2,74,-1
 1103 0 l 1,75,-1
 972 147 l 1,76,77
 903 66 903 66 804.5 18.5 c 128,-1,78
 706 -29 706 -29 577 -29 c 0,79,80
 471 -29 471 -29 386.5 -4.5 c 128,-1,81
 302 20 302 20 243.5 68 c 128,-1,82
 185 116 185 116 153.5 187.5 c 128,-1,83
 122 259 122 259 122 353 c 0,0,1
619 861 m 2,84,85
 694 904 694 904 731.5 950.5 c 128,-1,86
 769 997 769 997 785 1041.5 c 128,-1,87
 801 1086 801 1086 801.5 1125.5 c 128,-1,88
 802 1165 802 1165 802 1192 c 0,89,90
 802 1217 802 1217 792.5 1249.5 c 128,-1,91
 783 1282 783 1282 763 1310.5 c 128,-1,92
 743 1339 743 1339 710.5 1359 c 128,-1,93
 678 1379 678 1379 633 1379 c 0,94,95
 600 1379 600 1379 569 1364 c 128,-1,96
 538 1349 538 1349 514 1323 c 128,-1,97
 490 1297 490 1297 475.5 1262 c 128,-1,98
 461 1227 461 1227 461 1188 c 256,99,100
 461 1149 461 1149 465.5 1111 c 128,-1,101
 470 1073 470 1073 483 1035 c 128,-1,102
 496 997 496 997 518 958.5 c 128,-1,103
 540 920 540 920 576 878 c 0,104,105
 580 873 580 873 586.5 865.5 c 128,-1,106
 593 858 593 858 600 850 c 1,107,-1
 619 861 l 2,84,85
336 370 m 0,108,109
 336 314 336 314 349.5 263.5 c 128,-1,110
 363 213 363 213 392.5 175 c 128,-1,111
 422 137 422 137 469.5 114 c 128,-1,112
 517 91 517 91 585 91 c 0,113,114
 624 91 624 91 665 94.5 c 128,-1,115
 706 98 706 98 747.5 111 c 128,-1,116
 789 124 789 124 830 149.5 c 128,-1,117
 871 175 871 175 910 218 c 1,118,-1
 560 615 l 2,119,120
 545 632 545 632 529 650 c 128,-1,121
 513 668 513 668 496 688 c 1,122,123
 445 647 445 647 414 608.5 c 128,-1,124
 383 570 383 570 365.5 531.5 c 128,-1,125
 348 493 348 493 342 453 c 128,-1,126
 336 413 336 413 336 370 c 0,108,109
EndSplineSet
EndChar

StartChar: quotesingle
Encoding: 39 39 9
Width: 441
GlyphClass: 2
Flags: W
LayerCount: 2
Fore
SplineSet
190 967 m 1,0,1
 183 1014 183 1014 174.5 1070 c 128,-1,2
 166 1126 166 1126 157 1184.5 c 128,-1,3
 148 1243 148 1243 139.5 1299.5 c 128,-1,4
 131 1356 131 1356 124 1404.5 c 128,-1,5
 117 1453 117 1453 113 1489 c 128,-1,6
 109 1525 109 1525 109 1542 c 0,7,8
 109 1571 109 1571 116 1596.5 c 128,-1,9
 123 1622 123 1622 137 1640.5 c 128,-1,10
 151 1659 151 1659 171.5 1670 c 128,-1,11
 192 1681 192 1681 220 1681 c 0,12,13
 247 1681 247 1681 268 1670 c 128,-1,14
 289 1659 289 1659 303 1640.5 c 128,-1,15
 317 1622 317 1622 324 1596.5 c 128,-1,16
 331 1571 331 1571 331 1542 c 0,17,18
 331 1525 331 1525 327 1489 c 128,-1,19
 323 1453 323 1453 316 1404.5 c 128,-1,20
 309 1356 309 1356 300.5 1299.5 c 128,-1,21
 292 1243 292 1243 283 1184.5 c 128,-1,22
 274 1126 274 1126 265 1070 c 128,-1,23
 256 1014 256 1014 250 967 c 1,24,-1
 190 967 l 1,25,-1
 190 967 l 1,0,1
EndSplineSet
EndChar

StartChar: parenleft
Encoding: 40 40 10
Width: 768
GlyphClass: 2
Flags: W
LayerCount: 2
Fore
SplineSet
118 596 m 0,0,1
 118 757 118 757 146 889.5 c 128,-1,2
 174 1022 174 1022 220.5 1126 c 128,-1,3
 267 1230 267 1230 327.5 1306.5 c 128,-1,4
 388 1383 388 1383 453 1433 c 128,-1,5
 518 1483 518 1483 582 1507.5 c 128,-1,6
 646 1532 646 1532 701 1532 c 1,7,-1
 701 1449 l 1,8,9
 675 1449 675 1449 636.5 1433.5 c 128,-1,10
 598 1418 598 1418 556 1381 c 128,-1,11
 514 1344 514 1344 472.5 1281.5 c 128,-1,12
 431 1219 431 1219 397.5 1124 c 128,-1,13
 364 1029 364 1029 343.5 898.5 c 128,-1,14
 323 768 323 768 323 596 c 256,15,16
 323 424 323 424 343.5 293.5 c 128,-1,17
 364 163 364 163 397.5 68 c 128,-1,18
 431 -27 431 -27 472.5 -89.5 c 128,-1,19
 514 -152 514 -152 556 -189 c 128,-1,20
 598 -226 598 -226 636.5 -241.5 c 128,-1,21
 675 -257 675 -257 701 -257 c 1,22,-1
 701 -340 l 1,23,24
 647 -340 647 -340 582.5 -315.5 c 128,-1,25
 518 -291 518 -291 453 -241 c 128,-1,26
 388 -191 388 -191 327.5 -114.5 c 128,-1,27
 267 -38 267 -38 220.5 66 c 128,-1,28
 174 170 174 170 146 302 c 128,-1,29
 118 434 118 434 118 596 c 0,0,1
EndSplineSet
EndChar

StartChar: asterisk
Encoding: 42 42 12
Width: 967
GlyphClass: 2
Flags: W
LayerCount: 2
Fore
SplineSet
285 620 m 0,0,1
 267 620 267 620 250 627.5 c 128,-1,2
 233 635 233 635 220 647.5 c 128,-1,3
 207 660 207 660 199.5 677 c 128,-1,4
 192 694 192 694 192 714 c 0,5,6
 192 732 192 732 198.5 751 c 128,-1,7
 205 770 205 770 216 786 c 0,8,9
 223 795 223 795 246 817 c 128,-1,10
 269 839 269 839 299 867 c 128,-1,11
 329 895 329 895 361 924.5 c 128,-1,12
 393 954 393 954 419 980 c 1,13,14
 400 985 400 985 362 987.5 c 128,-1,15
 324 990 324 990 283 992 c 128,-1,16
 242 994 242 994 205.5 996 c 128,-1,17
 169 998 169 998 154 1003 c 0,18,19
 119 1014 119 1014 95.5 1038.5 c 128,-1,20
 72 1063 72 1063 72 1098 c 0,21,22
 72 1122 72 1122 80.5 1140 c 128,-1,23
 89 1158 89 1158 102.5 1170 c 128,-1,24
 116 1182 116 1182 134 1188 c 128,-1,25
 152 1194 152 1194 170 1194 c 0,26,27
 191 1194 191 1194 213 1187 c 0,28,29
 224 1184 224 1184 249.5 1168.5 c 128,-1,30
 275 1153 275 1153 307.5 1133.5 c 128,-1,31
 340 1114 340 1114 376 1092.5 c 128,-1,32
 412 1071 412 1071 443 1056 c 1,33,34
 440 1076 440 1076 435 1103 c 128,-1,35
 430 1130 430 1130 423.5 1159 c 128,-1,36
 417 1188 417 1188 410.5 1216.5 c 128,-1,37
 404 1245 404 1245 398.5 1269 c 128,-1,38
 393 1293 393 1293 389.5 1311 c 128,-1,39
 386 1329 386 1329 386 1336 c 0,40,41
 386 1384 386 1384 410.5 1416.5 c 128,-1,42
 435 1449 435 1449 484 1449 c 0,43,44
 532 1449 532 1449 556.5 1416.5 c 128,-1,45
 581 1384 581 1384 581 1336 c 0,46,47
 581 1329 581 1329 577.5 1311.5 c 128,-1,48
 574 1294 574 1294 569 1270.5 c 128,-1,49
 564 1247 564 1247 557.5 1220 c 128,-1,50
 551 1193 551 1193 545 1167.5 c 128,-1,51
 539 1142 539 1142 534.5 1120.5 c 128,-1,52
 530 1099 530 1099 528 1086 c 0,53,54
 526 1078 526 1078 525.5 1075.5 c 128,-1,55
 525 1073 525 1073 525 1071.5 c 128,-1,56
 525 1070 525 1070 524.5 1067 c 128,-1,57
 524 1064 524 1064 523 1055 c 1,58,59
 552 1071 552 1071 588.5 1092.5 c 128,-1,60
 625 1114 625 1114 658.5 1134 c 128,-1,61
 692 1154 692 1154 718 1169 c 128,-1,62
 744 1184 744 1184 753 1187 c 0,63,64
 763 1190 763 1190 775 1192 c 128,-1,65
 787 1194 787 1194 796 1194 c 0,66,67
 814 1194 814 1194 831.5 1188 c 128,-1,68
 849 1182 849 1182 862.5 1169.5 c 128,-1,69
 876 1157 876 1157 884.5 1138.5 c 128,-1,70
 893 1120 893 1120 893 1096 c 0,71,72
 893 1062 893 1062 870.5 1038 c 128,-1,73
 848 1014 848 1014 811 1003 c 0,74,75
 794 998 794 998 758.5 995.5 c 128,-1,76
 723 993 723 993 683 991.5 c 128,-1,77
 643 990 643 990 605.5 987.5 c 128,-1,78
 568 985 568 985 548 980 c 1,79,80
 571 956 571 956 597.5 933 c 128,-1,81
 624 910 624 910 650.5 887 c 128,-1,82
 677 864 677 864 702 839.5 c 128,-1,83
 727 815 727 815 748 788 c 0,84,85
 762 771 762 771 768.5 751.5 c 128,-1,86
 775 732 775 732 775 714 c 256,87,88
 775 696 775 696 768 679 c 128,-1,89
 761 662 761 662 748 649.5 c 128,-1,90
 735 637 735 637 718 629 c 128,-1,91
 701 621 701 621 682 621 c 0,92,93
 657 621 657 621 633 635.5 c 128,-1,94
 609 650 609 650 592 673 c 0,95,96
 585 682 585 682 572 714.5 c 128,-1,97
 559 747 559 747 544 787.5 c 128,-1,98
 529 828 529 828 513 868.5 c 128,-1,99
 497 909 497 909 484 934 c 1,100,101
 472 910 472 910 456 870.5 c 128,-1,102
 440 831 440 831 424 790.5 c 128,-1,103
 408 750 408 750 394.5 717 c 128,-1,104
 381 684 381 684 374 673 c 0,105,106
 357 648 357 648 333 634 c 128,-1,107
 309 620 309 620 285 620 c 0,0,1
EndSplineSet
EndChar

StartChar: plus
Encoding: 43 43 13
Width: 1317
GlyphClass: 2
Flags: W
LayerCount: 2
Fore
SplineSet
195 618 m 1,0,-1
 587 618 l 1,1,-1
 587 1027 l 1,2,-1
 733 1027 l 1,3,-1
 733 618 l 1,4,-1
 1122 618 l 1,5,-1
 1122 492 l 1,6,-1
 733 492 l 1,7,-1
 733 40 l 1,8,-1
 587 40 l 1,9,-1
 587 492 l 1,10,-1
 195 492 l 1,11,-1
 195 618 l 1,0,-1
EndSplineSet
EndChar

StartChar: comma
Encoding: 44 44 14
Width: 552
GlyphClass: 2
Flags: W
LayerCount: 2
Fore
SplineSet
135 111 m 0,0,1
 135 148 135 148 147 175.5 c 128,-1,2
 159 203 159 203 180 221 c 128,-1,3
 201 239 201 239 229 248 c 128,-1,4
 257 257 257 257 288 257 c 0,5,6
 312 257 312 257 337 247.5 c 128,-1,7
 362 238 362 238 382.5 215 c 128,-1,8
 403 192 403 192 416.5 152.5 c 128,-1,9
 430 113 430 113 430 52 c 0,10,11
 430 12 430 12 419 -31 c 128,-1,12
 408 -74 408 -74 391 -115.5 c 128,-1,13
 374 -157 374 -157 351.5 -195 c 128,-1,14
 329 -233 329 -233 307 -264.5 c 128,-1,15
 285 -296 285 -296 264 -319 c 128,-1,16
 243 -342 243 -342 228 -352 c 0,17,18
 216 -361 216 -361 198 -360 c 128,-1,19
 180 -359 180 -359 168.5 -349.5 c 128,-1,20
 157 -340 157 -340 157 -322.5 c 128,-1,21
 157 -305 157 -305 180 -281 c 0,22,23
 211 -248 211 -248 227 -206.5 c 128,-1,24
 243 -165 243 -165 249 -125.5 c 128,-1,25
 255 -86 255 -86 253.5 -53.5 c 128,-1,26
 252 -21 252 -21 249 -7 c 0,27,28
 248 -3 248 -3 230 -1 c 128,-1,29
 212 1 212 1 191 11 c 128,-1,30
 170 21 170 21 152.5 43.5 c 128,-1,31
 135 66 135 66 135 111 c 0,0,1
EndSplineSet
EndChar

StartChar: hyphen
Encoding: 45 45 15
Width: 766
GlyphClass: 2
Flags: W
LayerCount: 2
Fore
SplineSet
104 622 m 1,0,-1
 661 622 l 1,1,-1
 661 496 l 1,2,-1
 104 496 l 1,3,-1
 104 622 l 1,0,-1
EndSplineSet
EndChar

StartChar: period
Encoding: 46 46 16
Width: 552
GlyphClass: 2
Flags: W
LayerCount: 2
Fore
SplineSet
138 122 m 256,0,1
 138 150 138 150 149 174.5 c 128,-1,2
 160 199 160 199 178.5 217.5 c 128,-1,3
 197 236 197 236 222.5 246.5 c 128,-1,4
 248 257 248 257 278 257 c 256,5,6
 308 257 308 257 333.5 246.5 c 128,-1,7
 359 236 359 236 378 217.5 c 128,-1,8
 397 199 397 199 408 174.5 c 128,-1,9
 419 150 419 150 419 122 c 256,10,11
 419 94 419 94 408 68 c 128,-1,12
 397 42 397 42 378 22.5 c 128,-1,13
 359 3 359 3 333.5 -8.5 c 128,-1,14
 308 -20 308 -20 278 -20 c 256,15,16
 248 -20 248 -20 222.5 -8.5 c 128,-1,17
 197 3 197 3 178.5 22.5 c 128,-1,18
 160 42 160 42 149 68 c 128,-1,19
 138 94 138 94 138 122 c 256,0,1
EndSplineSet
EndChar

StartChar: slash
Encoding: 47 47 17
Width: 960
GlyphClass: 2
Flags: W
LayerCount: 2
Fore
SplineSet
704 1547 m 1,0,-1
 841 1547 l 1,1,-1
 254 -340 l 1,2,-1
 119 -340 l 1,3,-1
 704 1547 l 1,0,-1
EndSplineSet
EndChar

StartChar: zero
Encoding: 48 48 18
Width: 1257
GlyphClass: 2
Flags: W
LayerCount: 2
Fore
SplineSet
143 582 m 0,0,1
 143 726 143 726 176.5 841 c 128,-1,2
 210 956 210 956 273 1037 c 128,-1,3
 336 1118 336 1118 427 1161.5 c 128,-1,4
 518 1205 518 1205 633 1205 c 256,5,6
 748 1205 748 1205 837 1161.5 c 128,-1,7
 926 1118 926 1118 987.5 1037 c 128,-1,8
 1049 956 1049 956 1081 841 c 128,-1,9
 1113 726 1113 726 1113 582 c 0,10,11
 1113 441 1113 441 1080 328 c 128,-1,12
 1047 215 1047 215 984.5 135.5 c 128,-1,13
 922 56 922 56 831.5 13.5 c 128,-1,14
 741 -29 741 -29 626 -29 c 256,15,16
 511 -29 511 -29 421.5 13.5 c 128,-1,17
 332 56 332 56 270 135.5 c 128,-1,18
 208 215 208 215 175.5 328 c 128,-1,19
 143 441 143 441 143 582 c 0,0,1
629 66 m 0,20,21
 707 66 707 66 758.5 97.5 c 128,-1,22
 810 129 810 129 840.5 193.5 c 128,-1,23
 871 258 871 258 883.5 354.5 c 128,-1,24
 896 451 896 451 896 582 c 0,25,26
 896 715 896 715 883 814 c 128,-1,27
 870 913 870 913 839 979 c 128,-1,28
 808 1045 808 1045 755.5 1077.5 c 128,-1,29
 703 1110 703 1110 625 1110 c 0,30,31
 546 1110 546 1110 494.5 1077.5 c 128,-1,32
 443 1045 443 1045 412.5 979 c 128,-1,33
 382 913 382 913 370 814 c 128,-1,34
 358 715 358 715 358 582 c 0,35,36
 358 451 358 451 371 354.5 c 128,-1,37
 384 258 384 258 415 193.5 c 128,-1,38
 446 129 446 129 498 97.5 c 128,-1,39
 550 66 550 66 629 66 c 0,20,21
EndSplineSet
EndChar

StartChar: one
Encoding: 49 49 19
Width: 880
GlyphClass: 2
Flags: W
LayerCount: 2
Fore
SplineSet
146 41 m 0,0,1
 146 57 146 57 152.5 66.5 c 128,-1,2
 159 76 159 76 179 78 c 0,3,4
 203 80 203 80 236.5 84 c 128,-1,5
 270 88 270 88 300.5 95.5 c 128,-1,6
 331 103 331 103 352.5 114 c 128,-1,7
 374 125 374 125 374 142 c 2,8,-1
 375 994 l 1,9,10
 354 991 354 991 326 989 c 128,-1,11
 298 987 298 987 269.5 986 c 128,-1,12
 241 985 241 985 215.5 984.5 c 128,-1,13
 190 984 190 984 173 984 c 256,14,15
 156 984 156 984 147.5 994 c 128,-1,16
 139 1004 139 1004 139 1015 c 0,17,18
 139 1038 139 1038 146.5 1054 c 128,-1,19
 154 1070 154 1070 175 1072 c 0,20,21
 198 1074 198 1074 240 1082 c 128,-1,22
 282 1090 282 1090 330 1105 c 128,-1,23
 378 1120 378 1120 425.5 1141 c 128,-1,24
 473 1162 473 1162 508 1189 c 1,25,-1
 577 1189 l 1,26,-1
 576 175 l 2,27,28
 576 143 576 143 596 124.5 c 128,-1,29
 616 106 616 106 644.5 96 c 128,-1,30
 673 86 673 86 704 83 c 128,-1,31
 735 80 735 80 758 78 c 0,32,33
 779 76 779 76 786.5 70 c 128,-1,34
 794 64 794 64 794 41 c 0,35,36
 794 30 794 30 785.5 15 c 128,-1,37
 777 0 777 0 760 0 c 2,38,-1
 180 0 l 2,39,40
 163 0 163 0 154.5 15 c 128,-1,41
 146 30 146 30 146 41 c 0,0,1
EndSplineSet
Substitution2: "'sups' Superscript in Latin lookup 10 subtable" onesuperior
EndChar

StartChar: two
Encoding: 50 50 20
Width: 1144
GlyphClass: 2
Flags: W
LayerCount: 2
Fore
SplineSet
181 75 m 1,0,1
 259 127 259 127 336 187 c 128,-1,2
 413 247 413 247 483 311 c 128,-1,3
 553 375 553 375 613.5 442.5 c 128,-1,4
 674 510 674 510 718 578.5 c 128,-1,5
 762 647 762 647 787 715.5 c 128,-1,6
 812 784 812 784 812 850 c 0,7,8
 812 888 812 888 805 932.5 c 128,-1,9
 798 977 798 977 775.5 1015 c 128,-1,10
 753 1053 753 1053 710 1078.5 c 128,-1,11
 667 1104 667 1104 596 1104 c 0,12,13
 540 1104 540 1104 505 1096 c 128,-1,14
 470 1088 470 1088 449 1076.5 c 128,-1,15
 428 1065 428 1065 418 1053 c 128,-1,16
 408 1041 408 1041 401 1033 c 1,17,-1
 355 838 l 2,18,19
 347 808 347 808 334.5 791 c 128,-1,20
 322 774 322 774 292 774 c 0,21,22
 275 774 275 774 248 781 c 128,-1,23
 221 788 221 788 199 808 c 128,-1,24
 177 828 177 828 168 863.5 c 128,-1,25
 159 899 159 899 178 957 c 0,26,27
 193 1002 193 1002 229 1046.5 c 128,-1,28
 265 1091 265 1091 319.5 1126 c 128,-1,29
 374 1161 374 1161 444.5 1183 c 128,-1,30
 515 1205 515 1205 599 1205 c 0,31,32
 699 1205 699 1205 777.5 1181.5 c 128,-1,33
 856 1158 856 1158 910 1113 c 128,-1,34
 964 1068 964 1068 992.5 1002 c 128,-1,35
 1021 936 1021 936 1021 851 c 0,36,37
 1021 787 1021 787 998 724 c 128,-1,38
 975 661 975 661 935 600 c 128,-1,39
 895 539 895 539 841 481 c 128,-1,40
 787 423 787 423 725 368 c 128,-1,41
 663 313 663 313 596 262 c 128,-1,42
 529 211 529 211 463 165 c 1,43,-1
 1057 165 l 1,44,-1
 1047 0 l 1,45,-1
 180 0 l 1,46,-1
 181 75 l 1,0,1
EndSplineSet
Substitution2: "'sups' Superscript in Latin lookup 10 subtable" twosuperior
EndChar

StartChar: three
Encoding: 51 51 21
Width: 1130
GlyphClass: 2
Flags: W
LayerCount: 2
Fore
SplineSet
113 -68 m 0,0,1
 113 -34 113 -34 124.5 -5 c 128,-1,2
 136 24 136 24 154.5 45 c 128,-1,3
 173 66 173 66 196 78 c 128,-1,4
 219 90 219 90 242 90 c 0,5,6
 258 90 258 90 276.5 83 c 128,-1,7
 295 76 295 76 309.5 62.5 c 128,-1,8
 324 49 324 49 332 30 c 128,-1,9
 340 11 340 11 334 -13 c 0,10,11
 332 -21 332 -21 327 -38 c 128,-1,12
 322 -55 322 -55 315.5 -76.5 c 128,-1,13
 309 -98 309 -98 302 -121.5 c 128,-1,14
 295 -145 295 -145 289 -166 c 1,15,16
 299 -188 299 -188 316.5 -211.5 c 128,-1,17
 334 -235 334 -235 362.5 -254.5 c 128,-1,18
 391 -274 391 -274 432.5 -286.5 c 128,-1,19
 474 -299 474 -299 531 -299 c 0,20,21
 602 -299 602 -299 660.5 -276.5 c 128,-1,22
 719 -254 719 -254 761 -210.5 c 128,-1,23
 803 -167 803 -167 826 -102.5 c 128,-1,24
 849 -38 849 -38 849 46 c 0,25,26
 849 116 849 116 829.5 168.5 c 128,-1,27
 810 221 810 221 778.5 259.5 c 128,-1,28
 747 298 747 298 707 323 c 128,-1,29
 667 348 667 348 627 363.5 c 128,-1,30
 587 379 587 379 550.5 385 c 128,-1,31
 514 391 514 391 488 391 c 2,32,-1
 425 391 l 1,33,-1
 425 505 l 1,34,-1
 488 505 l 2,35,36
 526 505 526 505 575.5 524.5 c 128,-1,37
 625 544 625 544 669 583 c 128,-1,38
 713 622 713 622 743.5 681 c 128,-1,39
 774 740 774 740 774 821 c 0,40,41
 774 859 774 859 767 908 c 128,-1,42
 760 957 760 957 737.5 1000.5 c 128,-1,43
 715 1044 715 1044 672.5 1074 c 128,-1,44
 630 1104 630 1104 559 1104 c 0,45,46
 503 1104 503 1104 469 1096 c 128,-1,47
 435 1088 435 1088 415.5 1076.5 c 128,-1,48
 396 1065 396 1065 387 1053 c 128,-1,49
 378 1041 378 1041 371 1033 c 1,50,-1
 325 838 l 2,51,52
 317 808 317 808 304.5 791 c 128,-1,53
 292 774 292 774 262 774 c 0,54,55
 245 774 245 774 218 781 c 128,-1,56
 191 788 191 788 169 808 c 128,-1,57
 147 828 147 828 138 863.5 c 128,-1,58
 129 899 129 899 148 957 c 0,59,60
 163 1002 163 1002 199 1046.5 c 128,-1,61
 235 1091 235 1091 289.5 1126 c 128,-1,62
 344 1161 344 1161 414.5 1183 c 128,-1,63
 485 1205 485 1205 569 1205 c 0,64,65
 663 1205 663 1205 739.5 1180 c 128,-1,66
 816 1155 816 1155 870 1108 c 128,-1,67
 924 1061 924 1061 953.5 993 c 128,-1,68
 983 925 983 925 983 840 c 0,69,70
 983 763 983 763 950 697.5 c 128,-1,71
 917 632 917 632 867.5 582 c 128,-1,72
 818 532 818 532 760.5 499.5 c 128,-1,73
 703 467 703 467 654 456 c 1,74,75
 721 455 721 455 791 436 c 128,-1,76
 861 417 861 417 917.5 371.5 c 128,-1,77
 974 326 974 326 1010 250.5 c 128,-1,78
 1046 175 1046 175 1046 63 c 0,79,80
 1046 -40 1046 -40 1009 -124 c 128,-1,81
 972 -208 972 -208 906 -268 c 128,-1,82
 840 -328 840 -328 748 -361 c 128,-1,83
 656 -394 656 -394 546 -394 c 0,84,85
 502 -394 502 -394 453 -386 c 128,-1,86
 404 -378 404 -378 355.5 -361.5 c 128,-1,87
 307 -345 307 -345 263.5 -319 c 128,-1,88
 220 -293 220 -293 186.5 -257 c 128,-1,89
 153 -221 153 -221 133 -174 c 128,-1,90
 113 -127 113 -127 113 -68 c 0,0,1
EndSplineSet
Substitution2: "'sups' Superscript in Latin lookup 10 subtable" threesuperior
EndChar

StartChar: four
Encoding: 52 52 22
Width: 1157
GlyphClass: 2
Flags: W
LayerCount: 2
Fore
SplineSet
44 87 m 1,0,-1
 658 1293 l 2,1,2
 661 1299 661 1299 672 1306 c 128,-1,3
 683 1313 683 1313 698.5 1318 c 128,-1,4
 714 1323 714 1323 732 1324 c 128,-1,5
 750 1325 750 1325 767 1319 c 0,6,7
 788 1312 788 1312 803.5 1297.5 c 128,-1,8
 819 1283 819 1283 828.5 1265.5 c 128,-1,9
 838 1248 838 1248 841 1231 c 128,-1,10
 844 1214 844 1214 840 1201 c 1,11,-1
 236 164 l 1,12,-1
 708 164 l 1,13,-1
 708 536 l 1,14,-1
 761 575 l 1,15,-1
 881 576 l 1,16,-1
 881 164 l 1,17,-1
 1117 164 l 1,18,-1
 1107 0 l 1,19,-1
 881 0 l 1,20,-1
 881 -384 l 1,21,-1
 708 -384 l 1,22,-1
 708 0 l 1,23,-1
 93 0 l 1,24,-1
 44 87 l 1,0,-1
EndSplineSet
EndChar

StartChar: five
Encoding: 53 53 23
Width: 1082
GlyphClass: 2
Flags: W
LayerCount: 2
Fore
SplineSet
156 23 m 0,0,1
 195 23 195 23 211 3.5 c 128,-1,2
 227 -16 227 -16 234 -52 c 0,3,4
 238 -70 238 -70 244.5 -95.5 c 128,-1,5
 251 -121 251 -121 257.5 -146.5 c 128,-1,6
 264 -172 264 -172 271 -195 c 128,-1,7
 278 -218 278 -218 283 -230 c 1,8,9
 292 -246 292 -246 313 -259 c 0,10,11
 331 -270 331 -270 364 -281 c 128,-1,12
 397 -292 397 -292 451 -297 c 0,13,14
 536 -304 536 -304 599 -266 c 128,-1,15
 662 -228 662 -228 704 -162 c 128,-1,16
 746 -96 746 -96 767 -11.5 c 128,-1,17
 788 73 788 73 789 158 c 0,18,19
 790 249 790 249 771 316.5 c 128,-1,20
 752 384 752 384 717 428.5 c 128,-1,21
 682 473 682 473 634.5 494.5 c 128,-1,22
 587 516 587 516 532 516 c 0,23,24
 493 516 493 516 450 508.5 c 128,-1,25
 407 501 407 501 366 484.5 c 128,-1,26
 325 468 325 468 289.5 442 c 128,-1,27
 254 416 254 416 231 380 c 1,28,-1
 163 413 l 1,29,-1
 244 1189 l 1,30,-1
 962 1189 l 1,31,-1
 952 1020 l 1,32,-1
 360 1020 l 1,33,-1
 304 564 l 1,34,35
 331 578 331 578 363.5 589.5 c 128,-1,36
 396 601 396 601 431 609.5 c 128,-1,37
 466 618 466 618 500 622.5 c 128,-1,38
 534 627 534 627 564 627 c 0,39,40
 671 627 671 627 754.5 594.5 c 128,-1,41
 838 562 838 562 895 502.5 c 128,-1,42
 952 443 952 443 981 361 c 128,-1,43
 1010 279 1010 279 1009 180 c 0,44,45
 1008 49 1008 49 962.5 -56.5 c 128,-1,46
 917 -162 917 -162 840.5 -236.5 c 128,-1,47
 764 -311 764 -311 663 -351.5 c 128,-1,48
 562 -392 562 -392 450 -392 c 0,49,50
 395 -392 395 -392 337 -377 c 128,-1,51
 279 -362 279 -362 228 -335 c 128,-1,52
 177 -308 177 -308 138 -270.5 c 128,-1,53
 99 -233 99 -233 83 -188 c 0,54,55
 62 -130 62 -130 63 -90 c 128,-1,56
 64 -50 64 -50 77.5 -25 c 128,-1,57
 91 0 91 0 113 11.5 c 128,-1,58
 135 23 135 23 156 23 c 0,0,1
EndSplineSet
EndChar

StartChar: six
Encoding: 54 54 24
Width: 1159
GlyphClass: 2
Flags: W
LayerCount: 2
Fore
SplineSet
110 522 m 0,0,1
 110 620 110 620 130 726.5 c 128,-1,2
 150 833 150 833 192.5 937.5 c 128,-1,3
 235 1042 235 1042 301.5 1138.5 c 128,-1,4
 368 1235 368 1235 461 1314.5 c 128,-1,5
 554 1394 554 1394 675.5 1450 c 128,-1,6
 797 1506 797 1506 949 1529 c 1,7,-1
 950 1437 l 1,8,9
 849 1413 849 1413 769 1374 c 128,-1,10
 689 1335 689 1335 626.5 1285.5 c 128,-1,11
 564 1236 564 1236 518 1177.5 c 128,-1,12
 472 1119 472 1119 439 1056.5 c 128,-1,13
 406 994 406 994 384.5 928.5 c 128,-1,14
 363 863 363 863 350 799 c 1,15,16
 371 823 371 823 398.5 846.5 c 128,-1,17
 426 870 426 870 462 889.5 c 128,-1,18
 498 909 498 909 544.5 921 c 128,-1,19
 591 933 591 933 650 933 c 0,20,21
 764 933 764 933 844.5 897 c 128,-1,22
 925 861 925 861 977 799 c 128,-1,23
 1029 737 1029 737 1053 652.5 c 128,-1,24
 1077 568 1077 568 1077 472 c 0,25,26
 1077 368 1077 368 1045 277 c 128,-1,27
 1013 186 1013 186 951.5 118 c 128,-1,28
 890 50 890 50 801 10.5 c 128,-1,29
 712 -29 712 -29 597 -29 c 256,30,31
 482 -29 482 -29 391.5 18 c 128,-1,32
 301 65 301 65 238.5 142.5 c 128,-1,33
 176 220 176 220 143 319 c 128,-1,34
 110 418 110 418 110 522 c 0,0,1
322 472 m 0,35,36
 322 378 322 378 335 303 c 128,-1,37
 348 228 348 228 379 175.5 c 128,-1,38
 410 123 410 123 462 94.5 c 128,-1,39
 514 66 514 66 593 66 c 0,40,41
 671 66 671 66 722.5 94.5 c 128,-1,42
 774 123 774 123 804.5 175.5 c 128,-1,43
 835 228 835 228 847.5 303 c 128,-1,44
 860 378 860 378 860 472 c 0,45,46
 860 548 860 548 846 611.5 c 128,-1,47
 832 675 832 675 803.5 720 c 128,-1,48
 775 765 775 765 730 790 c 128,-1,49
 685 815 685 815 624 815 c 0,50,51
 576 815 576 815 532.5 802.5 c 128,-1,52
 489 790 489 790 451.5 770 c 128,-1,53
 414 750 414 750 383.5 723.5 c 128,-1,54
 353 697 353 697 331 670 c 1,55,56
 325 613 325 613 323.5 563.5 c 128,-1,57
 322 514 322 514 322 472 c 0,35,36
EndSplineSet
EndChar

StartChar: seven
Encoding: 55 55 25
Width: 1029
GlyphClass: 2
Flags: W
LayerCount: 2
Fore
SplineSet
869 1028 m 1,0,-1
 373 1028 l 2,1,2
 342 1028 342 1028 317 1012.5 c 128,-1,3
 292 997 292 997 272 973.5 c 128,-1,4
 252 950 252 950 237 921 c 128,-1,5
 222 892 222 892 212 865 c 128,-1,6
 202 838 202 838 196 816.5 c 128,-1,7
 190 795 190 795 189 785 c 0,8,9
 187 765 187 765 172.5 758.5 c 128,-1,10
 158 752 158 752 142 752 c 0,11,12
 131 752 131 752 116 760.5 c 128,-1,13
 101 769 101 769 101 786 c 1,14,-1
 136 1190 l 1,15,-1
 973 1189 l 1,16,-1
 1026 1122 l 1,17,-1
 474 -383 l 1,18,-1
 252 -382 l 1,19,-1
 869 1028 l 1,0,-1
EndSplineSet
EndChar

StartChar: eight
Encoding: 56 56 26
Width: 1221
GlyphClass: 2
Flags: W
LayerCount: 2
Fore
SplineSet
140 373 m 0,0,1
 140 445 140 445 165 504.5 c 128,-1,2
 190 564 190 564 229 610 c 128,-1,3
 268 656 268 656 316.5 689 c 128,-1,4
 365 722 365 722 412 741 c 1,5,6
 369 774 369 774 332 812 c 128,-1,7
 295 850 295 850 268 894 c 128,-1,8
 241 938 241 938 225.5 990 c 128,-1,9
 210 1042 210 1042 210 1102 c 0,10,11
 210 1163 210 1163 238 1225 c 128,-1,12
 266 1287 266 1287 319 1336.5 c 128,-1,13
 372 1386 372 1386 450 1417.5 c 128,-1,14
 528 1449 528 1449 627 1449 c 0,15,16
 735 1449 735 1449 812 1420.5 c 128,-1,17
 889 1392 889 1392 937.5 1343 c 128,-1,18
 986 1294 986 1294 1008.5 1229 c 128,-1,19
 1031 1164 1031 1164 1031 1091 c 0,20,21
 1031 1032 1031 1032 1010.5 981 c 128,-1,22
 990 930 990 930 957.5 887.5 c 128,-1,23
 925 845 925 845 884 811.5 c 128,-1,24
 843 778 843 778 801 755 c 1,25,26
 858 721 858 721 909.5 682 c 128,-1,27
 961 643 961 643 1000 595 c 128,-1,28
 1039 547 1039 547 1061.5 489 c 128,-1,29
 1084 431 1084 431 1084 358 c 0,30,31
 1084 278 1084 278 1055.5 208 c 128,-1,32
 1027 138 1027 138 969.5 85 c 128,-1,33
 912 32 912 32 824 1.5 c 128,-1,34
 736 -29 736 -29 617 -29 c 0,35,36
 497 -29 497 -29 407.5 3 c 128,-1,37
 318 35 318 35 258.5 90 c 128,-1,38
 199 145 199 145 169.5 218 c 128,-1,39
 140 291 140 291 140 373 c 0,0,1
716 803 m 1,40,41
 744 820 744 820 767.5 844 c 128,-1,42
 791 868 791 868 808 903.5 c 128,-1,43
 825 939 825 939 835 987.5 c 128,-1,44
 845 1036 845 1036 845 1102 c 0,45,46
 845 1151 845 1151 833 1196.5 c 128,-1,47
 821 1242 821 1242 795 1277 c 128,-1,48
 769 1312 769 1312 727 1333 c 128,-1,49
 685 1354 685 1354 624 1354 c 0,50,51
 515 1354 515 1354 461 1288 c 128,-1,52
 407 1222 407 1222 407 1107 c 0,53,54
 407 1067 407 1067 421.5 1032.5 c 128,-1,55
 436 998 436 998 467.5 965 c 128,-1,56
 499 932 499 932 548 899 c 128,-1,57
 597 866 597 866 665 830 c 2,58,-1
 716 803 l 1,40,41
329 362 m 0,59,60
 329 334 329 334 335 301.5 c 128,-1,61
 341 269 341 269 354 236 c 128,-1,62
 367 203 367 203 389 172.5 c 128,-1,63
 411 142 411 142 443.5 118 c 128,-1,64
 476 94 476 94 519.5 80 c 128,-1,65
 563 66 563 66 620 66 c 0,66,67
 748 66 748 66 817.5 131.5 c 128,-1,68
 887 197 887 197 887 314 c 0,69,70
 887 379 887 379 861 425.5 c 128,-1,71
 835 472 835 472 794.5 506.5 c 128,-1,72
 754 541 754 541 704 568 c 128,-1,73
 654 595 654 595 605 621 c 0,74,75
 576 636 576 636 548 652 c 128,-1,76
 520 668 520 668 493 685 c 1,77,78
 420 649 420 649 374.5 568 c 128,-1,79
 329 487 329 487 329 362 c 0,59,60
EndSplineSet
EndChar

StartChar: less
Encoding: 60 60 30
Width: 1317
GlyphClass: 2
Flags: W
LayerCount: 2
Fore
SplineSet
194 614 m 1,0,-1
 1112 1091 l 1,1,-1
 1112 945 l 1,2,-1
 342 554 l 1,3,-1
 1112 164 l 1,4,-1
 1112 20 l 1,5,-1
 194 495 l 1,6,-1
 194 614 l 1,0,-1
EndSplineSet
EndChar

StartChar: equal
Encoding: 61 61 31
Width: 1317
GlyphClass: 2
Flags: W
LayerCount: 2
Fore
SplineSet
193 836 m 1,0,-1
 1123 836 l 1,1,-1
 1123 690 l 1,2,-1
 193 690 l 1,3,-1
 193 836 l 1,0,-1
193 418 m 1,4,-1
 1123 418 l 1,5,-1
 1123 272 l 1,6,-1
 193 272 l 1,7,-1
 193 418 l 1,4,-1
EndSplineSet
EndChar

StartChar: question
Encoding: 63 63 33
Width: 980
GlyphClass: 2
Flags: W
LayerCount: 2
Fore
SplineSet
387 706 m 1,0,1
 429 709 429 709 482 735.5 c 128,-1,2
 535 762 535 762 582.5 811 c 128,-1,3
 630 860 630 860 662.5 931.5 c 128,-1,4
 695 1003 695 1003 695 1096 c 0,5,6
 695 1143 695 1143 686.5 1203 c 128,-1,7
 678 1263 678 1263 653.5 1316.5 c 128,-1,8
 629 1370 629 1370 584.5 1406.5 c 128,-1,9
 540 1443 540 1443 469 1443 c 0,10,11
 418 1443 418 1443 382.5 1428 c 128,-1,12
 347 1413 347 1413 324 1395 c 0,13,14
 298 1374 298 1374 280 1347 c 1,15,-1
 239 1117 l 2,16,17
 234 1094 234 1094 215 1086.5 c 128,-1,18
 196 1079 196 1079 164 1079 c 0,19,20
 143 1079 143 1079 118 1090 c 128,-1,21
 93 1101 93 1101 75.5 1125.5 c 128,-1,22
 58 1150 58 1150 54 1189 c 128,-1,23
 50 1228 50 1228 72 1284 c 1,24,25
 88 1328 88 1328 123 1372 c 128,-1,26
 158 1416 158 1416 208 1450.5 c 128,-1,27
 258 1485 258 1485 323.5 1506.5 c 128,-1,28
 389 1528 389 1528 467 1528 c 0,29,30
 584 1528 584 1528 667.5 1494.5 c 128,-1,31
 751 1461 751 1461 805 1404 c 128,-1,32
 859 1347 859 1347 884.5 1270.5 c 128,-1,33
 910 1194 910 1194 910 1107 c 0,34,35
 910 1004 910 1004 874 918 c 128,-1,36
 838 832 838 832 779.5 767 c 128,-1,37
 721 702 721 702 647.5 658.5 c 128,-1,38
 574 615 574 615 499 598 c 1,39,-1
 499 377 l 1,40,-1
 387 377 l 1,41,-1
 387 706 l 1,0,1
309 122 m 256,42,43
 309 150 309 150 320 174.5 c 128,-1,44
 331 199 331 199 349.5 217.5 c 128,-1,45
 368 236 368 236 393.5 246.5 c 128,-1,46
 419 257 419 257 449 257 c 256,47,48
 479 257 479 257 504.5 246.5 c 128,-1,49
 530 236 530 236 549 217.5 c 128,-1,50
 568 199 568 199 579 174.5 c 128,-1,51
 590 150 590 150 590 122 c 256,52,53
 590 94 590 94 579 68 c 128,-1,54
 568 42 568 42 549 22.5 c 128,-1,55
 530 3 530 3 504.5 -8.5 c 128,-1,56
 479 -20 479 -20 449 -20 c 256,57,58
 419 -20 419 -20 393.5 -8.5 c 128,-1,59
 368 3 368 3 349.5 22.5 c 128,-1,60
 331 42 331 42 320 68 c 128,-1,61
 309 94 309 94 309 122 c 256,42,43
EndSplineSet
EndChar

StartChar: at
Encoding: 64 64 34
Width: 1902
GlyphClass: 2
Flags: W
LayerCount: 2
Fore
SplineSet
155 482 m 256,0,1
 155 634 155 634 190.5 759.5 c 128,-1,2
 226 885 226 885 288 984.5 c 128,-1,3
 350 1084 350 1084 434.5 1158 c 128,-1,4
 519 1232 519 1232 617.5 1281 c 128,-1,5
 716 1330 716 1330 824.5 1354 c 128,-1,6
 933 1378 933 1378 1043 1378 c 0,7,8
 1124 1378 1124 1378 1207.5 1361 c 128,-1,9
 1291 1344 1291 1344 1369.5 1308.5 c 128,-1,10
 1448 1273 1448 1273 1516.5 1219 c 128,-1,11
 1585 1165 1585 1165 1636.5 1091.5 c 128,-1,12
 1688 1018 1688 1018 1717.5 923.5 c 128,-1,13
 1747 829 1747 829 1747 714 c 0,14,15
 1747 604 1747 604 1722.5 517 c 128,-1,16
 1698 430 1698 430 1658.5 363 c 128,-1,17
 1619 296 1619 296 1568 248.5 c 128,-1,18
 1517 201 1517 201 1464.5 170.5 c 128,-1,19
 1412 140 1412 140 1362 126 c 128,-1,20
 1312 112 1312 112 1273 112 c 0,21,22
 1219 112 1219 112 1179.5 125.5 c 128,-1,23
 1140 139 1140 139 1112.5 160 c 128,-1,24
 1085 181 1085 181 1069.5 207 c 128,-1,25
 1054 233 1054 233 1050 259 c 1,26,27
 1045 248 1045 248 1035.5 234 c 128,-1,28
 1026 220 1026 220 1005 199 c 0,29,30
 967 161 967 161 918 140.5 c 128,-1,31
 869 120 869 120 824 120 c 256,32,33
 779 120 779 120 735 129 c 128,-1,34
 691 138 691 138 655 166.5 c 128,-1,35
 619 195 619 195 594 249 c 128,-1,36
 569 303 569 303 562 392 c 0,37,38
 557 451 557 451 567.5 518 c 128,-1,39
 578 585 578 585 602.5 651 c 128,-1,40
 627 717 627 717 665 777 c 128,-1,41
 703 837 703 837 753.5 883 c 128,-1,42
 804 929 804 929 866.5 956 c 128,-1,43
 929 983 929 983 1002 983 c 0,44,45
 1048 983 1048 983 1079 969.5 c 128,-1,46
 1110 956 1110 956 1130 935 c 128,-1,47
 1150 914 1150 914 1160 888 c 128,-1,48
 1170 862 1170 862 1174 838 c 1,49,-1
 1200 956 l 1,50,-1
 1372 956 l 1,51,-1
 1212 369 l 2,52,53
 1208 355 1208 355 1204.5 327 c 128,-1,54
 1201 299 1201 299 1206 271 c 128,-1,55
 1211 243 1211 243 1230 222 c 128,-1,56
 1249 201 1249 201 1291 201 c 0,57,58
 1317 201 1317 201 1353.5 213.5 c 128,-1,59
 1390 226 1390 226 1429.5 252.5 c 128,-1,60
 1469 279 1469 279 1507.5 320.5 c 128,-1,61
 1546 362 1546 362 1576.5 419 c 128,-1,62
 1607 476 1607 476 1626 549.5 c 128,-1,63
 1645 623 1645 623 1645 714 c 0,64,65
 1645 860 1645 860 1591.5 967 c 128,-1,66
 1538 1074 1538 1074 1451.5 1143.5 c 128,-1,67
 1365 1213 1365 1213 1256.5 1246.5 c 128,-1,68
 1148 1280 1148 1280 1037 1280 c 0,69,70
 964 1280 964 1280 879.5 1264 c 128,-1,71
 795 1248 795 1248 711.5 1211 c 128,-1,72
 628 1174 628 1174 550 1114.5 c 128,-1,73
 472 1055 472 1055 412.5 967 c 128,-1,74
 353 879 353 879 317.5 761.5 c 128,-1,75
 282 644 282 644 282 492 c 0,76,77
 282 335 282 335 319.5 220.5 c 128,-1,78
 357 106 357 106 418.5 26.5 c 128,-1,79
 480 -53 480 -53 557 -103 c 128,-1,80
 634 -153 634 -153 712.5 -180.5 c 128,-1,81
 791 -208 791 -208 864.5 -217.5 c 128,-1,82
 938 -227 938 -227 991 -227 c 0,83,84
 1057 -227 1057 -227 1114 -219 c 128,-1,85
 1171 -211 1171 -211 1218.5 -198 c 128,-1,86
 1266 -185 1266 -185 1305 -168.5 c 128,-1,87
 1344 -152 1344 -152 1374 -134 c 0,88,89
 1445 -93 1445 -93 1491 -40 c 1,90,-1
 1568 -94 l 1,91,92
 1498 -158 1498 -158 1408 -208 c 0,93,94
 1370 -229 1370 -229 1324 -249.5 c 128,-1,95
 1278 -270 1278 -270 1225 -286 c 128,-1,96
 1172 -302 1172 -302 1113 -312 c 128,-1,97
 1054 -322 1054 -322 990 -322 c 0,98,99
 904 -322 904 -322 809 -304.5 c 128,-1,100
 714 -287 714 -287 621.5 -248.5 c 128,-1,101
 529 -210 529 -210 444.5 -148 c 128,-1,102
 360 -86 360 -86 295.5 3 c 128,-1,103
 231 92 231 92 193 211 c 128,-1,104
 155 330 155 330 155 482 c 256,0,1
761 383 m 0,105,106
 762 363 762 363 762 333.5 c 128,-1,107
 762 304 762 304 768.5 277 c 128,-1,108
 775 250 775 250 793.5 230.5 c 128,-1,109
 812 211 812 211 850 211 c 0,110,111
 869 211 869 211 887.5 218.5 c 128,-1,112
 906 226 906 226 923.5 238 c 128,-1,113
 941 250 941 250 957 265.5 c 128,-1,114
 973 281 973 281 987 298 c 0,115,116
 1019 337 1019 337 1047 386 c 1,117,-1
 1128 726 l 1,118,119
 1124 749 1124 749 1120 778.5 c 128,-1,120
 1116 808 1116 808 1105 833.5 c 128,-1,121
 1094 859 1094 859 1071.5 876.5 c 128,-1,122
 1049 894 1049 894 1009 894 c 0,123,124
 958 894 958 894 919.5 860 c 128,-1,125
 881 826 881 826 853 773.5 c 128,-1,126
 825 721 825 721 807 658.5 c 128,-1,127
 789 596 789 596 778.5 539.5 c 128,-1,128
 768 483 768 483 764 439.5 c 128,-1,129
 760 396 760 396 761 383 c 0,105,106
EndSplineSet
EndChar

StartChar: A
Encoding: 65 65 35
Width: 1374
GlyphClass: 2
Flags: W
LayerCount: 2
Fore
SplineSet
-2 0 m 2,0,1
 -10 0 -10 0 -16.5 6 c 128,-1,2
 -23 12 -23 12 -27.5 20 c 128,-1,3
 -32 28 -32 28 -34 36.5 c 128,-1,4
 -36 45 -36 45 -36 51 c 0,5,6
 -36 74 -36 74 -28.5 80 c 128,-1,7
 -21 86 -21 86 0 88 c 0,8,9
 18 90 18 90 39.5 90 c 128,-1,10
 61 90 61 90 82 95.5 c 128,-1,11
 103 101 103 101 122 116.5 c 128,-1,12
 141 132 141 132 153 165 c 2,13,-1
 659 1472 l 1,14,-1
 695 1472 l 1,15,-1
 1226 165 l 1,16,17
 1238 132 1238 132 1256.5 116.5 c 128,-1,18
 1275 101 1275 101 1295.5 95.5 c 128,-1,19
 1316 90 1316 90 1337.5 90 c 128,-1,20
 1359 90 1359 90 1377 88 c 0,21,22
 1398 86 1398 86 1405.5 80 c 128,-1,23
 1413 74 1413 74 1413 51 c 0,24,25
 1413 45 1413 45 1411 36.5 c 128,-1,26
 1409 28 1409 28 1404.5 20 c 128,-1,27
 1400 12 1400 12 1393.5 6 c 128,-1,28
 1387 0 1387 0 1379 0 c 2,29,-1
 878 0 l 2,30,31
 869 0 869 0 863 6 c 128,-1,32
 857 12 857 12 852.5 20 c 128,-1,33
 848 28 848 28 846 36.5 c 128,-1,34
 844 45 844 45 844 51 c 0,35,36
 844 67 844 67 850.5 76.5 c 128,-1,37
 857 86 857 86 877 88 c 0,38,39
 911 90 911 90 938.5 90.5 c 128,-1,40
 966 91 966 91 984.5 94.5 c 128,-1,41
 1003 98 1003 98 1010 106 c 128,-1,42
 1017 114 1017 114 1011 132 c 2,43,-1
 875 494 l 1,44,-1
 406 494 l 1,45,-1
 278 132 l 2,46,47
 272 114 272 114 281 106 c 128,-1,48
 290 98 290 98 310 94.5 c 128,-1,49
 330 91 330 91 359 90.5 c 128,-1,50
 388 90 388 90 422 88 c 0,51,52
 442 86 442 86 448.5 76.5 c 128,-1,53
 455 67 455 67 455 51 c 0,54,55
 455 45 455 45 453 36.5 c 128,-1,56
 451 28 451 28 446.5 20 c 128,-1,57
 442 12 442 12 436 6 c 128,-1,58
 430 0 430 0 421 0 c 2,59,-1
 -2 0 l 2,0,1
843 580 m 1,60,-1
 635 1136 l 1,61,-1
 437 580 l 1,62,-1
 843 580 l 1,60,-1
EndSplineSet
EndChar

StartChar: B
Encoding: 66 66 36
Width: 1339
GlyphClass: 2
Flags: W
LayerCount: 2
Fore
SplineSet
80 51 m 0,0,1
 80 67 80 67 86.5 76.5 c 128,-1,2
 93 86 93 86 113 88 c 0,3,4
 143 90 143 90 174 94 c 128,-1,5
 205 98 205 98 230.5 105.5 c 128,-1,6
 256 113 256 113 272 124 c 128,-1,7
 288 135 288 135 288 152 c 2,8,-1
 289 1234 l 2,9,10
 289 1266 289 1266 271 1284.5 c 128,-1,11
 253 1303 253 1303 225.5 1313 c 128,-1,12
 198 1323 198 1323 166 1326 c 128,-1,13
 134 1329 134 1329 107 1331 c 0,14,15
 86 1333 86 1333 78.5 1339 c 128,-1,16
 71 1345 71 1345 71 1368 c 0,17,18
 71 1374 71 1374 73 1382.5 c 128,-1,19
 75 1391 75 1391 79.5 1399 c 128,-1,20
 84 1407 84 1407 90 1413 c 128,-1,21
 96 1419 96 1419 105 1419 c 2,22,-1
 655 1419 l 2,23,24
 768 1419 768 1419 862.5 1404 c 128,-1,25
 957 1389 957 1389 1025.5 1352.5 c 128,-1,26
 1094 1316 1094 1316 1132 1254.5 c 128,-1,27
 1170 1193 1170 1193 1170 1100 c 0,28,29
 1170 1030 1170 1030 1147 972.5 c 128,-1,30
 1124 915 1124 915 1083.5 872.5 c 128,-1,31
 1043 830 1043 830 988 802.5 c 128,-1,32
 933 775 933 775 869 765 c 1,33,34
 910 760 910 760 954 751.5 c 128,-1,35
 998 743 998 743 1040 726.5 c 128,-1,36
 1082 710 1082 710 1120 685 c 128,-1,37
 1158 660 1158 660 1186.5 623.5 c 128,-1,38
 1215 587 1215 587 1231.5 537.5 c 128,-1,39
 1248 488 1248 488 1248 423 c 0,40,41
 1248 313 1248 313 1204.5 233.5 c 128,-1,42
 1161 154 1161 154 1088.5 102 c 128,-1,43
 1016 50 1016 50 922 25 c 128,-1,44
 828 0 828 0 727 0 c 2,45,-1
 114 0 l 2,46,47
 105 0 105 0 99 6 c 128,-1,48
 93 12 93 12 88.5 20 c 128,-1,49
 84 28 84 28 82 36.5 c 128,-1,50
 80 45 80 45 80 51 c 0,0,1
651 801 m 2,51,52
 698 801 698 801 752.5 811.5 c 128,-1,53
 807 822 807 822 853.5 852 c 128,-1,54
 900 882 900 882 931 935 c 128,-1,55
 962 988 962 988 962 1073 c 0,56,57
 962 1149 962 1149 936.5 1199 c 128,-1,58
 911 1249 911 1249 864 1278.5 c 128,-1,59
 817 1308 817 1308 749.5 1319.5 c 128,-1,60
 682 1331 682 1331 598 1331 c 2,61,-1
 495 1331 l 1,62,-1
 495 801 l 1,63,-1
 651 801 l 2,51,52
495 137 m 2,64,65
 495 136 495 136 500 130 c 128,-1,66
 505 124 505 124 521.5 117.5 c 128,-1,67
 538 111 538 111 570.5 106 c 128,-1,68
 603 101 603 101 658 101 c 0,69,70
 694 101 694 101 735.5 105 c 128,-1,71
 777 109 777 109 818 121.5 c 128,-1,72
 859 134 859 134 897 155.5 c 128,-1,73
 935 177 935 177 964 212.5 c 128,-1,74
 993 248 993 248 1010.5 298.5 c 128,-1,75
 1028 349 1028 349 1028 418 c 0,76,77
 1028 492 1028 492 1006.5 542.5 c 128,-1,78
 985 593 985 593 951 626 c 128,-1,79
 917 659 917 659 874.5 677 c 128,-1,80
 832 695 832 695 790.5 703.5 c 128,-1,81
 749 712 749 712 712.5 713.5 c 128,-1,82
 676 715 676 715 654 715 c 2,83,-1
 495 715 l 1,84,-1
 495 137 l 2,64,65
EndSplineSet
EndChar

StartChar: C
Encoding: 67 67 37
Width: 1315
GlyphClass: 2
Flags: W
LayerCount: 2
Fore
SplineSet
78 706 m 0,0,1
 78 838 78 838 108 944.5 c 128,-1,2
 138 1051 138 1051 189 1133.5 c 128,-1,3
 240 1216 240 1216 308 1275.5 c 128,-1,4
 376 1335 376 1335 451 1373.5 c 128,-1,5
 526 1412 526 1412 604 1430.5 c 128,-1,6
 682 1449 682 1449 754 1449 c 0,7,8
 853 1449 853 1449 928 1439.5 c 128,-1,9
 1003 1430 1003 1430 1058.5 1416.5 c 128,-1,10
 1114 1403 1114 1403 1152 1388 c 128,-1,11
 1190 1373 1190 1373 1217 1361 c 1,12,-1
 1239 1051 l 2,13,14
 1241 1034 1241 1034 1228 1023.5 c 128,-1,15
 1215 1013 1215 1013 1203 1011 c 0,16,17
 1186 1009 1186 1009 1173 1014 c 128,-1,18
 1160 1019 1160 1019 1157 1039 c 1,19,20
 1139 1102 1139 1102 1107 1159 c 128,-1,21
 1075 1216 1075 1216 1025.5 1259.5 c 128,-1,22
 976 1303 976 1303 908 1328 c 128,-1,23
 840 1353 840 1353 752 1353 c 0,24,25
 709 1353 709 1353 661 1345.5 c 128,-1,26
 613 1338 613 1338 566 1315 c 128,-1,27
 519 1292 519 1292 475.5 1248.5 c 128,-1,28
 432 1205 432 1205 399 1133 c 128,-1,29
 366 1061 366 1061 346.5 956.5 c 128,-1,30
 327 852 327 852 327 706 c 0,31,32
 327 568 327 568 348.5 466.5 c 128,-1,33
 370 365 370 365 405 293.5 c 128,-1,34
 440 222 440 222 485.5 177.5 c 128,-1,35
 531 133 531 133 580 108 c 128,-1,36
 629 83 629 83 676.5 74 c 128,-1,37
 724 65 724 65 764 65 c 0,38,39
 851 65 851 65 914.5 89 c 128,-1,40
 978 113 978 113 1022 154.5 c 128,-1,41
 1066 196 1066 196 1092 252 c 128,-1,42
 1118 308 1118 308 1130 373 c 0,43,44
 1134 393 1134 393 1142 399.5 c 128,-1,45
 1150 406 1150 406 1167 406 c 0,46,47
 1173 406 1173 406 1183.5 404 c 128,-1,48
 1194 402 1194 402 1203.5 397.5 c 128,-1,49
 1213 393 1213 393 1220.5 387 c 128,-1,50
 1228 381 1228 381 1228 372 c 1,51,-1
 1196 108 l 2,52,53
 1194 97 1194 97 1162.5 74.5 c 128,-1,54
 1131 52 1131 52 1074 28.5 c 128,-1,55
 1017 5 1017 5 938.5 -12.5 c 128,-1,56
 860 -30 860 -30 765 -30 c 0,57,58
 685 -30 685 -30 603 -14.5 c 128,-1,59
 521 1 521 1 444.5 36 c 128,-1,60
 368 71 368 71 301 127.5 c 128,-1,61
 234 184 234 184 184.5 265.5 c 128,-1,62
 135 347 135 347 106.5 456 c 128,-1,63
 78 565 78 565 78 706 c 0,0,1
EndSplineSet
EndChar

StartChar: D
Encoding: 68 68 38
Width: 1534
GlyphClass: 2
Flags: W
LayerCount: 2
Fore
SplineSet
110 51 m 0,0,1
 110 67 110 67 116.5 76.5 c 128,-1,2
 123 86 123 86 143 88 c 0,3,4
 167 90 167 90 192.5 94 c 128,-1,5
 218 98 218 98 239.5 105.5 c 128,-1,6
 261 113 261 113 274.5 124 c 128,-1,7
 288 135 288 135 288 152 c 2,8,-1
 289 1234 l 2,9,10
 289 1266 289 1266 274 1284.5 c 128,-1,11
 259 1303 259 1303 236 1313 c 128,-1,12
 213 1323 213 1323 186.5 1326 c 128,-1,13
 160 1329 160 1329 137 1331 c 0,14,15
 116 1333 116 1333 108.5 1339 c 128,-1,16
 101 1345 101 1345 101 1368 c 0,17,18
 101 1374 101 1374 103 1382.5 c 128,-1,19
 105 1391 105 1391 109.5 1399 c 128,-1,20
 114 1407 114 1407 120 1413 c 128,-1,21
 126 1419 126 1419 135 1419 c 2,22,-1
 725 1419 l 1,23,24
 861 1418 861 1418 968 1391.5 c 128,-1,25
 1075 1365 1075 1365 1156 1318 c 128,-1,26
 1237 1271 1237 1271 1294 1207 c 128,-1,27
 1351 1143 1351 1143 1386.5 1067.5 c 128,-1,28
 1422 992 1422 992 1438.5 908 c 128,-1,29
 1455 824 1455 824 1455 738 c 0,30,31
 1455 608 1455 608 1425 502.5 c 128,-1,32
 1395 397 1395 397 1343.5 315 c 128,-1,33
 1292 233 1292 233 1223.5 173.5 c 128,-1,34
 1155 114 1155 114 1078.5 75.5 c 128,-1,35
 1002 37 1002 37 922 18.5 c 128,-1,36
 842 0 842 0 767 0 c 2,37,-1
 144 0 l 2,38,39
 135 0 135 0 129 6 c 128,-1,40
 123 12 123 12 118.5 20 c 128,-1,41
 114 28 114 28 112 36.5 c 128,-1,42
 110 45 110 45 110 51 c 0,0,1
495 168 m 2,43,44
 495 157 495 157 502 145.5 c 128,-1,45
 509 134 509 134 531 124 c 128,-1,46
 553 114 553 114 593 107.5 c 128,-1,47
 633 101 633 101 698 101 c 0,48,49
 759 101 759 101 820.5 108 c 128,-1,50
 882 115 882 115 938.5 137.5 c 128,-1,51
 995 160 995 160 1044.5 202.5 c 128,-1,52
 1094 245 1094 245 1130.5 315.5 c 128,-1,53
 1167 386 1167 386 1188 488.5 c 128,-1,54
 1209 591 1209 591 1209 734 c 0,55,56
 1209 858 1209 858 1184.5 950 c 128,-1,57
 1160 1042 1160 1042 1119 1108.5 c 128,-1,58
 1078 1175 1078 1175 1023.5 1218 c 128,-1,59
 969 1261 969 1261 908 1286 c 128,-1,60
 847 1311 847 1311 784 1321 c 128,-1,61
 721 1331 721 1331 663 1331 c 2,62,-1
 496 1331 l 1,63,-1
 495 168 l 2,43,44
EndSplineSet
EndChar

StartChar: E
Encoding: 69 69 39
Width: 1338
GlyphClass: 2
Flags: W
LayerCount: 2
Fore
SplineSet
110 51 m 0,0,1
 110 67 110 67 116.5 76.5 c 128,-1,2
 123 86 123 86 143 88 c 0,3,4
 167 90 167 90 192.5 94 c 128,-1,5
 218 98 218 98 239.5 105.5 c 128,-1,6
 261 113 261 113 274.5 124 c 128,-1,7
 288 135 288 135 288 152 c 2,8,-1
 289 1234 l 2,9,10
 289 1266 289 1266 274 1284.5 c 128,-1,11
 259 1303 259 1303 236 1313 c 128,-1,12
 213 1323 213 1323 186.5 1326 c 128,-1,13
 160 1329 160 1329 137 1331 c 0,14,15
 116 1333 116 1333 108.5 1339 c 128,-1,16
 101 1345 101 1345 101 1368 c 0,17,18
 101 1374 101 1374 103 1382.5 c 128,-1,19
 105 1391 105 1391 109.5 1399 c 128,-1,20
 114 1407 114 1407 120 1413 c 128,-1,21
 126 1419 126 1419 135 1419 c 2,22,-1
 1154 1419 l 1,23,-1
 1189 1104 l 1,24,25
 1189 1087 1189 1087 1174 1078.5 c 128,-1,26
 1159 1070 1159 1070 1148 1070 c 0,27,28
 1140 1070 1140 1070 1131 1071.5 c 128,-1,29
 1122 1073 1122 1073 1114.5 1076.5 c 128,-1,30
 1107 1080 1107 1080 1101.5 1086.5 c 128,-1,31
 1096 1093 1096 1093 1095 1103 c 256,32,33
 1094 1113 1094 1113 1086.5 1134 c 128,-1,34
 1079 1155 1079 1155 1066 1180.5 c 128,-1,35
 1053 1206 1053 1206 1035.5 1232.5 c 128,-1,36
 1018 1259 1018 1259 996.5 1281 c 128,-1,37
 975 1303 975 1303 950.5 1317 c 128,-1,38
 926 1331 926 1331 899 1331 c 2,39,-1
 496 1331 l 1,40,-1
 495 773 l 1,41,-1
 774 773 l 1,42,43
 793 776 793 776 810 798 c 128,-1,44
 827 820 827 820 839.5 848.5 c 128,-1,45
 852 877 852 877 859.5 905 c 128,-1,46
 867 933 867 933 869 948 c 0,47,48
 871 967 871 967 888 974 c 128,-1,49
 905 981 905 981 921 981 c 0,50,51
 932 981 932 981 947 972.5 c 128,-1,52
 962 964 962 964 962 947 c 2,53,-1
 962 504 l 2,54,55
 962 487 962 487 947 478.5 c 128,-1,56
 932 470 932 470 921 470 c 0,57,58
 913 470 913 470 904.5 471.5 c 128,-1,59
 896 473 896 473 888.5 476.5 c 128,-1,60
 881 480 881 480 875.5 486.5 c 128,-1,61
 870 493 870 493 869 503 c 0,62,63
 867 519 867 519 859 550 c 128,-1,64
 851 581 851 581 837.5 611.5 c 128,-1,65
 824 642 824 642 806.5 664.5 c 128,-1,66
 789 687 789 687 768 687 c 2,67,-1
 495 687 l 1,68,-1
 495 197 l 2,69,70
 495 170 495 170 502.5 152 c 128,-1,71
 510 134 510 134 523 123 c 128,-1,72
 536 112 536 112 551.5 107 c 128,-1,73
 567 102 567 102 584 101 c 1,74,-1
 969 101 l 2,75,76
 1003 101 1003 101 1030.5 118.5 c 128,-1,77
 1058 136 1058 136 1081 162.5 c 128,-1,78
 1104 189 1104 189 1121 221.5 c 128,-1,79
 1138 254 1138 254 1150.5 284 c 128,-1,80
 1163 314 1163 314 1170 338.5 c 128,-1,81
 1177 363 1177 363 1179 373 c 0,82,83
 1183 392 1183 392 1199.5 399 c 128,-1,84
 1216 406 1216 406 1232 406 c 0,85,86
 1272 406 1272 406 1276 372 c 1,87,-1
 1264 0 l 1,88,-1
 144 0 l 2,89,90
 135 0 135 0 129 6 c 128,-1,91
 123 12 123 12 118.5 20 c 128,-1,92
 114 28 114 28 112 36.5 c 128,-1,93
 110 45 110 45 110 51 c 0,0,1
EndSplineSet
EndChar

StartChar: F
Encoding: 70 70 40
Width: 1227
GlyphClass: 2
Flags: W
LayerCount: 2
Fore
SplineSet
80 51 m 0,0,1
 80 67 80 67 86.5 76.5 c 128,-1,2
 93 86 93 86 113 88 c 0,3,4
 143 90 143 90 174 94 c 128,-1,5
 205 98 205 98 230.5 105.5 c 128,-1,6
 256 113 256 113 272 124 c 128,-1,7
 288 135 288 135 288 152 c 2,8,-1
 289 1234 l 2,9,10
 289 1266 289 1266 271 1284.5 c 128,-1,11
 253 1303 253 1303 225.5 1313 c 128,-1,12
 198 1323 198 1323 166 1326 c 128,-1,13
 134 1329 134 1329 107 1331 c 0,14,15
 86 1333 86 1333 78.5 1339 c 128,-1,16
 71 1345 71 1345 71 1368 c 0,17,18
 71 1374 71 1374 73 1382.5 c 128,-1,19
 75 1391 75 1391 79.5 1399 c 128,-1,20
 84 1407 84 1407 90 1413 c 128,-1,21
 96 1419 96 1419 105 1419 c 2,22,-1
 1129 1419 l 1,23,-1
 1166 1070 l 1,24,25
 1166 1053 1166 1053 1151 1044.5 c 128,-1,26
 1136 1036 1136 1036 1125 1036 c 0,27,28
 1109 1036 1109 1036 1096.5 1042.5 c 128,-1,29
 1084 1049 1084 1049 1082 1069 c 0,30,31
 1081 1079 1081 1079 1072.5 1102 c 128,-1,32
 1064 1125 1064 1125 1050 1154.5 c 128,-1,33
 1036 1184 1036 1184 1017 1215.5 c 128,-1,34
 998 1247 998 1247 975 1272.5 c 128,-1,35
 952 1298 952 1298 926.5 1315 c 128,-1,36
 901 1332 901 1332 874 1332 c 2,37,-1
 495 1332 l 1,38,-1
 495 741 l 1,39,-1
 759 741 l 1,40,41
 778 744 778 744 795 766 c 128,-1,42
 812 788 812 788 824.5 816.5 c 128,-1,43
 837 845 837 845 844.5 873 c 128,-1,44
 852 901 852 901 854 916 c 0,45,46
 856 935 856 935 873 942 c 128,-1,47
 890 949 890 949 906 949 c 0,48,49
 917 949 917 949 932 940.5 c 128,-1,50
 947 932 947 932 947 915 c 2,51,-1
 947 472 l 2,52,53
 947 455 947 455 932 446.5 c 128,-1,54
 917 438 917 438 906 438 c 0,55,56
 898 438 898 438 889.5 439.5 c 128,-1,57
 881 441 881 441 873.5 444.5 c 128,-1,58
 866 448 866 448 860.5 454.5 c 128,-1,59
 855 461 855 461 854 471 c 0,60,61
 852 487 852 487 844 518 c 128,-1,62
 836 549 836 549 822.5 579.5 c 128,-1,63
 809 610 809 610 791.5 632.5 c 128,-1,64
 774 655 774 655 753 655 c 2,65,-1
 495 655 l 1,66,-1
 495 197 l 2,67,68
 495 165 495 165 517.5 144 c 128,-1,69
 540 123 540 123 574 110.5 c 128,-1,70
 608 98 608 98 646.5 93 c 128,-1,71
 685 88 685 88 717 88 c 0,72,73
 734 88 734 88 743.5 81 c 128,-1,74
 753 74 753 74 753 51 c 0,75,76
 753 45 753 45 751 36.5 c 128,-1,77
 749 28 749 28 744.5 20 c 128,-1,78
 740 12 740 12 734 6 c 128,-1,79
 728 0 728 0 719 0 c 2,80,-1
 114 0 l 2,81,82
 105 0 105 0 99 6 c 128,-1,83
 93 12 93 12 88.5 20 c 128,-1,84
 84 28 84 28 82 36.5 c 128,-1,85
 80 45 80 45 80 51 c 0,0,1
EndSplineSet
EndChar

StartChar: G
Encoding: 71 71 41
Width: 1485
GlyphClass: 2
Flags: W
LayerCount: 2
Fore
SplineSet
88 706 m 256,0,1
 88 844 88 844 119 952.5 c 128,-1,2
 150 1061 150 1061 203 1143.5 c 128,-1,3
 256 1226 256 1226 326.5 1284 c 128,-1,4
 397 1342 397 1342 474.5 1378.5 c 128,-1,5
 552 1415 552 1415 632.5 1432 c 128,-1,6
 713 1449 713 1449 787 1449 c 0,7,8
 886 1449 886 1449 961.5 1439.5 c 128,-1,9
 1037 1430 1037 1430 1092.5 1416.5 c 128,-1,10
 1148 1403 1148 1403 1186.5 1388 c 128,-1,11
 1225 1373 1225 1373 1252 1361 c 1,12,-1
 1274 1051 l 2,13,14
 1276 1034 1276 1034 1263 1023.5 c 128,-1,15
 1250 1013 1250 1013 1238 1011 c 0,16,17
 1221 1009 1221 1009 1207 1014 c 128,-1,18
 1193 1019 1193 1019 1190 1039 c 1,19,20
 1172 1102 1172 1102 1140 1159 c 128,-1,21
 1108 1216 1108 1216 1058.5 1259.5 c 128,-1,22
 1009 1303 1009 1303 941 1328 c 128,-1,23
 873 1353 873 1353 785 1353 c 0,24,25
 747 1353 747 1353 699 1344 c 128,-1,26
 651 1335 651 1335 601.5 1309 c 128,-1,27
 552 1283 552 1283 504 1237.5 c 128,-1,28
 456 1192 456 1192 419 1120 c 128,-1,29
 382 1048 382 1048 359.5 946 c 128,-1,30
 337 844 337 844 337 706 c 0,31,32
 337 584 337 584 360 489 c 128,-1,33
 383 394 383 394 420.5 322.5 c 128,-1,34
 458 251 458 251 506.5 202 c 128,-1,35
 555 153 555 153 607 122.5 c 128,-1,36
 659 92 659 92 710 78.5 c 128,-1,37
 761 65 761 65 804 65 c 0,38,39
 882 65 882 65 935.5 77 c 128,-1,40
 989 89 989 89 1021.5 108 c 128,-1,41
 1054 127 1054 127 1068.5 151 c 128,-1,42
 1083 175 1083 175 1083 199 c 2,43,-1
 1083 456 l 2,44,45
 1083 488 1083 488 1065 506.5 c 128,-1,46
 1047 525 1047 525 1019 535 c 128,-1,47
 991 545 991 545 958.5 548 c 128,-1,48
 926 551 926 551 897 553 c 0,49,50
 876 555 876 555 868.5 561 c 128,-1,51
 861 567 861 567 861 590 c 0,52,53
 861 596 861 596 863 604.5 c 128,-1,54
 865 613 865 613 869.5 621 c 128,-1,55
 874 629 874 629 880 635 c 128,-1,56
 886 641 886 641 895 641 c 2,57,-1
 1410 641 l 2,58,59
 1419 641 1419 641 1425 635 c 128,-1,60
 1431 629 1431 629 1435.5 621 c 128,-1,61
 1440 613 1440 613 1442 604.5 c 128,-1,62
 1444 596 1444 596 1444 590 c 0,63,64
 1444 574 1444 574 1437.5 564.5 c 128,-1,65
 1431 555 1431 555 1411 553 c 0,66,67
 1389 551 1389 551 1366.5 547 c 128,-1,68
 1344 543 1344 543 1326 535.5 c 128,-1,69
 1308 528 1308 528 1297 516.5 c 128,-1,70
 1286 505 1286 505 1286 489 c 2,71,-1
 1293 123 l 1,72,73
 1281 106 1281 106 1241.5 80.5 c 128,-1,74
 1202 55 1202 55 1135 30 c 128,-1,75
 1068 5 1068 5 973.5 -12.5 c 128,-1,76
 879 -30 879 -30 758 -30 c 0,77,78
 690 -30 690 -30 614 -14 c 128,-1,79
 538 2 538 2 463.5 38 c 128,-1,80
 389 74 389 74 321 131 c 128,-1,81
 253 188 253 188 201 269.5 c 128,-1,82
 149 351 149 351 118.5 459.5 c 128,-1,83
 88 568 88 568 88 706 c 256,0,1
EndSplineSet
EndChar

StartChar: H
Encoding: 72 72 42
Width: 1669
GlyphClass: 2
Flags: W
LayerCount: 2
Fore
SplineSet
100 51 m 0,0,1
 100 67 100 67 106.5 76.5 c 128,-1,2
 113 86 113 86 133 88 c 0,3,4
 157 90 157 90 181 94 c 128,-1,5
 205 98 205 98 224.5 105.5 c 128,-1,6
 244 113 244 113 256 124 c 128,-1,7
 268 135 268 135 268 152 c 2,8,-1
 269 1234 l 2,9,10
 269 1266 269 1266 255.5 1284.5 c 128,-1,11
 242 1303 242 1303 221 1313 c 128,-1,12
 200 1323 200 1323 175 1326 c 128,-1,13
 150 1329 150 1329 127 1331 c 0,14,15
 106 1333 106 1333 98.5 1339 c 128,-1,16
 91 1345 91 1345 91 1368 c 0,17,18
 91 1374 91 1374 93 1382.5 c 128,-1,19
 95 1391 95 1391 99.5 1399 c 128,-1,20
 104 1407 104 1407 110 1413 c 128,-1,21
 116 1419 116 1419 125 1419 c 2,22,-1
 620 1419 l 2,23,24
 629 1419 629 1419 635 1413 c 128,-1,25
 641 1407 641 1407 645.5 1399 c 128,-1,26
 650 1391 650 1391 652 1382.5 c 128,-1,27
 654 1374 654 1374 654 1368 c 0,28,29
 654 1352 654 1352 647.5 1342.5 c 128,-1,30
 641 1333 641 1333 621 1331 c 0,31,32
 597 1329 597 1329 571.5 1325 c 128,-1,33
 546 1321 546 1321 524.5 1313.5 c 128,-1,34
 503 1306 503 1306 489.5 1294.5 c 128,-1,35
 476 1283 476 1283 476 1267 c 2,36,-1
 475 773 l 1,37,-1
 1193 773 l 1,38,-1
 1194 1234 l 2,39,40
 1194 1266 1194 1266 1179 1284.5 c 128,-1,41
 1164 1303 1164 1303 1141 1313 c 128,-1,42
 1118 1323 1118 1323 1091.5 1326 c 128,-1,43
 1065 1329 1065 1329 1042 1331 c 0,44,45
 1021 1333 1021 1333 1013.5 1339 c 128,-1,46
 1006 1345 1006 1345 1006 1368 c 0,47,48
 1006 1374 1006 1374 1008 1382.5 c 128,-1,49
 1010 1391 1010 1391 1014.5 1399 c 128,-1,50
 1019 1407 1019 1407 1025 1413 c 128,-1,51
 1031 1419 1031 1419 1040 1419 c 2,52,-1
 1545 1419 l 2,53,54
 1554 1419 1554 1419 1560 1413 c 128,-1,55
 1566 1407 1566 1407 1570.5 1399 c 128,-1,56
 1575 1391 1575 1391 1577 1382.5 c 128,-1,57
 1579 1374 1579 1374 1579 1368 c 0,58,59
 1579 1352 1579 1352 1572.5 1342.5 c 128,-1,60
 1566 1333 1566 1333 1546 1331 c 0,61,62
 1522 1329 1522 1329 1496.5 1325 c 128,-1,63
 1471 1321 1471 1321 1449.5 1313.5 c 128,-1,64
 1428 1306 1428 1306 1414.5 1294.5 c 128,-1,65
 1401 1283 1401 1283 1401 1267 c 2,66,-1
 1400 185 l 2,67,68
 1400 153 1400 153 1415 134.5 c 128,-1,69
 1430 116 1430 116 1453 106 c 128,-1,70
 1476 96 1476 96 1502.5 93 c 128,-1,71
 1529 90 1529 90 1552 88 c 0,72,73
 1573 86 1573 86 1580.5 80 c 128,-1,74
 1588 74 1588 74 1588 51 c 0,75,76
 1588 45 1588 45 1586 36.5 c 128,-1,77
 1584 28 1584 28 1579.5 20 c 128,-1,78
 1575 12 1575 12 1569 6 c 128,-1,79
 1563 0 1563 0 1554 0 c 2,80,-1
 1049 0 l 2,81,82
 1040 0 1040 0 1034 6 c 128,-1,83
 1028 12 1028 12 1023.5 20 c 128,-1,84
 1019 28 1019 28 1017 36.5 c 128,-1,85
 1015 45 1015 45 1015 51 c 0,86,87
 1015 67 1015 67 1021.5 76.5 c 128,-1,88
 1028 86 1028 86 1048 88 c 0,89,90
 1072 90 1072 90 1097.5 94 c 128,-1,91
 1123 98 1123 98 1144.5 105.5 c 128,-1,92
 1166 113 1166 113 1179.5 124 c 128,-1,93
 1193 135 1193 135 1193 152 c 2,94,-1
 1193 687 l 1,95,-1
 475 687 l 1,96,-1
 475 185 l 2,97,98
 475 153 475 153 490 134.5 c 128,-1,99
 505 116 505 116 528 106 c 128,-1,100
 551 96 551 96 577.5 93 c 128,-1,101
 604 90 604 90 627 88 c 0,102,103
 648 86 648 86 655.5 80 c 128,-1,104
 663 74 663 74 663 51 c 0,105,106
 663 45 663 45 661 36.5 c 128,-1,107
 659 28 659 28 654.5 20 c 128,-1,108
 650 12 650 12 644 6 c 128,-1,109
 638 0 638 0 629 0 c 2,110,-1
 134 0 l 2,111,112
 125 0 125 0 119 6 c 128,-1,113
 113 12 113 12 108.5 20 c 128,-1,114
 104 28 104 28 102 36.5 c 128,-1,115
 100 45 100 45 100 51 c 0,0,1
EndSplineSet
EndChar

StartChar: I
Encoding: 73 73 43
Width: 798
GlyphClass: 2
Flags: W
LayerCount: 2
Fore
SplineSet
117 51 m 0,0,1
 117 67 117 67 123.5 76.5 c 128,-1,2
 130 86 130 86 150 88 c 0,3,4
 174 90 174 90 199.5 94 c 128,-1,5
 225 98 225 98 246.5 105.5 c 128,-1,6
 268 113 268 113 281.5 124 c 128,-1,7
 295 135 295 135 295 152 c 2,8,-1
 296 1234 l 2,9,10
 296 1266 296 1266 281 1284.5 c 128,-1,11
 266 1303 266 1303 243 1313 c 128,-1,12
 220 1323 220 1323 193.5 1326 c 128,-1,13
 167 1329 167 1329 144 1331 c 0,14,15
 123 1333 123 1333 115.5 1339 c 128,-1,16
 108 1345 108 1345 108 1368 c 0,17,18
 108 1374 108 1374 110 1382.5 c 128,-1,19
 112 1391 112 1391 116.5 1399 c 128,-1,20
 121 1407 121 1407 127 1413 c 128,-1,21
 133 1419 133 1419 142 1419 c 2,22,-1
 647 1419 l 2,23,24
 656 1419 656 1419 662 1413 c 128,-1,25
 668 1407 668 1407 672.5 1399 c 128,-1,26
 677 1391 677 1391 679 1382.5 c 128,-1,27
 681 1374 681 1374 681 1368 c 0,28,29
 681 1352 681 1352 674.5 1342.5 c 128,-1,30
 668 1333 668 1333 648 1331 c 0,31,32
 624 1329 624 1329 598.5 1325 c 128,-1,33
 573 1321 573 1321 551.5 1313.5 c 128,-1,34
 530 1306 530 1306 516.5 1294.5 c 128,-1,35
 503 1283 503 1283 503 1267 c 2,36,-1
 502 185 l 2,37,38
 502 153 502 153 517 134.5 c 128,-1,39
 532 116 532 116 555 106 c 128,-1,40
 578 96 578 96 604.5 93 c 128,-1,41
 631 90 631 90 654 88 c 0,42,43
 675 86 675 86 682.5 80 c 128,-1,44
 690 74 690 74 690 51 c 0,45,46
 690 45 690 45 688 36.5 c 128,-1,47
 686 28 686 28 681.5 20 c 128,-1,48
 677 12 677 12 671 6 c 128,-1,49
 665 0 665 0 656 0 c 2,50,-1
 151 0 l 2,51,52
 142 0 142 0 136 6 c 128,-1,53
 130 12 130 12 125.5 20 c 128,-1,54
 121 28 121 28 119 36.5 c 128,-1,55
 117 45 117 45 117 51 c 0,0,1
EndSplineSet
EndChar

StartChar: J
Encoding: 74 74 44
Width: 1060
GlyphClass: 2
Flags: W
LayerCount: 2
Fore
SplineSet
151 76 m 1,0,1
 114 112 114 112 95 153 c 128,-1,2
 76 194 76 194 70 234 c 128,-1,3
 64 274 64 274 68.5 310.5 c 128,-1,4
 73 347 73 347 84 373 c 0,5,6
 101 414 101 414 133.5 442.5 c 128,-1,7
 166 471 166 471 206 471 c 0,8,9
 224 471 224 471 246.5 463.5 c 128,-1,10
 269 456 269 456 278 431 c 0,11,12
 282 419 282 419 280.5 384.5 c 128,-1,13
 279 350 279 350 275 304.5 c 128,-1,14
 271 259 271 259 265 208 c 128,-1,15
 259 157 259 157 254 113 c 1,16,17
 283 90 283 90 324.5 74.5 c 128,-1,18
 366 59 366 59 418 59 c 256,19,20
 470 59 470 59 512 79 c 128,-1,21
 554 99 554 99 582.5 141 c 128,-1,22
 611 183 611 183 626.5 248.5 c 128,-1,23
 642 314 642 314 642 406 c 2,24,-1
 643 1234 l 2,25,26
 643 1266 643 1266 625 1284.5 c 128,-1,27
 607 1303 607 1303 579.5 1313 c 128,-1,28
 552 1323 552 1323 520 1326 c 128,-1,29
 488 1329 488 1329 461 1331 c 0,30,31
 440 1333 440 1333 432.5 1339 c 128,-1,32
 425 1345 425 1345 425 1368 c 0,33,34
 425 1374 425 1374 427 1382.5 c 128,-1,35
 429 1391 429 1391 433.5 1399 c 128,-1,36
 438 1407 438 1407 444 1413 c 128,-1,37
 450 1419 450 1419 459 1419 c 2,38,-1
 974 1419 l 2,39,40
 983 1419 983 1419 989 1413 c 128,-1,41
 995 1407 995 1407 999.5 1399 c 128,-1,42
 1004 1391 1004 1391 1006 1382.5 c 128,-1,43
 1008 1374 1008 1374 1008 1368 c 0,44,45
 1008 1352 1008 1352 1001.5 1342.5 c 128,-1,46
 995 1333 995 1333 975 1331 c 0,47,48
 953 1329 953 1329 930.5 1325 c 128,-1,49
 908 1321 908 1321 890 1313.5 c 128,-1,50
 872 1306 872 1306 860.5 1294.5 c 128,-1,51
 849 1283 849 1283 849 1267 c 2,52,-1
 849 439 l 2,53,54
 849 341 849 341 828 268.5 c 128,-1,55
 807 196 807 196 773 144 c 128,-1,56
 739 92 739 92 694.5 58 c 128,-1,57
 650 24 650 24 603.5 4.5 c 128,-1,58
 557 -15 557 -15 511 -22.5 c 128,-1,59
 465 -30 465 -30 427 -30 c 0,60,61
 359 -30 359 -30 288 -5.5 c 128,-1,62
 217 19 217 19 151 76 c 1,0,1
EndSplineSet
EndChar

StartChar: K
Encoding: 75 75 45
Width: 1422
GlyphClass: 2
Flags: W
LayerCount: 2
Fore
SplineSet
110 51 m 0,0,1
 110 67 110 67 116.5 76.5 c 128,-1,2
 123 86 123 86 143 88 c 0,3,4
 167 90 167 90 192.5 94 c 128,-1,5
 218 98 218 98 239.5 105.5 c 128,-1,6
 261 113 261 113 274.5 124 c 128,-1,7
 288 135 288 135 288 152 c 2,8,-1
 289 1234 l 2,9,10
 289 1266 289 1266 274 1284.5 c 128,-1,11
 259 1303 259 1303 236 1313 c 128,-1,12
 213 1323 213 1323 186.5 1326 c 128,-1,13
 160 1329 160 1329 137 1331 c 0,14,15
 116 1333 116 1333 108.5 1339 c 128,-1,16
 101 1345 101 1345 101 1368 c 0,17,18
 101 1374 101 1374 103 1382.5 c 128,-1,19
 105 1391 105 1391 109.5 1399 c 128,-1,20
 114 1407 114 1407 120 1413 c 128,-1,21
 126 1419 126 1419 135 1419 c 2,22,-1
 630 1419 l 2,23,24
 639 1419 639 1419 645 1413 c 128,-1,25
 651 1407 651 1407 655.5 1399 c 128,-1,26
 660 1391 660 1391 662 1382.5 c 128,-1,27
 664 1374 664 1374 664 1368 c 0,28,29
 664 1352 664 1352 657.5 1342.5 c 128,-1,30
 651 1333 651 1333 631 1331 c 0,31,32
 607 1329 607 1329 583 1325 c 128,-1,33
 559 1321 559 1321 539.5 1313.5 c 128,-1,34
 520 1306 520 1306 508 1294.5 c 128,-1,35
 496 1283 496 1283 496 1267 c 2,36,-1
 495 185 l 2,37,38
 495 153 495 153 508.5 134.5 c 128,-1,39
 522 116 522 116 543 106 c 128,-1,40
 564 96 564 96 589 93 c 128,-1,41
 614 90 614 90 637 88 c 0,42,43
 658 86 658 86 665.5 80 c 128,-1,44
 673 74 673 74 673 51 c 0,45,46
 673 45 673 45 671 36.5 c 128,-1,47
 669 28 669 28 664.5 20 c 128,-1,48
 660 12 660 12 654 6 c 128,-1,49
 648 0 648 0 639 0 c 2,50,-1
 144 0 l 2,51,52
 135 0 135 0 129 6 c 128,-1,53
 123 12 123 12 118.5 20 c 128,-1,54
 114 28 114 28 112 36.5 c 128,-1,55
 110 45 110 45 110 51 c 0,0,1
1026 1276 m 2,56,57
 1040 1292 1040 1292 1031 1302 c 128,-1,58
 1022 1312 1022 1312 1002.5 1318 c 128,-1,59
 983 1324 983 1324 959.5 1326 c 128,-1,60
 936 1328 936 1328 920 1330 c 0,61,62
 900 1332 900 1332 894.5 1341.5 c 128,-1,63
 889 1351 889 1351 889 1367 c 0,64,65
 889 1373 889 1373 891 1381.5 c 128,-1,66
 893 1390 893 1390 897.5 1398 c 128,-1,67
 902 1406 902 1406 908 1412 c 128,-1,68
 914 1418 914 1418 923 1418 c 2,69,-1
 1355 1418 l 2,70,71
 1364 1418 1364 1418 1370 1412 c 128,-1,72
 1376 1406 1376 1406 1380.5 1398 c 128,-1,73
 1385 1390 1385 1390 1387 1381.5 c 128,-1,74
 1389 1373 1389 1373 1389 1367 c 0,75,76
 1389 1330 1389 1330 1356 1330 c 0,77,78
 1330 1330 1330 1330 1304 1326.5 c 128,-1,79
 1278 1323 1278 1323 1253 1315 c 128,-1,80
 1228 1307 1228 1307 1206.5 1294.5 c 128,-1,81
 1185 1282 1185 1282 1169 1263 c 2,82,-1
 750 773 l 1,83,84
 790 742 790 742 840 687.5 c 128,-1,85
 890 633 890 633 943 569 c 128,-1,86
 996 505 996 505 1050 438.5 c 128,-1,87
 1104 372 1104 372 1152 317 c 0,88,89
 1176 290 1176 290 1206.5 252.5 c 128,-1,90
 1237 215 1237 215 1271 180 c 128,-1,91
 1305 145 1305 145 1340.5 119 c 128,-1,92
 1376 93 1376 93 1409 89 c 0,93,94
 1430 87 1430 87 1437.5 71 c 128,-1,95
 1445 55 1445 55 1445 32 c 0,96,97
 1445 21 1445 21 1436.5 10.5 c 128,-1,98
 1428 0 1428 0 1411 0 c 2,99,-1
 1189 0 l 2,100,101
 1162 0 1162 0 1141.5 6.5 c 128,-1,102
 1121 13 1121 13 1105 23 c 128,-1,103
 1089 33 1089 33 1076 45.5 c 128,-1,104
 1063 58 1063 58 1051 70 c 0,105,106
 1012 112 1012 112 969 173 c 128,-1,107
 926 234 926 234 881.5 301.5 c 128,-1,108
 837 369 837 369 792 437 c 128,-1,109
 747 505 747 505 703.5 560 c 128,-1,110
 660 615 660 615 619.5 651 c 128,-1,111
 579 687 579 687 543 692 c 1,112,-1
 1026 1276 l 2,56,57
EndSplineSet
EndChar

StartChar: L
Encoding: 76 76 46
Width: 1236
GlyphClass: 2
Flags: W
LayerCount: 2
Fore
SplineSet
110 51 m 0,0,1
 110 67 110 67 116.5 76.5 c 128,-1,2
 123 86 123 86 143 88 c 0,3,4
 167 90 167 90 192.5 94 c 128,-1,5
 218 98 218 98 239.5 105.5 c 128,-1,6
 261 113 261 113 274.5 124 c 128,-1,7
 288 135 288 135 288 152 c 2,8,-1
 289 1234 l 2,9,10
 289 1266 289 1266 274 1284.5 c 128,-1,11
 259 1303 259 1303 236 1313 c 128,-1,12
 213 1323 213 1323 186.5 1326 c 128,-1,13
 160 1329 160 1329 137 1331 c 0,14,15
 116 1333 116 1333 108.5 1339 c 128,-1,16
 101 1345 101 1345 101 1368 c 0,17,18
 101 1374 101 1374 103 1382.5 c 128,-1,19
 105 1391 105 1391 109.5 1399 c 128,-1,20
 114 1407 114 1407 120 1413 c 128,-1,21
 126 1419 126 1419 135 1419 c 2,22,-1
 650 1419 l 2,23,24
 659 1419 659 1419 665 1413 c 128,-1,25
 671 1407 671 1407 675.5 1399 c 128,-1,26
 680 1391 680 1391 682 1382.5 c 128,-1,27
 684 1374 684 1374 684 1368 c 0,28,29
 684 1352 684 1352 677.5 1341.5 c 128,-1,30
 671 1331 671 1331 651 1331 c 0,31,32
 626 1331 626 1331 599 1326.5 c 128,-1,33
 572 1322 572 1322 549 1311.5 c 128,-1,34
 526 1301 526 1301 511 1283 c 128,-1,35
 496 1265 496 1265 496 1237 c 2,36,-1
 495 177 l 2,37,38
 495 154 495 154 501.5 139.5 c 128,-1,39
 508 125 508 125 519 116.5 c 128,-1,40
 530 108 530 108 544.5 104.5 c 128,-1,41
 559 101 559 101 576 101 c 2,42,-1
 896 101 l 2,43,44
 931 101 931 101 966 133.5 c 128,-1,45
 1001 166 1001 166 1032.5 216.5 c 128,-1,46
 1064 267 1064 267 1090.5 326.5 c 128,-1,47
 1117 386 1117 386 1136 440 c 0,48,49
 1142 458 1142 458 1155 465.5 c 128,-1,50
 1168 473 1168 473 1184 473 c 0,51,52
 1203 473 1203 473 1214.5 464.5 c 128,-1,53
 1226 456 1226 456 1224 439 c 2,54,-1
 1165 0 l 1,55,-1
 144 0 l 2,56,57
 135 0 135 0 129 6 c 128,-1,58
 123 12 123 12 118.5 20 c 128,-1,59
 114 28 114 28 112 36.5 c 128,-1,60
 110 45 110 45 110 51 c 0,0,1
EndSplineSet
EndChar

StartChar: M
Encoding: 77 77 47
Width: 1899
GlyphClass: 2
Flags: W
LayerCount: 2
Fore
SplineSet
70 51 m 0,0,1
 70 67 70 67 76.5 76.5 c 128,-1,2
 83 86 83 86 103 88 c 0,3,4
 133 90 133 90 164 93.5 c 128,-1,5
 195 97 195 97 220.5 106.5 c 128,-1,6
 246 116 246 116 262 134 c 128,-1,7
 278 152 278 152 278 184 c 2,8,-1
 278 1234 l 2,9,10
 278 1266 278 1266 260 1284.5 c 128,-1,11
 242 1303 242 1303 215 1313 c 128,-1,12
 188 1323 188 1323 156 1326 c 128,-1,13
 124 1329 124 1329 97 1331 c 0,14,15
 76 1333 76 1333 68.5 1339 c 128,-1,16
 61 1345 61 1345 61 1368 c 0,17,18
 61 1374 61 1374 63 1382.5 c 128,-1,19
 65 1391 65 1391 69.5 1399 c 128,-1,20
 74 1407 74 1407 80 1413 c 128,-1,21
 86 1419 86 1419 95 1419 c 2,22,-1
 589 1419 l 1,23,-1
 951 366 l 1,24,-1
 963 366 l 1,25,-1
 1265 1246 l 2,26,27
 1285 1306 1285 1306 1297.5 1345 c 128,-1,28
 1310 1384 1310 1384 1318 1419 c 1,29,-1
 1756 1419 l 2,30,31
 1765 1419 1765 1419 1771 1413 c 128,-1,32
 1777 1407 1777 1407 1781.5 1399 c 128,-1,33
 1786 1391 1786 1391 1788 1382.5 c 128,-1,34
 1790 1374 1790 1374 1790 1368 c 0,35,36
 1790 1352 1790 1352 1783.5 1342.5 c 128,-1,37
 1777 1333 1777 1333 1757 1331 c 0,38,39
 1733 1329 1733 1329 1707.5 1325 c 128,-1,40
 1682 1321 1682 1321 1660.5 1313.5 c 128,-1,41
 1639 1306 1639 1306 1625.5 1294.5 c 128,-1,42
 1612 1283 1612 1283 1612 1267 c 2,43,-1
 1611 185 l 2,44,45
 1611 153 1611 153 1626 134.5 c 128,-1,46
 1641 116 1641 116 1664 106 c 128,-1,47
 1687 96 1687 96 1713.5 93 c 128,-1,48
 1740 90 1740 90 1763 88 c 0,49,50
 1784 86 1784 86 1791.5 80 c 128,-1,51
 1799 74 1799 74 1799 51 c 0,52,53
 1799 45 1799 45 1797 36.5 c 128,-1,54
 1795 28 1795 28 1790.5 20 c 128,-1,55
 1786 12 1786 12 1780 6 c 128,-1,56
 1774 0 1774 0 1765 0 c 2,57,-1
 1250 0 l 2,58,59
 1241 0 1241 0 1235 6 c 128,-1,60
 1229 12 1229 12 1224.5 20 c 128,-1,61
 1220 28 1220 28 1218 36.5 c 128,-1,62
 1216 45 1216 45 1216 51 c 0,63,64
 1216 67 1216 67 1222.5 76.5 c 128,-1,65
 1229 86 1229 86 1249 88 c 0,66,67
 1273 90 1273 90 1300 94 c 128,-1,68
 1327 98 1327 98 1350.5 105.5 c 128,-1,69
 1374 113 1374 113 1389 124 c 128,-1,70
 1404 135 1404 135 1404 152 c 2,71,-1
 1405 1281 l 1,72,-1
 1376 1281 l 1,73,-1
 941 0 l 1,74,-1
 891 0 l 1,75,-1
 891 3 l 1,76,-1
 890 0 l 1,77,-1
 411 1281 l 1,78,-1
 375 1281 l 1,79,-1
 375 185 l 2,80,81
 375 153 375 153 394.5 134.5 c 128,-1,82
 414 116 414 116 443.5 106 c 128,-1,83
 473 96 473 96 506.5 93 c 128,-1,84
 540 90 540 90 567 88 c 0,85,86
 588 86 588 86 595.5 80 c 128,-1,87
 603 74 603 74 603 51 c 0,88,89
 603 45 603 45 601 36.5 c 128,-1,90
 599 28 599 28 594.5 20 c 128,-1,91
 590 12 590 12 584 6 c 128,-1,92
 578 0 578 0 569 0 c 2,93,-1
 104 0 l 2,94,95
 95 0 95 0 89 6 c 128,-1,96
 83 12 83 12 78.5 20 c 128,-1,97
 74 28 74 28 72 36.5 c 128,-1,98
 70 45 70 45 70 51 c 0,0,1
EndSplineSet
EndChar

StartChar: N
Encoding: 78 78 48
Width: 1571
GlyphClass: 2
Flags: W
LayerCount: 2
Fore
SplineSet
80 51 m 0,0,1
 80 67 80 67 86.5 76.5 c 128,-1,2
 93 86 93 86 113 88 c 0,3,4
 137 90 137 90 164 94.5 c 128,-1,5
 191 99 191 99 214.5 108 c 128,-1,6
 238 117 238 117 253 132.5 c 128,-1,7
 268 148 268 148 268 172 c 2,8,-1
 268 1194 l 2,9,10
 268 1226 268 1226 251.5 1251 c 128,-1,11
 235 1276 235 1276 210.5 1293 c 128,-1,12
 186 1310 186 1310 158 1319.5 c 128,-1,13
 130 1329 130 1329 107 1331 c 0,14,15
 86 1333 86 1333 78.5 1339 c 128,-1,16
 71 1345 71 1345 71 1368 c 0,17,18
 71 1374 71 1374 73 1382.5 c 128,-1,19
 75 1391 75 1391 79.5 1399 c 128,-1,20
 84 1407 84 1407 90 1413 c 128,-1,21
 96 1419 96 1419 105 1419 c 2,22,-1
 434 1419 l 1,23,-1
 1222 343 l 1,24,-1
 1234 343 l 1,25,-1
 1234 1234 l 2,26,27
 1234 1266 1234 1266 1214 1284.5 c 128,-1,28
 1194 1303 1194 1303 1165.5 1313 c 128,-1,29
 1137 1323 1137 1323 1106 1326 c 128,-1,30
 1075 1329 1075 1329 1052 1331 c 0,31,32
 1031 1333 1031 1333 1023.5 1339 c 128,-1,33
 1016 1345 1016 1345 1016 1368 c 0,34,35
 1016 1374 1016 1374 1018 1382.5 c 128,-1,36
 1020 1391 1020 1391 1024.5 1399 c 128,-1,37
 1029 1407 1029 1407 1035 1413 c 128,-1,38
 1041 1419 1041 1419 1050 1419 c 2,39,-1
 1505 1419 l 2,40,41
 1514 1419 1514 1419 1520 1413 c 128,-1,42
 1526 1407 1526 1407 1530.5 1399 c 128,-1,43
 1535 1391 1535 1391 1537 1382.5 c 128,-1,44
 1539 1374 1539 1374 1539 1368 c 0,45,46
 1539 1352 1539 1352 1532.5 1342.5 c 128,-1,47
 1526 1333 1526 1333 1506 1331 c 0,48,49
 1483 1329 1483 1329 1453 1325.5 c 128,-1,50
 1423 1322 1423 1322 1396 1312.5 c 128,-1,51
 1369 1303 1369 1303 1350 1284.5 c 128,-1,52
 1331 1266 1331 1266 1331 1234 c 2,53,-1
 1331 113 l 2,54,55
 1331 104 1331 104 1331.5 96.5 c 128,-1,56
 1332 89 1332 89 1333 81.5 c 128,-1,57
 1334 74 1334 74 1335 64 c 128,-1,58
 1336 54 1336 54 1337 40 c 0,59,60
 1339 19 1339 19 1333.5 5.5 c 128,-1,61
 1328 -8 1328 -8 1319 -16 c 128,-1,62
 1310 -24 1310 -24 1298.5 -27 c 128,-1,63
 1287 -30 1287 -30 1277 -30 c 0,64,65
 1261 -30 1261 -30 1246 -23.5 c 128,-1,66
 1231 -17 1231 -17 1223 -8 c 1,67,-1
 382 1130 l 1,68,-1
 365 1130 l 1,69,-1
 365 185 l 2,70,71
 365 153 365 153 383.5 134.5 c 128,-1,72
 402 116 402 116 428.5 106 c 128,-1,73
 455 96 455 96 484.5 93 c 128,-1,74
 514 90 514 90 537 88 c 0,75,76
 558 86 558 86 565.5 80 c 128,-1,77
 573 74 573 74 573 51 c 0,78,79
 573 45 573 45 571 36.5 c 128,-1,80
 569 28 569 28 564.5 20 c 128,-1,81
 560 12 560 12 554 6 c 128,-1,82
 548 0 548 0 539 0 c 2,83,-1
 114 0 l 2,84,85
 105 0 105 0 99 6 c 128,-1,86
 93 12 93 12 88.5 20 c 128,-1,87
 84 28 84 28 82 36.5 c 128,-1,88
 80 45 80 45 80 51 c 0,0,1
EndSplineSet
EndChar

StartChar: O
Encoding: 79 79 49
Width: 1524
GlyphClass: 2
Flags: W
LayerCount: 2
Fore
SplineSet
94 716 m 256,0,1
 94 870 94 870 140 1003.5 c 128,-1,2
 186 1137 186 1137 273 1236 c 128,-1,3
 360 1335 360 1335 485.5 1392 c 128,-1,4
 611 1449 611 1449 769 1449 c 256,5,6
 927 1449 927 1449 1050 1392 c 128,-1,7
 1173 1335 1173 1335 1257.5 1236 c 128,-1,8
 1342 1137 1342 1137 1386 1003.5 c 128,-1,9
 1430 870 1430 870 1430 716 c 256,10,11
 1430 562 1430 562 1384.5 426.5 c 128,-1,12
 1339 291 1339 291 1252.5 189.5 c 128,-1,13
 1166 88 1166 88 1041.5 29.5 c 128,-1,14
 917 -29 917 -29 759 -29 c 256,15,16
 601 -29 601 -29 477.5 29.5 c 128,-1,17
 354 88 354 88 268.5 189.5 c 128,-1,18
 183 291 183 291 138.5 426.5 c 128,-1,19
 94 562 94 562 94 716 c 256,0,1
763 65 m 256,20,21
 887 65 887 65 968 110 c 128,-1,22
 1049 155 1049 155 1096.5 239 c 128,-1,23
 1144 323 1144 323 1163 443 c 128,-1,24
 1182 563 1182 563 1182 714 c 256,25,26
 1182 865 1182 865 1162 984 c 128,-1,27
 1142 1103 1142 1103 1093.5 1185.5 c 128,-1,28
 1045 1268 1045 1268 963.5 1312 c 128,-1,29
 882 1356 882 1356 758 1356 c 0,30,31
 633 1356 633 1356 552 1312 c 128,-1,32
 471 1268 471 1268 423.5 1185.5 c 128,-1,33
 376 1103 376 1103 357.5 984 c 128,-1,34
 339 865 339 865 339 714 c 256,35,36
 339 563 339 563 358.5 443 c 128,-1,37
 378 323 378 323 426.5 239 c 128,-1,38
 475 155 475 155 557 110 c 128,-1,39
 639 65 639 65 763 65 c 256,20,21
EndSplineSet
EndChar

StartChar: P
Encoding: 80 80 50
Width: 1249
GlyphClass: 2
Flags: W
LayerCount: 2
Fore
SplineSet
110 51 m 0,0,1
 110 67 110 67 116.5 76.5 c 128,-1,2
 123 86 123 86 143 88 c 0,3,4
 167 90 167 90 192.5 94 c 128,-1,5
 218 98 218 98 239.5 105.5 c 128,-1,6
 261 113 261 113 274.5 124 c 128,-1,7
 288 135 288 135 288 152 c 2,8,-1
 289 1234 l 2,9,10
 289 1266 289 1266 274 1284.5 c 128,-1,11
 259 1303 259 1303 236 1313 c 128,-1,12
 213 1323 213 1323 186.5 1326 c 128,-1,13
 160 1329 160 1329 137 1331 c 0,14,15
 116 1333 116 1333 108.5 1339 c 128,-1,16
 101 1345 101 1345 101 1368 c 0,17,18
 101 1374 101 1374 103 1382.5 c 128,-1,19
 105 1391 105 1391 109.5 1399 c 128,-1,20
 114 1407 114 1407 120 1413 c 128,-1,21
 126 1419 126 1419 135 1419 c 2,22,-1
 463 1419 l 1,23,-1
 695 1421 l 2,24,25
 794 1421 794 1421 885 1400.5 c 128,-1,26
 976 1380 976 1380 1045.5 1332 c 128,-1,27
 1115 1284 1115 1284 1156 1205.5 c 128,-1,28
 1197 1127 1197 1127 1197 1010 c 0,29,30
 1197 909 1197 909 1157.5 825.5 c 128,-1,31
 1118 742 1118 742 1048 682 c 128,-1,32
 978 622 978 622 882 588.5 c 128,-1,33
 786 555 786 555 674 555 c 2,34,-1
 495 555 l 1,35,-1
 495 185 l 2,36,37
 495 153 495 153 515.5 134.5 c 128,-1,38
 536 116 536 116 567 106 c 128,-1,39
 598 96 598 96 633 93 c 128,-1,40
 668 90 668 90 697 88 c 0,41,42
 718 86 718 86 725.5 80 c 128,-1,43
 733 74 733 74 733 51 c 0,44,45
 733 45 733 45 731 36.5 c 128,-1,46
 729 28 729 28 724.5 20 c 128,-1,47
 720 12 720 12 714 6 c 128,-1,48
 708 0 708 0 699 0 c 2,49,-1
 144 0 l 2,50,51
 135 0 135 0 129 6 c 128,-1,52
 123 12 123 12 118.5 20 c 128,-1,53
 114 28 114 28 112 36.5 c 128,-1,54
 110 45 110 45 110 51 c 0,0,1
671 641 m 2,55,56
 690 641 690 641 720 648 c 128,-1,57
 750 655 750 655 784 671.5 c 128,-1,58
 818 688 818 688 853 714.5 c 128,-1,59
 888 741 888 741 916 779.5 c 128,-1,60
 944 818 944 818 961.5 870 c 128,-1,61
 979 922 979 922 979 989 c 0,62,63
 979 1092 979 1092 948 1158.5 c 128,-1,64
 917 1225 917 1225 868 1263.5 c 128,-1,65
 819 1302 819 1302 758.5 1316.5 c 128,-1,66
 698 1331 698 1331 638 1331 c 2,67,-1
 496 1331 l 1,68,-1
 495 641 l 1,69,-1
 671 641 l 2,55,56
EndSplineSet
EndChar

StartChar: Q
Encoding: 81 81 51
Width: 1524
GlyphClass: 2
Flags: W
LayerCount: 2
Fore
SplineSet
677 -24 m 1,0,1
 538 -9 538 -9 429.5 54.5 c 128,-1,2
 321 118 321 118 246.5 217 c 128,-1,3
 172 316 172 316 133 444 c 128,-1,4
 94 572 94 572 94 716 c 0,5,6
 94 870 94 870 140 1003.5 c 128,-1,7
 186 1137 186 1137 273 1236 c 128,-1,8
 360 1335 360 1335 485.5 1392 c 128,-1,9
 611 1449 611 1449 769 1449 c 256,10,11
 927 1449 927 1449 1050 1392 c 128,-1,12
 1173 1335 1173 1335 1257.5 1236 c 128,-1,13
 1342 1137 1342 1137 1386 1003.5 c 128,-1,14
 1430 870 1430 870 1430 716 c 0,15,16
 1430 584 1430 584 1396.5 465 c 128,-1,17
 1363 346 1363 346 1298.5 250.5 c 128,-1,18
 1234 155 1234 155 1141 87.5 c 128,-1,19
 1048 20 1048 20 928 -9 c 1,20,21
 934 -53 934 -53 956.5 -108.5 c 128,-1,22
 979 -164 979 -164 1028.5 -212.5 c 128,-1,23
 1078 -261 1078 -261 1159 -293 c 128,-1,24
 1240 -325 1240 -325 1365 -323 c 1,25,-1
 1365 -393 l 1,26,27
 1348 -401 1348 -401 1324 -406 c 0,28,29
 1304 -411 1304 -411 1273.5 -415 c 128,-1,30
 1243 -419 1243 -419 1202 -419 c 0,31,32
 1148 -419 1148 -419 1092.5 -414 c 128,-1,33
 1037 -409 1037 -409 984.5 -394 c 128,-1,34
 932 -379 932 -379 883.5 -352 c 128,-1,35
 835 -325 835 -325 794.5 -281 c 128,-1,36
 754 -237 754 -237 724 -174 c 128,-1,37
 694 -111 694 -111 677 -24 c 1,0,1
763 65 m 256,38,39
 887 65 887 65 968 110 c 128,-1,40
 1049 155 1049 155 1096.5 239 c 128,-1,41
 1144 323 1144 323 1163 443 c 128,-1,42
 1182 563 1182 563 1182 714 c 256,43,44
 1182 865 1182 865 1162 984 c 128,-1,45
 1142 1103 1142 1103 1093.5 1185.5 c 128,-1,46
 1045 1268 1045 1268 963.5 1312 c 128,-1,47
 882 1356 882 1356 758 1356 c 0,48,49
 633 1356 633 1356 552 1312 c 128,-1,50
 471 1268 471 1268 423.5 1185.5 c 128,-1,51
 376 1103 376 1103 357.5 984 c 128,-1,52
 339 865 339 865 339 714 c 256,53,54
 339 563 339 563 358.5 443 c 128,-1,55
 378 323 378 323 426.5 239 c 128,-1,56
 475 155 475 155 557 110 c 128,-1,57
 639 65 639 65 763 65 c 256,38,39
EndSplineSet
EndChar

StartChar: R
Encoding: 82 82 52
Width: 1437
GlyphClass: 2
Flags: W
LayerCount: 2
Fore
SplineSet
110 51 m 0,0,1
 110 67 110 67 116.5 76.5 c 128,-1,2
 123 86 123 86 143 88 c 0,3,4
 167 90 167 90 192.5 94 c 128,-1,5
 218 98 218 98 239.5 105.5 c 128,-1,6
 261 113 261 113 274.5 124 c 128,-1,7
 288 135 288 135 288 152 c 2,8,-1
 289 1234 l 2,9,10
 289 1266 289 1266 274 1284.5 c 128,-1,11
 259 1303 259 1303 236 1313 c 128,-1,12
 213 1323 213 1323 186.5 1326 c 128,-1,13
 160 1329 160 1329 137 1331 c 0,14,15
 116 1333 116 1333 108.5 1339 c 128,-1,16
 101 1345 101 1345 101 1368 c 0,17,18
 101 1374 101 1374 103 1382.5 c 128,-1,19
 105 1391 105 1391 109.5 1399 c 128,-1,20
 114 1407 114 1407 120 1413 c 128,-1,21
 126 1419 126 1419 135 1419 c 2,22,-1
 709 1419 l 2,23,24
 818 1419 818 1419 910.5 1401 c 128,-1,25
 1003 1383 1003 1383 1070.5 1339.5 c 128,-1,26
 1138 1296 1138 1296 1176 1225.5 c 128,-1,27
 1214 1155 1214 1155 1214 1050 c 0,28,29
 1214 973 1214 973 1190.5 908.5 c 128,-1,30
 1167 844 1167 844 1124 793.5 c 128,-1,31
 1081 743 1081 743 1019.5 706.5 c 128,-1,32
 958 670 958 670 883 651 c 1,33,34
 955 640 955 640 1001 615.5 c 128,-1,35
 1047 591 1047 591 1076.5 556.5 c 128,-1,36
 1106 522 1106 522 1123.5 479 c 128,-1,37
 1141 436 1141 436 1156 389.5 c 128,-1,38
 1171 343 1171 343 1188.5 294 c 128,-1,39
 1206 245 1206 245 1235 199 c 1,40,41
 1252 166 1252 166 1273 145.5 c 128,-1,42
 1294 125 1294 125 1315.5 113 c 128,-1,43
 1337 101 1337 101 1359 96 c 128,-1,44
 1381 91 1381 91 1399 89 c 0,45,46
 1420 87 1420 87 1427.5 78 c 128,-1,47
 1435 69 1435 69 1435 46 c 0,48,49
 1435 40 1435 40 1433 32.5 c 128,-1,50
 1431 25 1431 25 1426.5 17.5 c 128,-1,51
 1422 10 1422 10 1415.5 5 c 128,-1,52
 1409 0 1409 0 1401 0 c 2,53,-1
 1198 0 l 2,54,55
 1136 0 1136 0 1094.5 27 c 128,-1,56
 1053 54 1053 54 1025 98 c 128,-1,57
 997 142 997 142 978.5 198 c 128,-1,58
 960 254 960 254 944.5 312.5 c 128,-1,59
 929 371 929 371 912.5 427 c 128,-1,60
 896 483 896 483 871 527 c 128,-1,61
 846 571 846 571 809.5 598 c 128,-1,62
 773 625 773 625 718 625 c 2,63,-1
 495 625 l 1,64,-1
 495 185 l 2,65,66
 495 153 495 153 510 134.5 c 128,-1,67
 525 116 525 116 548.5 106 c 128,-1,68
 572 96 572 96 601 93 c 128,-1,69
 630 90 630 90 657 88 c 0,70,71
 678 86 678 86 685.5 80 c 128,-1,72
 693 74 693 74 693 51 c 0,73,74
 693 45 693 45 691 36.5 c 128,-1,75
 689 28 689 28 684.5 20 c 128,-1,76
 680 12 680 12 674 6 c 128,-1,77
 668 0 668 0 659 0 c 2,78,-1
 144 0 l 2,79,80
 135 0 135 0 129 6 c 128,-1,81
 123 12 123 12 118.5 20 c 128,-1,82
 114 28 114 28 112 36.5 c 128,-1,83
 110 45 110 45 110 51 c 0,0,1
666 711 m 2,84,85
 728 711 728 711 788 725 c 128,-1,86
 848 739 848 739 895.5 773.5 c 128,-1,87
 943 808 943 808 972.5 867.5 c 128,-1,88
 1002 927 1002 927 1002 1019 c 0,89,90
 1002 1110 1002 1110 975.5 1170.5 c 128,-1,91
 949 1231 949 1231 903.5 1267 c 128,-1,92
 858 1303 858 1303 797 1317.5 c 128,-1,93
 736 1332 736 1332 666 1332 c 2,94,-1
 496 1332 l 1,95,-1
 495 711 l 1,96,-1
 666 711 l 2,84,85
EndSplineSet
EndChar

StartChar: S
Encoding: 83 83 53
Width: 1149
GlyphClass: 2
Flags: W
LayerCount: 2
Fore
SplineSet
117 72 m 0,0,1
 120 125 120 125 119 181 c 128,-1,2
 118 237 118 237 114.5 288.5 c 128,-1,3
 111 340 111 340 106.5 384 c 128,-1,4
 102 428 102 428 99 458 c 1,5,6
 95 487 95 487 108.5 502.5 c 128,-1,7
 122 518 122 518 140.5 520 c 128,-1,8
 159 522 159 522 176.5 511 c 128,-1,9
 194 500 194 500 199 478 c 0,10,11
 202 465 202 465 206 448 c 128,-1,12
 210 431 210 431 218.5 406.5 c 128,-1,13
 227 382 227 382 240 349.5 c 128,-1,14
 253 317 253 317 273 274 c 0,15,16
 300 217 300 217 341 176 c 128,-1,17
 382 135 382 135 428.5 109 c 128,-1,18
 475 83 475 83 522.5 71 c 128,-1,19
 570 59 570 59 609 59 c 0,20,21
 655 59 655 59 701.5 72.5 c 128,-1,22
 748 86 748 86 784.5 117 c 128,-1,23
 821 148 821 148 844 198 c 128,-1,24
 867 248 867 248 867 322 c 0,25,26
 867 371 867 371 836.5 416 c 128,-1,27
 806 461 806 461 757.5 501 c 128,-1,28
 709 541 709 541 647.5 576 c 128,-1,29
 586 611 586 611 523 641 c 0,30,31
 453 674 453 674 386 712 c 128,-1,32
 319 750 319 750 267 800.5 c 128,-1,33
 215 851 215 851 183 917 c 128,-1,34
 151 983 151 983 151 1072 c 0,35,36
 151 1141 151 1141 169 1195.5 c 128,-1,37
 187 1250 187 1250 218 1292 c 128,-1,38
 249 1334 249 1334 290.5 1363.5 c 128,-1,39
 332 1393 332 1393 378 1412 c 128,-1,40
 424 1431 424 1431 472.5 1440 c 128,-1,41
 521 1449 521 1449 567 1449 c 0,42,43
 611 1449 611 1449 649 1442.5 c 128,-1,44
 687 1436 687 1436 717 1427.5 c 128,-1,45
 747 1419 747 1419 769 1411 c 128,-1,46
 791 1403 791 1403 804 1401 c 0,47,48
 825 1397 825 1397 837 1398.5 c 128,-1,49
 849 1400 849 1400 857 1404 c 128,-1,50
 865 1408 865 1408 871 1414 c 128,-1,51
 877 1420 877 1420 886 1425 c 0,52,53
 897 1432 897 1432 911 1432 c 128,-1,54
 925 1432 925 1432 937.5 1427 c 128,-1,55
 950 1422 950 1422 958.5 1413 c 128,-1,56
 967 1404 967 1404 967 1394 c 0,57,58
 967 1385 967 1385 969 1353 c 128,-1,59
 971 1321 971 1321 974.5 1278.5 c 128,-1,60
 978 1236 978 1236 982.5 1188.5 c 128,-1,61
 987 1141 987 1141 992 1100 c 0,62,63
 997 1064 997 1064 983.5 1047.5 c 128,-1,64
 970 1031 970 1031 951.5 1028.5 c 128,-1,65
 933 1026 933 1026 916 1033 c 128,-1,66
 899 1040 899 1040 897 1051 c 0,67,68
 882 1131 882 1131 851.5 1191 c 128,-1,69
 821 1251 821 1251 780 1290.5 c 128,-1,70
 739 1330 739 1330 688.5 1350 c 128,-1,71
 638 1370 638 1370 584 1370 c 0,72,73
 532 1370 532 1370 488 1357.5 c 128,-1,74
 444 1345 444 1345 411.5 1316.5 c 128,-1,75
 379 1288 379 1288 360.5 1242 c 128,-1,76
 342 1196 342 1196 342 1129 c 0,77,78
 342 1081 342 1081 366.5 1038.5 c 128,-1,79
 391 996 391 996 433 959.5 c 128,-1,80
 475 923 475 923 529.5 890.5 c 128,-1,81
 584 858 584 858 644 830 c 0,82,83
 717 795 717 795 793 749 c 128,-1,84
 869 703 869 703 930.5 646.5 c 128,-1,85
 992 590 992 590 1031.5 524 c 128,-1,86
 1071 458 1071 458 1071 383 c 0,87,88
 1071 285 1071 285 1035.5 208.5 c 128,-1,89
 1000 132 1000 132 939.5 79 c 128,-1,90
 879 26 879 26 798.5 -2 c 128,-1,91
 718 -30 718 -30 628 -30 c 0,92,93
 567 -30 567 -30 521 -21 c 128,-1,94
 475 -12 475 -12 441 -0.5 c 128,-1,95
 407 11 407 11 383 23 c 128,-1,96
 359 35 359 35 343 41 c 0,97,98
 322 49 322 49 307 59.5 c 128,-1,99
 292 70 292 70 279 76.5 c 128,-1,100
 266 83 266 83 254.5 82 c 128,-1,101
 243 81 243 81 229 65 c 0,102,103
 207 40 207 40 186.5 31 c 128,-1,104
 166 22 166 22 150 25 c 128,-1,105
 134 28 134 28 125 40.5 c 128,-1,106
 116 53 116 53 117 72 c 0,0,1
EndSplineSet
EndChar

StartChar: T
Encoding: 84 84 54
Width: 1267
GlyphClass: 2
Flags: W
LayerCount: 2
Fore
SplineSet
298 51 m 0,0,1
 298 67 298 67 304.5 76.5 c 128,-1,2
 311 86 311 86 331 88 c 0,3,4
 366 90 366 90 402.5 94.5 c 128,-1,5
 439 99 439 99 468.5 109 c 128,-1,6
 498 119 498 119 517 136.5 c 128,-1,7
 536 154 536 154 536 182 c 2,8,-1
 537 1331 l 1,9,-1
 292 1331 l 2,10,11
 264 1331 264 1331 240.5 1312.5 c 128,-1,12
 217 1294 217 1294 198.5 1264.5 c 128,-1,13
 180 1235 180 1235 166.5 1199 c 128,-1,14
 153 1163 153 1163 143.5 1128.5 c 128,-1,15
 134 1094 134 1094 129 1064.5 c 128,-1,16
 124 1035 124 1035 123 1019 c 0,17,18
 121 999 121 999 106.5 992.5 c 128,-1,19
 92 986 92 986 76 986 c 0,20,21
 70 986 70 986 61.5 988 c 128,-1,22
 53 990 53 990 45 994.5 c 128,-1,23
 37 999 37 999 31 1005 c 128,-1,24
 25 1011 25 1011 25 1020 c 0,25,26
 26 1053 26 1053 28.5 1095 c 128,-1,27
 31 1137 31 1137 34 1181.5 c 128,-1,28
 37 1226 37 1226 41 1268.5 c 128,-1,29
 45 1311 45 1311 49 1344.5 c 128,-1,30
 53 1378 53 1378 57 1398.5 c 128,-1,31
 61 1419 61 1419 65 1419 c 2,32,-1
 1202 1419 l 2,33,34
 1206 1419 1206 1419 1210 1398.5 c 128,-1,35
 1214 1378 1214 1378 1218 1344.5 c 128,-1,36
 1222 1311 1222 1311 1226 1268.5 c 128,-1,37
 1230 1226 1230 1226 1233 1181.5 c 128,-1,38
 1236 1137 1236 1137 1238.5 1095 c 128,-1,39
 1241 1053 1241 1053 1242 1020 c 0,40,41
 1242 1011 1242 1011 1236 1005 c 128,-1,42
 1230 999 1230 999 1222 994.5 c 128,-1,43
 1214 990 1214 990 1205.5 988 c 128,-1,44
 1197 986 1197 986 1191 986 c 0,45,46
 1175 986 1175 986 1163 992.5 c 128,-1,47
 1151 999 1151 999 1149 1019 c 0,48,49
 1148 1035 1148 1035 1142 1064.5 c 128,-1,50
 1136 1094 1136 1094 1126 1128.5 c 128,-1,51
 1116 1163 1116 1163 1101.5 1199 c 128,-1,52
 1087 1235 1087 1235 1067.5 1264.5 c 128,-1,53
 1048 1294 1048 1294 1024 1312.5 c 128,-1,54
 1000 1331 1000 1331 972 1331 c 2,55,-1
 744 1331 l 1,56,-1
 743 185 l 2,57,58
 743 153 743 153 763 134.5 c 128,-1,59
 783 116 783 116 813.5 106 c 128,-1,60
 844 96 844 96 879.5 93 c 128,-1,61
 915 90 915 90 945 88 c 0,62,63
 966 86 966 86 973.5 80 c 128,-1,64
 981 74 981 74 981 51 c 0,65,66
 981 45 981 45 979 36.5 c 128,-1,67
 977 28 977 28 972.5 20 c 128,-1,68
 968 12 968 12 962 6 c 128,-1,69
 956 0 956 0 947 0 c 2,70,-1
 332 0 l 2,71,72
 323 0 323 0 317 6 c 128,-1,73
 311 12 311 12 306.5 20 c 128,-1,74
 302 28 302 28 300 36.5 c 128,-1,75
 298 45 298 45 298 51 c 0,0,1
EndSplineSet
EndChar

StartChar: U
Encoding: 85 85 55
Width: 1549
GlyphClass: 2
Flags: W
LayerCount: 2
Fore
SplineSet
260 1234 m 2,0,1
 260 1266 260 1266 246.5 1284.5 c 128,-1,2
 233 1303 233 1303 212 1313 c 128,-1,3
 191 1323 191 1323 166 1326 c 128,-1,4
 141 1329 141 1329 118 1331 c 0,5,6
 97 1333 97 1333 89.5 1339 c 128,-1,7
 82 1345 82 1345 82 1368 c 0,8,9
 82 1374 82 1374 84 1382.5 c 128,-1,10
 86 1391 86 1391 90.5 1399 c 128,-1,11
 95 1407 95 1407 101 1413 c 128,-1,12
 107 1419 107 1419 116 1419 c 2,13,-1
 631 1419 l 2,14,15
 640 1419 640 1419 646 1413 c 128,-1,16
 652 1407 652 1407 656.5 1399 c 128,-1,17
 661 1391 661 1391 663 1382.5 c 128,-1,18
 665 1374 665 1374 665 1368 c 0,19,20
 665 1352 665 1352 658.5 1342.5 c 128,-1,21
 652 1333 652 1333 632 1331 c 0,22,23
 606 1329 606 1329 578.5 1325 c 128,-1,24
 551 1321 551 1321 528.5 1313.5 c 128,-1,25
 506 1306 506 1306 491.5 1294.5 c 128,-1,26
 477 1283 477 1283 477 1267 c 2,27,-1
 476 524 l 2,28,29
 476 290 476 290 556.5 177.5 c 128,-1,30
 637 65 637 65 793 65 c 0,31,32
 911 65 911 65 989.5 98 c 128,-1,33
 1068 131 1068 131 1114.5 190.5 c 128,-1,34
 1161 250 1161 250 1180.5 332.5 c 128,-1,35
 1200 415 1200 415 1200 514 c 2,36,-1
 1200 1244 l 2,37,38
 1200 1269 1200 1269 1180 1285 c 128,-1,39
 1160 1301 1160 1301 1132.5 1310.5 c 128,-1,40
 1105 1320 1105 1320 1075 1324.5 c 128,-1,41
 1045 1329 1045 1329 1024 1331 c 256,42,43
 1003 1333 1003 1333 995.5 1339 c 128,-1,44
 988 1345 988 1345 988 1368 c 0,45,46
 988 1374 988 1374 990 1382.5 c 128,-1,47
 992 1391 992 1391 996.5 1399 c 128,-1,48
 1001 1407 1001 1407 1007 1413 c 128,-1,49
 1013 1419 1013 1419 1022 1419 c 2,50,-1
 1478 1419 l 2,51,52
 1487 1419 1487 1419 1493 1413 c 128,-1,53
 1499 1407 1499 1407 1503.5 1399 c 128,-1,54
 1508 1391 1508 1391 1510 1382.5 c 128,-1,55
 1512 1374 1512 1374 1512 1368 c 0,56,57
 1512 1352 1512 1352 1505.5 1342 c 128,-1,58
 1499 1332 1499 1332 1479 1331 c 0,59,60
 1440 1329 1440 1329 1408 1322 c 128,-1,61
 1376 1315 1376 1315 1353 1302.5 c 128,-1,62
 1330 1290 1330 1290 1317 1272 c 128,-1,63
 1304 1254 1304 1254 1304 1230 c 2,64,-1
 1302 516 l 2,65,66
 1302 380 1302 380 1266.5 278 c 128,-1,67
 1231 176 1231 176 1165 107.5 c 128,-1,68
 1099 39 1099 39 1004 5 c 128,-1,69
 909 -29 909 -29 789 -29 c 0,70,71
 666 -29 666 -29 568 11 c 128,-1,72
 470 51 470 51 401 123 c 128,-1,73
 332 195 332 195 295.5 295 c 128,-1,74
 259 395 259 395 259 516 c 2,75,-1
 260 1234 l 2,0,1
EndSplineSet
EndChar

StartChar: V
Encoding: 86 86 56
Width: 1365
GlyphClass: 2
Flags: W
LayerCount: 2
Fore
SplineSet
153 1254 m 2,0,1
 141 1287 141 1287 121 1302.5 c 128,-1,2
 101 1318 101 1318 78.5 1323.5 c 128,-1,3
 56 1329 56 1329 33 1329 c 128,-1,4
 10 1329 10 1329 -8 1331 c 0,5,6
 -29 1333 -29 1333 -36.5 1339 c 128,-1,7
 -44 1345 -44 1345 -44 1368 c 0,8,9
 -44 1374 -44 1374 -42 1382.5 c 128,-1,10
 -40 1391 -40 1391 -35.5 1399 c 128,-1,11
 -31 1407 -31 1407 -24.5 1413 c 128,-1,12
 -18 1419 -18 1419 -10 1419 c 2,13,-1
 515 1419 l 2,14,15
 524 1419 524 1419 530 1413 c 128,-1,16
 536 1407 536 1407 540.5 1399 c 128,-1,17
 545 1391 545 1391 547 1382.5 c 128,-1,18
 549 1374 549 1374 549 1368 c 0,19,20
 549 1352 549 1352 542.5 1342.5 c 128,-1,21
 536 1333 536 1333 516 1331 c 0,22,23
 482 1329 482 1329 453.5 1328.5 c 128,-1,24
 425 1328 425 1328 406.5 1324.5 c 128,-1,25
 388 1321 388 1321 380 1313 c 128,-1,26
 372 1305 372 1305 378 1287 c 2,27,-1
 744 232 l 1,28,-1
 1091 1257 l 2,29,30
 1097 1275 1097 1275 1086 1288 c 128,-1,31
 1075 1301 1075 1301 1052.5 1310 c 128,-1,32
 1030 1319 1030 1319 998.5 1324 c 128,-1,33
 967 1329 967 1329 933 1331 c 0,34,35
 913 1333 913 1333 906.5 1342.5 c 128,-1,36
 900 1352 900 1352 900 1368 c 0,37,38
 900 1374 900 1374 902 1382.5 c 128,-1,39
 904 1391 904 1391 908.5 1399 c 128,-1,40
 913 1407 913 1407 919 1413 c 128,-1,41
 925 1419 925 1419 934 1419 c 2,42,-1
 1389 1419 l 2,43,44
 1397 1419 1397 1419 1403.5 1413 c 128,-1,45
 1410 1407 1410 1407 1414.5 1399 c 128,-1,46
 1419 1391 1419 1391 1421 1382.5 c 128,-1,47
 1423 1374 1423 1374 1423 1368 c 0,48,49
 1423 1345 1423 1345 1415.5 1339 c 128,-1,50
 1408 1333 1408 1333 1387 1331 c 0,51,52
 1369 1329 1369 1329 1346 1329 c 128,-1,53
 1323 1329 1323 1329 1300.5 1323.5 c 128,-1,54
 1278 1318 1278 1318 1258 1302.5 c 128,-1,55
 1238 1287 1238 1287 1226 1254 c 2,56,-1
 761 -18 l 1,57,-1
 638 -18 l 1,58,-1
 153 1254 l 2,0,1
EndSplineSet
EndChar

StartChar: W
Encoding: 87 87 57
Width: 1998
GlyphClass: 2
Flags: W
LayerCount: 2
Fore
SplineSet
173 1254 m 1,0,1
 161 1287 161 1287 142.5 1302.5 c 128,-1,2
 124 1318 124 1318 103.5 1323.5 c 128,-1,3
 83 1329 83 1329 61.5 1329 c 128,-1,4
 40 1329 40 1329 22 1331 c 0,5,6
 1 1333 1 1333 -6.5 1339 c 128,-1,7
 -14 1345 -14 1345 -14 1368 c 0,8,9
 -14 1374 -14 1374 -12 1382.5 c 128,-1,10
 -10 1391 -10 1391 -5.5 1399 c 128,-1,11
 -1 1407 -1 1407 5.5 1413 c 128,-1,12
 12 1419 12 1419 20 1419 c 2,13,-1
 535 1419 l 2,14,15
 544 1419 544 1419 550 1413 c 128,-1,16
 556 1407 556 1407 560.5 1399 c 128,-1,17
 565 1391 565 1391 567 1382.5 c 128,-1,18
 569 1374 569 1374 569 1368 c 0,19,20
 569 1352 569 1352 562.5 1341.5 c 128,-1,21
 556 1331 556 1331 536 1331 c 0,22,23
 366 1331 366 1331 385 1261 c 2,24,-1
 654 286 l 1,25,-1
 991 1399 l 1,26,-1
 1099 1399 l 1,27,-1
 1454 281 l 1,28,-1
 1719 1267 l 2,29,30
 1724 1285 1724 1285 1712.5 1297 c 128,-1,31
 1701 1309 1701 1309 1677 1316.5 c 128,-1,32
 1653 1324 1653 1324 1620 1327.5 c 128,-1,33
 1587 1331 1587 1331 1548 1331 c 0,34,35
 1528 1331 1528 1331 1521.5 1341.5 c 128,-1,36
 1515 1352 1515 1352 1515 1368 c 0,37,38
 1515 1374 1515 1374 1517 1382.5 c 128,-1,39
 1519 1391 1519 1391 1523.5 1399 c 128,-1,40
 1528 1407 1528 1407 1534 1413 c 128,-1,41
 1540 1419 1540 1419 1549 1419 c 2,42,-1
 1994 1419 l 2,43,44
 2002 1419 2002 1419 2008.5 1413 c 128,-1,45
 2015 1407 2015 1407 2019.5 1399 c 128,-1,46
 2024 1391 2024 1391 2026 1382.5 c 128,-1,47
 2028 1374 2028 1374 2028 1368 c 0,48,49
 2028 1345 2028 1345 2020.5 1339 c 128,-1,50
 2013 1333 2013 1333 1992 1331 c 0,51,52
 1974 1329 1974 1329 1951.5 1329.5 c 128,-1,53
 1929 1330 1929 1330 1908 1324.5 c 128,-1,54
 1887 1319 1887 1319 1869 1303.5 c 128,-1,55
 1851 1288 1851 1288 1841 1254 c 2,56,-1
 1468 -18 l 1,57,-1
 1345 -18 l 1,58,-1
 993 1053 l 1,59,-1
 665 -18 l 1,60,-1
 542 -18 l 1,61,-1
 173 1254 l 1,0,1
EndSplineSet
EndChar

StartChar: X
Encoding: 88 88 58
Width: 1455
GlyphClass: 2
Flags: W
LayerCount: 2
Fore
SplineSet
54 51 m 0,0,1
 54 74 54 74 61.5 80 c 128,-1,2
 69 86 69 86 90 88 c 0,3,4
 108 90 108 90 134.5 91.5 c 128,-1,5
 161 93 161 93 189 99.5 c 128,-1,6
 217 106 217 106 244 121 c 128,-1,7
 271 136 271 136 291 165 c 2,8,-1
 639 684 l 1,9,-1
 251 1254 l 1,10,11
 232 1284 232 1284 209.5 1299 c 128,-1,12
 187 1314 187 1314 164.5 1320.5 c 128,-1,13
 142 1327 142 1327 120 1328 c 128,-1,14
 98 1329 98 1329 80 1331 c 0,15,16
 59 1333 59 1333 51.5 1339 c 128,-1,17
 44 1345 44 1345 44 1368 c 0,18,19
 44 1374 44 1374 46 1382.5 c 128,-1,20
 48 1391 48 1391 52.5 1399 c 128,-1,21
 57 1407 57 1407 63.5 1413 c 128,-1,22
 70 1419 70 1419 78 1419 c 2,23,-1
 603 1419 l 2,24,25
 612 1419 612 1419 618 1413 c 128,-1,26
 624 1407 624 1407 628.5 1399 c 128,-1,27
 633 1391 633 1391 635 1382.5 c 128,-1,28
 637 1374 637 1374 637 1368 c 0,29,30
 637 1352 637 1352 630.5 1341.5 c 128,-1,31
 624 1331 624 1331 604 1331 c 0,32,33
 571 1331 571 1331 539.5 1330 c 128,-1,34
 508 1329 508 1329 486.5 1324.5 c 128,-1,35
 465 1320 465 1320 455.5 1311.5 c 128,-1,36
 446 1303 446 1303 456 1287 c 2,37,-1
 756 848 l 1,38,-1
 1019 1257 l 2,39,40
 1029 1272 1029 1272 1025 1285.5 c 128,-1,41
 1021 1299 1021 1299 1004.5 1309 c 128,-1,42
 988 1319 988 1319 961.5 1325 c 128,-1,43
 935 1331 935 1331 901 1331 c 0,44,45
 881 1331 881 1331 874.5 1341.5 c 128,-1,46
 868 1352 868 1352 868 1368 c 0,47,48
 868 1374 868 1374 870 1382.5 c 128,-1,49
 872 1391 872 1391 876.5 1399 c 128,-1,50
 881 1407 881 1407 887 1413 c 128,-1,51
 893 1419 893 1419 902 1419 c 2,52,-1
 1357 1419 l 2,53,54
 1365 1419 1365 1419 1371.5 1413 c 128,-1,55
 1378 1407 1378 1407 1382.5 1399 c 128,-1,56
 1387 1391 1387 1391 1389 1382.5 c 128,-1,57
 1391 1374 1391 1374 1391 1368 c 0,58,59
 1391 1345 1391 1345 1383.5 1339 c 128,-1,60
 1376 1333 1376 1333 1355 1331 c 0,61,62
 1337 1329 1337 1329 1311 1327.5 c 128,-1,63
 1285 1326 1285 1326 1257 1319 c 128,-1,64
 1229 1312 1229 1312 1202 1297 c 128,-1,65
 1175 1282 1175 1282 1154 1254 c 1,66,-1
 812 767 l 1,67,-1
 1224 165 l 1,68,69
 1243 135 1243 135 1267 120 c 128,-1,70
 1291 105 1291 105 1315.5 98.5 c 128,-1,71
 1340 92 1340 92 1363.5 91 c 128,-1,72
 1387 90 1387 90 1405 88 c 0,73,74
 1426 86 1426 86 1433.5 80 c 128,-1,75
 1441 74 1441 74 1441 51 c 0,76,77
 1441 45 1441 45 1439 36.5 c 128,-1,78
 1437 28 1437 28 1432.5 20 c 128,-1,79
 1428 12 1428 12 1421.5 6 c 128,-1,80
 1415 0 1415 0 1407 0 c 2,81,-1
 862 0 l 2,82,83
 853 0 853 0 847 6 c 128,-1,84
 841 12 841 12 836.5 20 c 128,-1,85
 832 28 832 28 830 36.5 c 128,-1,86
 828 45 828 45 828 51 c 0,87,88
 828 67 828 67 834.5 76.5 c 128,-1,89
 841 86 841 86 861 88 c 0,90,91
 895 90 895 90 928 91 c 128,-1,92
 961 92 961 92 984.5 96 c 128,-1,93
 1008 100 1008 100 1018.5 108 c 128,-1,94
 1029 116 1029 116 1019 132 c 2,95,-1
 693 606 l 1,96,-1
 426 162 l 1,97,98
 406 131 406 131 430.5 111.5 c 128,-1,99
 455 92 455 92 524 88 c 0,100,101
 544 86 544 86 550.5 76.5 c 128,-1,102
 557 67 557 67 557 51 c 0,103,104
 557 45 557 45 555 36.5 c 128,-1,105
 553 28 553 28 548.5 20 c 128,-1,106
 544 12 544 12 538 6 c 128,-1,107
 532 0 532 0 523 0 c 2,108,-1
 88 0 l 2,109,110
 80 0 80 0 73.5 6 c 128,-1,111
 67 12 67 12 62.5 20 c 128,-1,112
 58 28 58 28 56 36.5 c 128,-1,113
 54 45 54 45 54 51 c 0,0,1
EndSplineSet
EndChar

StartChar: Y
Encoding: 89 89 59
Width: 1260
GlyphClass: 2
Flags: W
LayerCount: 2
Fore
SplineSet
332 51 m 0,0,1
 332 67 332 67 344 76.5 c 128,-1,2
 356 86 356 86 375 88 c 0,3,4
 400 90 400 90 429 90 c 128,-1,5
 458 90 458 90 482.5 95 c 128,-1,6
 507 100 507 100 523.5 112.5 c 128,-1,7
 540 125 540 125 540 152 c 2,8,-1
 540 534 l 1,9,-1
 153 1254 l 2,10,11
 136 1285 136 1285 117 1302 c 128,-1,12
 98 1319 98 1319 78.5 1327 c 128,-1,13
 59 1335 59 1335 39.5 1337 c 128,-1,14
 20 1339 20 1339 2 1341 c 0,15,16
 -19 1343 -19 1343 -26.5 1349 c 128,-1,17
 -34 1355 -34 1355 -34 1378 c 0,18,19
 -34 1389 -34 1389 -25.5 1404 c 128,-1,20
 -17 1419 -17 1419 0 1419 c 2,21,-1
 515 1419 l 2,22,23
 532 1419 532 1419 540.5 1404 c 128,-1,24
 549 1389 549 1389 549 1378 c 0,25,26
 549 1362 549 1362 539.5 1346.5 c 128,-1,27
 530 1331 530 1331 510 1331 c 0,28,29
 478 1331 478 1331 449 1330.5 c 128,-1,30
 420 1330 420 1330 399 1326 c 128,-1,31
 378 1322 378 1322 369 1313 c 128,-1,32
 360 1304 360 1304 368 1287 c 2,33,-1
 688 639 l 1,34,-1
 1000 1258 l 2,35,36
 1008 1274 1008 1274 1007 1287.5 c 128,-1,37
 1006 1301 1006 1301 992 1311 c 128,-1,38
 978 1321 978 1321 949 1326 c 128,-1,39
 920 1331 920 1331 874 1331 c 0,40,41
 854 1331 854 1331 842 1346.5 c 128,-1,42
 830 1362 830 1362 830 1378 c 0,43,44
 830 1389 830 1389 838.5 1404 c 128,-1,45
 847 1419 847 1419 864 1419 c 2,46,-1
 1279 1419 l 2,47,48
 1296 1419 1296 1419 1304.5 1404 c 128,-1,49
 1313 1389 1313 1389 1313 1378 c 0,50,51
 1313 1355 1313 1355 1305.5 1349 c 128,-1,52
 1298 1343 1298 1343 1277 1341 c 0,53,54
 1259 1339 1259 1339 1239 1337 c 128,-1,55
 1219 1335 1219 1335 1199.5 1326.5 c 128,-1,56
 1180 1318 1180 1318 1161.5 1301.5 c 128,-1,57
 1143 1285 1143 1285 1126 1254 c 2,58,-1
 747 567 l 1,59,-1
 747 165 l 2,60,61
 747 133 747 133 764.5 117.5 c 128,-1,62
 782 102 782 102 808 96 c 128,-1,63
 834 90 834 90 864 90 c 128,-1,64
 894 90 894 90 919 88 c 0,65,66
 940 86 940 86 952.5 80 c 128,-1,67
 965 74 965 74 965 51 c 0,68,69
 965 45 965 45 963 36.5 c 128,-1,70
 961 28 961 28 956.5 20 c 128,-1,71
 952 12 952 12 945.5 6 c 128,-1,72
 939 0 939 0 931 0 c 2,73,-1
 366 0 l 2,74,75
 357 0 357 0 351 6 c 128,-1,76
 345 12 345 12 340.5 20 c 128,-1,77
 336 28 336 28 334 36.5 c 128,-1,78
 332 45 332 45 332 51 c 0,0,1
EndSplineSet
EndChar

StartChar: Z
Encoding: 90 90 60
Width: 1232
GlyphClass: 2
Flags: W
LayerCount: 2
Fore
SplineSet
60 40 m 2,0,1
 60 45 60 45 61.5 51 c 128,-1,2
 63 57 63 57 67.5 66 c 128,-1,3
 72 75 72 75 80 89 c 128,-1,4
 88 103 88 103 102 123 c 1,5,-1
 872 1331 l 1,6,-1
 389 1331 l 2,7,8
 367 1331 367 1331 343.5 1311.5 c 128,-1,9
 320 1292 320 1292 297.5 1261 c 128,-1,10
 275 1230 275 1230 254.5 1193 c 128,-1,11
 234 1156 234 1156 218.5 1121.5 c 128,-1,12
 203 1087 203 1087 193 1059 c 128,-1,13
 183 1031 183 1031 182 1019 c 0,14,15
 180 999 180 999 170.5 992.5 c 128,-1,16
 161 986 161 986 145 986 c 0,17,18
 134 986 134 986 124 994.5 c 128,-1,19
 114 1003 114 1003 114 1020 c 1,20,-1
 143 1378 l 1,21,22
 161 1418 161 1418 190 1419 c 1,23,-1
 1122 1419 l 2,24,25
 1134 1419 1134 1419 1140 1414 c 128,-1,26
 1146 1409 1146 1409 1146 1395 c 2,27,-1
 1146 1368 l 2,28,29
 1146 1360 1146 1360 1143.5 1354 c 128,-1,30
 1141 1348 1141 1348 1136 1340 c 2,31,-1
 330 83 l 1,32,-1
 840 83 l 2,33,34
 862 83 862 83 889.5 105.5 c 128,-1,35
 917 128 917 128 945 162.5 c 128,-1,36
 973 197 973 197 1000 238.5 c 128,-1,37
 1027 280 1027 280 1048.5 318.5 c 128,-1,38
 1070 357 1070 357 1083.5 387.5 c 128,-1,39
 1097 418 1097 418 1098 430 c 0,40,41
 1100 450 1100 450 1109.5 456.5 c 128,-1,42
 1119 463 1119 463 1135 463 c 0,43,44
 1146 463 1146 463 1161 454.5 c 128,-1,45
 1176 446 1176 446 1176 429 c 1,46,-1
 1126 41 l 1,47,48
 1108 1 1108 1 1079 0 c 1,49,-1
 84 0 l 2,50,51
 72 0 72 0 66 5 c 128,-1,52
 60 10 60 10 60 24 c 2,53,-1
 60 40 l 2,0,1
EndSplineSet
EndChar

StartChar: bracketleft
Encoding: 91 91 61
Width: 768
GlyphClass: 2
Flags: W
LayerCount: 2
Fore
SplineSet
162 1535 m 1,0,-1
 606 1536 l 1,1,-1
 606 1439 l 1,2,-1
 357 1439 l 1,3,-1
 357 -231 l 1,4,-1
 606 -231 l 1,5,-1
 606 -328 l 1,6,-1
 162 -327 l 1,7,-1
 162 1535 l 1,0,-1
EndSplineSet
EndChar

StartChar: asciicircum
Encoding: 94 94 64
Width: 1317
GlyphClass: 2
Flags: W
LayerCount: 2
Fore
SplineSet
598 1428 m 1,0,-1
 717 1428 l 1,1,-1
 1194 300 l 1,2,-1
 1048 300 l 1,3,-1
 657 1270 l 1,4,-1
 277 300 l 1,5,-1
 123 300 l 1,6,-1
 598 1428 l 1,0,-1
EndSplineSet
EndChar

StartChar: underscore
Encoding: 95 95 65
Width: 1317
GlyphClass: 2
Flags: W
LayerCount: 2
Fore
SplineSet
1342 -190 m 1,0,-1
 1342 -296 l 1,1,-1
 -25 -296 l 1,2,-1
 -25 -190 l 1,3,-1
 1342 -190 l 1,0,-1
EndSplineSet
EndChar

StartChar: grave
Encoding: 96 96 66
Width: 1024
GlyphClass: 2
Flags: W
LayerCount: 2
Fore
SplineSet
635 1101 m 1,0,1
 558 1170 558 1170 493.5 1218.5 c 128,-1,2
 429 1267 429 1267 379.5 1300.5 c 128,-1,3
 330 1334 330 1334 298 1354.5 c 128,-1,4
 266 1375 266 1375 254 1386 c 0,5,6
 240 1399 240 1399 229.5 1416 c 128,-1,7
 219 1433 219 1433 216 1452.5 c 128,-1,8
 213 1472 213 1472 219 1493 c 128,-1,9
 225 1514 225 1514 244 1534 c 256,10,11
 263 1554 263 1554 285 1561 c 128,-1,12
 307 1568 307 1568 328 1566 c 128,-1,13
 349 1564 349 1564 368 1554 c 128,-1,14
 387 1544 387 1544 401 1531 c 0,15,16
 413 1520 413 1520 436.5 1487 c 128,-1,17
 460 1454 460 1454 496 1404.5 c 128,-1,18
 532 1355 532 1355 580.5 1292.5 c 128,-1,19
 629 1230 629 1230 691 1159 c 1,20,-1
 635 1101 l 1,21,-1
 635 1101 l 1,0,1
EndSplineSet
EndChar

StartChar: a
Encoding: 97 97 67
Width: 1032
GlyphClass: 2
Flags: W
LayerCount: 2
Fore
SplineSet
98 235 m 1,0,1
 96 302 96 302 120.5 353.5 c 128,-1,2
 145 405 145 405 187 443.5 c 128,-1,3
 229 482 229 482 286 508.5 c 128,-1,4
 343 535 343 535 407.5 553 c 128,-1,5
 472 571 472 571 540 581.5 c 128,-1,6
 608 592 608 592 672 598 c 1,7,-1
 672 753 l 2,8,9
 672 834 672 834 628.5 875 c 128,-1,10
 585 916 585 916 487 924 c 0,11,12
 465 926 465 926 445.5 923.5 c 128,-1,13
 426 921 426 921 411 917 c 0,14,15
 393 913 393 913 378 907 c 1,16,17
 371 896 371 896 359 868.5 c 128,-1,18
 347 841 347 841 333.5 809 c 128,-1,19
 320 777 320 777 306.5 747.5 c 128,-1,20
 293 718 293 718 284 702 c 0,21,22
 262 665 262 665 215 665 c 0,23,24
 182 665 182 665 156 693 c 128,-1,25
 130 721 130 721 130 774 c 0,26,27
 130 806 130 806 144.5 840.5 c 128,-1,28
 159 875 159 875 196 909 c 0,29,30
 232 942 232 942 275 962.5 c 128,-1,31
 318 983 318 983 361.5 994.5 c 128,-1,32
 405 1006 405 1006 446.5 1010 c 128,-1,33
 488 1014 488 1014 520 1014 c 0,34,35
 611 1014 611 1014 676 993 c 128,-1,36
 741 972 741 972 783 934.5 c 128,-1,37
 825 897 825 897 844.5 846.5 c 128,-1,38
 864 796 864 796 864 736 c 2,39,-1
 864 210 l 2,40,41
 864 184 864 184 866 161.5 c 128,-1,42
 868 139 868 139 873 122.5 c 128,-1,43
 878 106 878 106 887 96.5 c 128,-1,44
 896 87 896 87 910 87 c 0,45,46
 918 87 918 87 930 89 c 128,-1,47
 942 91 942 91 960 96 c 0,48,49
 972 99 972 99 981 92 c 128,-1,50
 990 85 990 85 995 74.5 c 128,-1,51
 1000 64 1000 64 1000 53 c 128,-1,52
 1000 42 1000 42 994 37 c 1,53,54
 989 31 989 31 973 21 c 128,-1,55
 957 11 957 11 932 0.5 c 128,-1,56
 907 -10 907 -10 875 -17.5 c 128,-1,57
 843 -25 843 -25 806 -25 c 0,58,59
 764 -25 764 -25 741.5 -8.5 c 128,-1,60
 719 8 719 8 708.5 30 c 128,-1,61
 698 52 698 52 696.5 74.5 c 128,-1,62
 695 97 695 97 695 109 c 1,63,64
 636 42 636 42 560.5 9 c 128,-1,65
 485 -24 485 -24 380 -24 c 0,66,67
 338 -24 338 -24 289 -10 c 128,-1,68
 240 4 240 4 198 35 c 128,-1,69
 156 66 156 66 127.5 115.5 c 128,-1,70
 99 165 99 165 98 235 c 1,0,1
313 252 m 0,71,72
 313 223 313 223 320.5 194 c 128,-1,73
 328 165 328 165 345 142 c 128,-1,74
 362 119 362 119 391 104.5 c 128,-1,75
 420 90 420 90 462 90 c 0,76,77
 501 90 501 90 533 98 c 128,-1,78
 565 106 565 106 591.5 118.5 c 128,-1,79
 618 131 618 131 638 146.5 c 128,-1,80
 658 162 658 162 672 176 c 1,81,-1
 672 527 l 1,82,83
 606 519 606 519 541.5 504.5 c 128,-1,84
 477 490 477 490 426 459.5 c 128,-1,85
 375 429 375 429 344 379.5 c 128,-1,86
 313 330 313 330 313 252 c 0,71,72
EndSplineSet
Substitution2: "Single Substitution lookup 12 subtable" ordfeminine
Substitution2: "'aalt' Access All Alternates in Latin lookup 0 subtable" ordfeminine
EndChar

StartChar: b
Encoding: 98 98 68
Width: 1147
GlyphClass: 2
Flags: W
LayerCount: 2
Fore
SplineSet
174 1329 m 2,0,1
 174 1375 174 1375 156.5 1398.5 c 128,-1,2
 139 1422 139 1422 114.5 1432.5 c 128,-1,3
 90 1443 90 1443 62.5 1446 c 128,-1,4
 35 1449 35 1449 15 1454 c 1,5,6
 4 1459 4 1459 -2.5 1467 c 128,-1,7
 -9 1475 -9 1475 -9 1494 c 0,8,9
 -9 1506 -9 1506 -3 1521.5 c 128,-1,10
 3 1537 3 1537 15 1538 c 0,11,12
 65 1541 65 1541 113 1543 c 128,-1,13
 161 1545 161 1545 203.5 1546 c 128,-1,14
 246 1547 246 1547 280 1547.5 c 128,-1,15
 314 1548 314 1548 335 1548 c 0,16,17
 343 1548 343 1548 354 1540 c 128,-1,18
 365 1532 365 1532 365 1508 c 2,19,-1
 365 1104 l 1,20,-1
 355 875 l 1,21,22
 380 906 380 906 414 931.5 c 128,-1,23
 448 957 448 957 486.5 975 c 128,-1,24
 525 993 525 993 565.5 1003 c 128,-1,25
 606 1013 606 1013 644 1013 c 0,26,27
 759 1013 759 1013 840.5 969.5 c 128,-1,28
 922 926 922 926 973.5 853.5 c 128,-1,29
 1025 781 1025 781 1048.5 687 c 128,-1,30
 1072 593 1072 593 1072 492 c 256,31,32
 1072 391 1072 391 1045 297 c 128,-1,33
 1018 203 1018 203 962.5 130 c 128,-1,34
 907 57 907 57 822.5 13.5 c 128,-1,35
 738 -30 738 -30 622 -30 c 0,36,37
 528 -30 528 -30 454.5 -3.5 c 128,-1,38
 381 23 381 23 334 77 c 1,39,40
 309 58 309 58 292.5 38.5 c 128,-1,41
 276 19 276 19 264 3.5 c 128,-1,42
 252 -12 252 -12 241.5 -22 c 128,-1,43
 231 -32 231 -32 219 -32 c 0,44,45
 198 -32 198 -32 186 -21 c 128,-1,46
 174 -10 174 -10 174 12 c 2,47,-1
 174 1329 l 2,0,1
365 175 m 1,48,49
 395 122 395 122 447.5 93.5 c 128,-1,50
 500 65 500 65 585 65 c 0,51,52
 666 65 666 65 719 98 c 128,-1,53
 772 131 772 131 803.5 188.5 c 128,-1,54
 835 246 835 246 847.5 324 c 128,-1,55
 860 402 860 402 860 492 c 256,56,57
 860 582 860 582 846.5 660 c 128,-1,58
 833 738 833 738 801 795 c 128,-1,59
 769 852 769 852 715.5 885 c 128,-1,60
 662 918 662 918 581 918 c 0,61,62
 552 918 552 918 520.5 909 c 128,-1,63
 489 900 489 900 460 885 c 128,-1,64
 431 870 431 870 406 850.5 c 128,-1,65
 381 831 381 831 365 809 c 1,66,-1
 365 175 l 1,48,49
EndSplineSet
EndChar

StartChar: c
Encoding: 99 99 69
Width: 930
GlyphClass: 2
Flags: W
LayerCount: 2
Fore
SplineSet
77 504 m 0,0,1
 77 622 77 622 114.5 716.5 c 128,-1,2
 152 811 152 811 215 877 c 128,-1,3
 278 943 278 943 362 978.5 c 128,-1,4
 446 1014 446 1014 539 1014 c 0,5,6
 582 1014 582 1014 628 1006.5 c 128,-1,7
 674 999 674 999 716 983.5 c 128,-1,8
 758 968 758 968 793.5 944 c 128,-1,9
 829 920 829 920 851 887 c 0,10,11
 884 836 884 836 888.5 794.5 c 128,-1,12
 893 753 893 753 881 723.5 c 128,-1,13
 869 694 869 694 846.5 678 c 128,-1,14
 824 662 824 662 803 662 c 0,15,16
 774 662 774 662 750 669.5 c 128,-1,17
 726 677 726 677 711 710 c 1,18,-1
 632 901 l 1,19,20
 614 912 614 912 584.5 915 c 128,-1,21
 555 918 555 918 526 918 c 0,22,23
 471 918 471 918 428.5 901.5 c 128,-1,24
 386 885 386 885 356.5 840 c 128,-1,25
 327 795 327 795 312 715.5 c 128,-1,26
 297 636 297 636 297 510 c 0,27,28
 297 397 297 397 320 314.5 c 128,-1,29
 343 232 343 232 379 179 c 128,-1,30
 415 126 415 126 459 100.5 c 128,-1,31
 503 75 503 75 545 75 c 0,32,33
 636 75 636 75 700 109.5 c 128,-1,34
 764 144 764 144 799 208 c 0,35,36
 802 214 802 214 805 220 c 128,-1,37
 808 226 808 226 818 224 c 1,38,-1
 864 201 l 1,39,40
 877 196 877 196 874.5 187.5 c 128,-1,41
 872 179 872 179 869 173 c 0,42,43
 848 128 848 128 815 91 c 128,-1,44
 782 54 782 54 738 27.5 c 128,-1,45
 694 1 694 1 639.5 -14 c 128,-1,46
 585 -29 585 -29 519 -29 c 0,47,48
 406 -29 406 -29 322.5 8.5 c 128,-1,49
 239 46 239 46 184.5 116 c 128,-1,50
 130 186 130 186 103.5 284 c 128,-1,51
 77 382 77 382 77 504 c 0,0,1
EndSplineSet
EndChar

StartChar: d
Encoding: 100 100 70
Width: 1176
GlyphClass: 2
Flags: W
LayerCount: 2
Fore
SplineSet
80 492 m 256,0,1
 80 593 80 593 106 687 c 128,-1,2
 132 781 132 781 186.5 854 c 128,-1,3
 241 927 241 927 326 970.5 c 128,-1,4
 411 1014 411 1014 530 1014 c 0,5,6
 612 1014 612 1014 682 996.5 c 128,-1,7
 752 979 752 979 797 934 c 1,8,-1
 787 1104 l 1,9,-1
 787 1329 l 2,10,11
 787 1375 787 1375 766 1398.5 c 128,-1,12
 745 1422 745 1422 715.5 1432.5 c 128,-1,13
 686 1443 686 1443 654.5 1446 c 128,-1,14
 623 1449 623 1449 603 1454 c 1,15,16
 592 1459 592 1459 585.5 1467 c 128,-1,17
 579 1475 579 1475 579 1494 c 0,18,19
 579 1506 579 1506 585 1521.5 c 128,-1,20
 591 1537 591 1537 603 1538 c 0,21,22
 653 1541 653 1541 705 1543 c 128,-1,23
 757 1545 757 1545 804 1546 c 128,-1,24
 851 1547 851 1547 889 1547.5 c 128,-1,25
 927 1548 927 1548 948 1548 c 0,26,27
 956 1548 956 1548 967 1540 c 128,-1,28
 978 1532 978 1532 978 1508 c 2,29,-1
 978 175 l 2,30,31
 978 143 978 143 988.5 124.5 c 128,-1,32
 999 106 999 106 1015.5 96 c 128,-1,33
 1032 86 1032 86 1052 83 c 128,-1,34
 1072 80 1072 80 1090 78 c 0,35,36
 1111 76 1111 76 1118.5 70 c 128,-1,37
 1126 64 1126 64 1126 41 c 0,38,39
 1126 30 1126 30 1117.5 15 c 128,-1,40
 1109 0 1109 0 1092 0 c 2,41,-1
 878 0 l 2,42,43
 848 0 848 0 831.5 7 c 128,-1,44
 815 14 815 14 807.5 28 c 128,-1,45
 800 42 800 42 798.5 62.5 c 128,-1,46
 797 83 797 83 797 109 c 1,47,48
 771 78 771 78 737 52.5 c 128,-1,49
 703 27 703 27 664.5 9 c 128,-1,50
 626 -9 626 -9 585.5 -19 c 128,-1,51
 545 -29 545 -29 508 -29 c 0,52,53
 390 -29 390 -29 308.5 14.5 c 128,-1,54
 227 58 227 58 176 130.5 c 128,-1,55
 125 203 125 203 102.5 297 c 128,-1,56
 80 391 80 391 80 492 c 256,0,1
287 492 m 0,57,58
 287 402 287 402 300 324.5 c 128,-1,59
 313 247 313 247 345.5 189.5 c 128,-1,60
 378 132 378 132 432.5 99 c 128,-1,61
 487 66 487 66 571 66 c 0,62,63
 600 66 600 66 631 74.5 c 128,-1,64
 662 83 662 83 691.5 98 c 128,-1,65
 721 113 721 113 746 133 c 128,-1,66
 771 153 771 153 787 175 c 1,67,-1
 787 814 l 1,68,69
 731 919 731 919 567 919 c 0,70,71
 483 919 483 919 429 886.5 c 128,-1,72
 375 854 375 854 343.5 797 c 128,-1,73
 312 740 312 740 299.5 661.5 c 128,-1,74
 287 583 287 583 287 492 c 0,57,58
EndSplineSet
EndChar

StartChar: e
Encoding: 101 101 71
Width: 990
GlyphClass: 2
Flags: W
LayerCount: 2
Fore
SplineSet
77 504 m 256,0,1
 77 629 77 629 116.5 724.5 c 128,-1,2
 156 820 156 820 219 884.5 c 128,-1,3
 282 949 282 949 362 981.5 c 128,-1,4
 442 1014 442 1014 523 1014 c 0,5,6
 616 1014 616 1014 684 991 c 128,-1,7
 752 968 752 968 799 925 c 128,-1,8
 846 882 846 882 874 821 c 128,-1,9
 902 760 902 760 916 685 c 0,10,11
 924 644 924 644 925 597.5 c 128,-1,12
 926 551 926 551 926 503 c 1,13,-1
 297 503 l 1,14,15
 298 384 298 384 321.5 302.5 c 128,-1,16
 345 221 345 221 383 170.5 c 128,-1,17
 421 120 421 120 469 97.5 c 128,-1,18
 517 75 517 75 567 75 c 0,19,20
 651 75 651 75 710 109.5 c 128,-1,21
 769 144 769 144 804 208 c 0,22,23
 807 214 807 214 810 220 c 128,-1,24
 813 226 813 226 823 224 c 1,25,-1
 873 201 l 2,26,27
 886 196 886 196 883.5 187.5 c 128,-1,28
 881 179 881 179 878 173 c 0,29,30
 854 128 854 128 821 91 c 128,-1,31
 788 54 788 54 747 27.5 c 128,-1,32
 706 1 706 1 656.5 -14 c 128,-1,33
 607 -29 607 -29 551 -29 c 0,34,35
 432 -29 432 -29 343.5 7.5 c 128,-1,36
 255 44 255 44 195.5 112.5 c 128,-1,37
 136 181 136 181 106.5 280 c 128,-1,38
 77 379 77 379 77 504 c 256,0,1
703 595 m 1,39,40
 703 682 703 682 691 743.5 c 128,-1,41
 679 805 679 805 657.5 843.5 c 128,-1,42
 636 882 636 882 605 900 c 128,-1,43
 574 918 574 918 536 918 c 0,44,45
 493 918 493 918 453 907.5 c 128,-1,46
 413 897 413 897 380.5 863 c 128,-1,47
 348 829 348 829 326.5 763.5 c 128,-1,48
 305 698 305 698 299 589 c 1,49,-1
 703 595 l 1,39,40
EndSplineSet
EndChar

StartChar: f
Encoding: 102 102 72
Width: 666
GlyphClass: 2
Flags: W
LayerCount: 2
Fore
SplineSet
70 41 m 0,0,1
 70 57 70 57 76.5 66.5 c 128,-1,2
 83 76 83 76 103 78 c 0,3,4
 121 80 121 80 141.5 84 c 128,-1,5
 162 88 162 88 179.5 95.5 c 128,-1,6
 197 103 197 103 208 114 c 128,-1,7
 219 125 219 125 219 142 c 2,8,-1
 219 892 l 1,9,-1
 96 892 l 2,10,11
 90 892 90 892 85.5 897.5 c 128,-1,12
 81 903 81 903 78 910.5 c 128,-1,13
 75 918 75 918 73.5 926.5 c 128,-1,14
 72 935 72 935 72 941 c 0,15,16
 72 960 72 960 78.5 969.5 c 128,-1,17
 85 979 85 979 96 984 c 1,18,-1
 218 994 l 1,19,-1
 219 994 l 1,20,-1
 219 1075 l 2,21,22
 219 1171 219 1171 243 1260.5 c 128,-1,23
 267 1350 267 1350 314 1419.5 c 128,-1,24
 361 1489 361 1489 430 1531 c 128,-1,25
 499 1573 499 1573 590 1573 c 0,26,27
 638 1573 638 1573 674.5 1562 c 128,-1,28
 711 1551 711 1551 736 1532.5 c 128,-1,29
 761 1514 761 1514 775 1490 c 128,-1,30
 789 1466 789 1466 792 1441 c 0,31,32
 795 1411 795 1411 782 1386.5 c 128,-1,33
 769 1362 769 1362 749.5 1345 c 128,-1,34
 730 1328 730 1328 708.5 1318.5 c 128,-1,35
 687 1309 687 1309 674 1309 c 0,36,37
 666 1309 666 1309 663 1312 c 2,38,-1
 554 1475 l 1,39,40
 526 1470 526 1470 500 1456 c 128,-1,41
 474 1442 474 1442 454 1404 c 128,-1,42
 434 1366 434 1366 422 1295.5 c 128,-1,43
 410 1225 410 1225 410 1107 c 2,44,-1
 410 994 l 1,45,-1
 615 994 l 1,46,47
 627 993 627 993 633 982.5 c 128,-1,48
 639 972 639 972 639 960 c 0,49,50
 639 941 639 941 632.5 919 c 128,-1,51
 626 897 626 897 615 892 c 1,52,-1
 410 892 l 1,53,-1
 410 175 l 2,54,55
 410 143 410 143 425.5 124.5 c 128,-1,56
 441 106 441 106 464 96.5 c 128,-1,57
 487 87 487 87 515 83.5 c 128,-1,58
 543 80 543 80 567 78 c 0,59,60
 588 76 588 76 595.5 70 c 128,-1,61
 603 64 603 64 603 41 c 0,62,63
 603 30 603 30 594.5 15 c 128,-1,64
 586 0 586 0 569 0 c 2,65,-1
 104 0 l 2,66,67
 87 0 87 0 78.5 15 c 128,-1,68
 70 30 70 30 70 41 c 0,0,1
EndSplineSet
EndChar

StartChar: g
Encoding: 103 103 73
Width: 1043
GlyphClass: 2
Flags: W
LayerCount: 2
Fore
SplineSet
69 -145 m 0,0,1
 69 -100 69 -100 81.5 -68 c 128,-1,2
 94 -36 94 -36 114 -13.5 c 128,-1,3
 134 9 134 9 157.5 24 c 128,-1,4
 181 39 181 39 204 50 c 1,5,6
 156 83 156 83 132 133 c 128,-1,7
 108 183 108 183 108 243 c 0,8,9
 108 279 108 279 119.5 309.5 c 128,-1,10
 131 340 131 340 149 365 c 128,-1,11
 167 390 167 390 189.5 408.5 c 128,-1,12
 212 427 212 427 234 440 c 1,13,14
 174 485 174 485 143 551 c 128,-1,15
 112 617 112 617 112 694 c 0,16,17
 112 761 112 761 137 819 c 128,-1,18
 162 877 162 877 209 920.5 c 128,-1,19
 256 964 256 964 323 989 c 128,-1,20
 390 1014 390 1014 475 1014 c 0,21,22
 562 1014 562 1014 628.5 988 c 128,-1,23
 695 962 695 962 741 917 c 1,24,25
 769 960 769 960 811.5 987 c 128,-1,26
 854 1014 854 1014 907 1014 c 0,27,28
 970 1014 970 1014 1006.5 974.5 c 128,-1,29
 1043 935 1043 935 1043 864 c 0,30,31
 1043 818 1043 818 1021 793 c 128,-1,32
 999 768 999 768 971 768 c 0,33,34
 950 768 950 768 940 780 c 128,-1,35
 930 792 930 792 916 818 c 256,36,37
 902 844 902 844 886 873.5 c 128,-1,38
 870 903 870 903 862 921 c 1,39,40
 838 919 838 919 817.5 903.5 c 128,-1,41
 797 888 797 888 782 867 c 1,42,43
 831 790 831 790 831 694 c 0,44,45
 831 628 831 628 806 568.5 c 128,-1,46
 781 509 781 509 734.5 465 c 128,-1,47
 688 421 688 421 621 395 c 128,-1,48
 554 369 554 369 469 369 c 0,49,50
 377 369 377 369 304 400 c 1,51,52
 279 380 279 380 264 353 c 128,-1,53
 249 326 249 326 249 300 c 0,54,55
 249 247 249 247 288 220.5 c 128,-1,56
 327 194 327 194 387 194 c 2,57,-1
 648 194 l 2,58,59
 727 194 727 194 789 179.5 c 128,-1,60
 851 165 851 165 893 130 c 128,-1,61
 935 95 935 95 956.5 37 c 128,-1,62
 978 -21 978 -21 977 -108 c 0,63,64
 977 -171 977 -171 943.5 -232 c 128,-1,65
 910 -293 910 -293 847.5 -342 c 128,-1,66
 785 -391 785 -391 696 -421 c 128,-1,67
 607 -451 607 -451 495 -451 c 0,68,69
 395 -451 395 -451 316 -427 c 128,-1,70
 237 -403 237 -403 182 -362 c 128,-1,71
 127 -321 127 -321 98 -265 c 128,-1,72
 69 -209 69 -209 69 -145 c 0,0,1
473 464 m 0,73,74
 524 464 524 464 557 482.5 c 128,-1,75
 590 501 590 501 609 532.5 c 128,-1,76
 628 564 628 564 635.5 605.5 c 128,-1,77
 643 647 643 647 643 694 c 256,78,79
 643 741 643 741 635 782 c 128,-1,80
 627 823 627 823 607 853 c 128,-1,81
 587 883 587 883 553.5 900.5 c 128,-1,82
 520 918 520 918 469 918 c 256,83,84
 418 918 418 918 384.5 900.5 c 128,-1,85
 351 883 351 883 332 853 c 128,-1,86
 313 823 313 823 305.5 782 c 128,-1,87
 298 741 298 741 298 694 c 256,88,89
 298 647 298 647 306 605.5 c 128,-1,90
 314 564 314 564 333.5 532.5 c 128,-1,91
 353 501 353 501 387 482.5 c 128,-1,92
 421 464 421 464 473 464 c 0,73,74
275 16 m 1,93,94
 268 -3 268 -3 261 -36.5 c 128,-1,95
 254 -70 254 -70 254 -126 c 0,96,97
 254 -187 254 -187 274.5 -230.5 c 128,-1,98
 295 -274 295 -274 330.5 -301.5 c 128,-1,99
 366 -329 366 -329 413.5 -342 c 128,-1,100
 461 -355 461 -355 515 -355 c 0,101,102
 542 -355 542 -355 576.5 -351 c 128,-1,103
 611 -347 611 -347 647 -337.5 c 128,-1,104
 683 -328 683 -328 718 -312 c 128,-1,105
 753 -296 753 -296 780.5 -272 c 128,-1,106
 808 -248 808 -248 825 -215.5 c 128,-1,107
 842 -183 842 -183 842 -139 c 0,108,109
 842 -99 842 -99 826 -72.5 c 128,-1,110
 810 -46 810 -46 782.5 -29.5 c 128,-1,111
 755 -13 755 -13 718 -6 c 128,-1,112
 681 1 681 1 639 1 c 2,113,-1
 372 1 l 1,114,115
 319 2 319 2 275 16 c 1,93,94
EndSplineSet
EndChar

StartChar: h
Encoding: 104 104 74
Width: 1192
GlyphClass: 2
Flags: W
LayerCount: 2
Fore
SplineSet
50 41 m 0,0,1
 50 57 50 57 56.5 66.5 c 128,-1,2
 63 76 63 76 83 78 c 0,3,4
 101 80 101 80 121.5 84 c 128,-1,5
 142 88 142 88 159.5 95.5 c 128,-1,6
 177 103 177 103 188 114 c 128,-1,7
 199 125 199 125 199 142 c 2,8,-1
 199 1329 l 2,9,10
 199 1375 199 1375 183.5 1398.5 c 128,-1,11
 168 1422 168 1422 145 1432.5 c 128,-1,12
 122 1443 122 1443 96 1446 c 128,-1,13
 70 1449 70 1449 50 1454 c 1,14,15
 39 1459 39 1459 32.5 1467 c 128,-1,16
 26 1475 26 1475 26 1494 c 0,17,18
 26 1506 26 1506 32 1521.5 c 128,-1,19
 38 1537 38 1537 50 1538 c 0,20,21
 100 1541 100 1541 146.5 1543 c 128,-1,22
 193 1545 193 1545 233.5 1546 c 128,-1,23
 274 1547 274 1547 306.5 1547.5 c 128,-1,24
 339 1548 339 1548 360 1548 c 0,25,26
 368 1548 368 1548 378 1540 c 128,-1,27
 388 1532 388 1532 390 1508 c 1,28,-1
 390 1104 l 1,29,-1
 380 845 l 1,30,31
 393 858 393 858 425.5 886 c 128,-1,32
 458 914 458 914 504 942.5 c 128,-1,33
 550 971 550 971 606.5 992.5 c 128,-1,34
 663 1014 663 1014 724 1014 c 0,35,36
 778 1014 778 1014 828 1004.5 c 128,-1,37
 878 995 878 995 916.5 968 c 128,-1,38
 955 941 955 941 977.5 892.5 c 128,-1,39
 1000 844 1000 844 1000 766 c 2,40,-1
 1000 175 l 2,41,42
 1000 139 1000 139 1014.5 120.5 c 128,-1,43
 1029 102 1029 102 1050 93.5 c 128,-1,44
 1071 85 1071 85 1094.5 83 c 128,-1,45
 1118 81 1118 81 1137 78 c 0,46,47
 1154 76 1154 76 1162 69.5 c 128,-1,48
 1170 63 1170 63 1170 41 c 0,49,50
 1170 30 1170 30 1161.5 15 c 128,-1,51
 1153 0 1153 0 1136 0 c 2,52,-1
 709 0 l 2,53,54
 692 0 692 0 683.5 15 c 128,-1,55
 675 30 675 30 675 41 c 0,56,57
 675 57 675 57 680.5 66.5 c 128,-1,58
 686 76 686 76 706 78 c 0,59,60
 722 79 722 79 739.5 84 c 128,-1,61
 757 89 757 89 772 97 c 128,-1,62
 787 105 787 105 797 116.5 c 128,-1,63
 807 128 807 128 807 142 c 2,64,-1
 807 785 l 2,65,66
 807 798 807 798 802.5 817 c 128,-1,67
 798 836 798 836 784 853.5 c 128,-1,68
 770 871 770 871 743.5 883.5 c 128,-1,69
 717 896 717 896 673 896 c 0,70,71
 626 896 626 896 583.5 883.5 c 128,-1,72
 541 871 541 871 505 852.5 c 128,-1,73
 469 834 469 834 440 812 c 128,-1,74
 411 790 411 790 390 771 c 1,75,-1
 390 175 l 2,76,77
 390 143 390 143 400 124.5 c 128,-1,78
 410 106 410 106 425.5 96 c 128,-1,79
 441 86 441 86 460 83 c 128,-1,80
 479 80 479 80 497 78 c 0,81,82
 518 76 518 76 525.5 70 c 128,-1,83
 533 64 533 64 533 41 c 0,84,85
 533 30 533 30 524.5 15 c 128,-1,86
 516 0 516 0 499 0 c 2,87,-1
 84 0 l 2,88,89
 67 0 67 0 58.5 15 c 128,-1,90
 50 30 50 30 50 41 c 0,0,1
EndSplineSet
EndChar

StartChar: k
Encoding: 107 107 77
Width: 1097
GlyphClass: 2
Flags: W
LayerCount: 2
Fore
SplineSet
50 41 m 0,0,1
 50 57 50 57 56.5 66.5 c 128,-1,2
 63 76 63 76 83 78 c 0,3,4
 101 80 101 80 121.5 84 c 128,-1,5
 142 88 142 88 159.5 95.5 c 128,-1,6
 177 103 177 103 188 114 c 128,-1,7
 199 125 199 125 199 142 c 2,8,-1
 199 1329 l 2,9,10
 199 1375 199 1375 183.5 1398.5 c 128,-1,11
 168 1422 168 1422 145 1432.5 c 128,-1,12
 122 1443 122 1443 96 1446 c 128,-1,13
 70 1449 70 1449 50 1454 c 1,14,15
 39 1459 39 1459 32.5 1467 c 128,-1,16
 26 1475 26 1475 26 1494 c 0,17,18
 26 1506 26 1506 32 1521.5 c 128,-1,19
 38 1537 38 1537 50 1538 c 0,20,21
 100 1541 100 1541 146.5 1543 c 128,-1,22
 193 1545 193 1545 233.5 1546 c 128,-1,23
 274 1547 274 1547 306.5 1547.5 c 128,-1,24
 339 1548 339 1548 360 1548 c 0,25,26
 368 1548 368 1548 379 1540 c 128,-1,27
 390 1532 390 1532 390 1508 c 2,28,-1
 390 520 l 1,29,-1
 715 842 l 2,30,31
 734 861 734 861 728.5 873 c 128,-1,32
 723 885 723 885 704.5 891.5 c 128,-1,33
 686 898 686 898 659 901 c 128,-1,34
 632 904 632 904 609 906 c 0,35,36
 589 908 589 908 583.5 920.5 c 128,-1,37
 578 933 578 933 578 949 c 0,38,39
 578 955 578 955 580 962.5 c 128,-1,40
 582 970 582 970 586.5 977 c 128,-1,41
 591 984 591 984 597 989 c 128,-1,42
 603 994 603 994 612 994 c 2,43,-1
 1019 994 l 2,44,45
 1028 994 1028 994 1034 989 c 128,-1,46
 1040 984 1040 984 1044.5 977 c 128,-1,47
 1049 970 1049 970 1051 962.5 c 128,-1,48
 1053 955 1053 955 1053 949 c 0,49,50
 1053 931 1053 931 1045 918.5 c 128,-1,51
 1037 906 1037 906 1020 906 c 0,52,53
 996 906 996 906 970 898.5 c 128,-1,54
 944 891 944 891 919.5 878.5 c 128,-1,55
 895 866 895 866 873 850.5 c 128,-1,56
 851 835 851 835 833 819 c 2,57,-1
 608 616 l 1,58,59
 643 590 643 590 683.5 537 c 128,-1,60
 724 484 724 484 767.5 420.5 c 128,-1,61
 811 357 811 357 855.5 291.5 c 128,-1,62
 900 226 900 226 944 175 c 0,63,64
 1019 88 1019 88 1092 78 c 0,65,66
 1109 76 1109 76 1117 69.5 c 128,-1,67
 1125 63 1125 63 1125 41 c 0,68,69
 1125 30 1125 30 1116.5 15 c 128,-1,70
 1108 0 1108 0 1091 0 c 2,71,-1
 809 0 l 1,72,73
 789 34 789 34 764 77.5 c 128,-1,74
 739 121 739 121 710.5 168.5 c 128,-1,75
 682 216 682 216 651.5 264 c 128,-1,76
 621 312 621 312 590.5 356 c 128,-1,77
 560 400 560 400 530.5 436.5 c 128,-1,78
 501 473 501 473 475 497 c 1,79,-1
 390 420 l 1,80,-1
 390 175 l 2,81,82
 390 143 390 143 400 124.5 c 128,-1,83
 410 106 410 106 425.5 96 c 128,-1,84
 441 86 441 86 460 83 c 128,-1,85
 479 80 479 80 497 78 c 0,86,87
 518 76 518 76 525.5 70 c 128,-1,88
 533 64 533 64 533 41 c 0,89,90
 533 30 533 30 524.5 15 c 128,-1,91
 516 0 516 0 499 0 c 2,92,-1
 84 0 l 2,93,94
 67 0 67 0 58.5 15 c 128,-1,95
 50 30 50 30 50 41 c 0,0,1
EndSplineSet
EndChar

StartChar: l
Encoding: 108 108 78
Width: 586
GlyphClass: 2
Flags: W
LayerCount: 2
Fore
SplineSet
48 41 m 0,0,1
 48 57 48 57 54.5 66.5 c 128,-1,2
 61 76 61 76 81 78 c 0,3,4
 99 80 99 80 119.5 84 c 128,-1,5
 140 88 140 88 157 95.5 c 128,-1,6
 174 103 174 103 185 114 c 128,-1,7
 196 125 196 125 196 142 c 2,8,-1
 197 1329 l 2,9,10
 197 1375 197 1375 179.5 1398 c 128,-1,11
 162 1421 162 1421 137.5 1431 c 128,-1,12
 113 1441 113 1441 85.5 1444 c 128,-1,13
 58 1447 58 1447 38 1454 c 0,14,15
 27 1458 27 1458 20.5 1466.5 c 128,-1,16
 14 1475 14 1475 14 1494 c 0,17,18
 14 1506 14 1506 20 1521.5 c 128,-1,19
 26 1537 26 1537 38 1538 c 0,20,21
 88 1541 88 1541 136 1543 c 128,-1,22
 184 1545 184 1545 226.5 1546 c 128,-1,23
 269 1547 269 1547 303 1547.5 c 128,-1,24
 337 1548 337 1548 358 1548 c 0,25,26
 366 1548 366 1548 377 1540 c 128,-1,27
 388 1532 388 1532 388 1508 c 2,28,-1
 388 175 l 2,29,30
 388 143 388 143 400 124.5 c 128,-1,31
 412 106 412 106 430.5 96 c 128,-1,32
 449 86 449 86 470.5 83 c 128,-1,33
 492 80 492 80 510 78 c 0,34,35
 531 76 531 76 538.5 70 c 128,-1,36
 546 64 546 64 546 41 c 0,37,38
 546 30 546 30 537.5 15 c 128,-1,39
 529 0 529 0 512 0 c 2,40,-1
 82 0 l 2,41,42
 65 0 65 0 56.5 15 c 128,-1,43
 48 30 48 30 48 41 c 0,0,1
EndSplineSet
EndChar

StartChar: m
Encoding: 109 109 79
Width: 1804
GlyphClass: 2
Flags: W
LayerCount: 2
Fore
SplineSet
68 41 m 0,0,1
 68 57 68 57 74.5 66.5 c 128,-1,2
 81 76 81 76 101 78 c 0,3,4
 119 80 119 80 139.5 84 c 128,-1,5
 160 88 160 88 177.5 95.5 c 128,-1,6
 195 103 195 103 206 114 c 128,-1,7
 217 125 217 125 217 142 c 2,8,-1
 217 778 l 2,9,10
 217 824 217 824 200.5 847 c 128,-1,11
 184 870 184 870 161 880.5 c 128,-1,12
 138 891 138 891 112 894 c 128,-1,13
 86 897 86 897 68 903 c 0,14,15
 57 907 57 907 50.5 915.5 c 128,-1,16
 44 924 44 924 44 943 c 0,17,18
 44 955 44 955 50 970.5 c 128,-1,19
 56 986 56 986 68 987 c 0,20,21
 116 990 116 990 161.5 992 c 128,-1,22
 207 994 207 994 246 995 c 128,-1,23
 285 996 285 996 316 996.5 c 128,-1,24
 347 997 347 997 368 997 c 0,25,26
 376 997 376 997 386 989 c 128,-1,27
 396 981 396 981 398 957 c 1,28,-1
 398 845 l 1,29,30
 411 858 411 858 442 886 c 128,-1,31
 473 914 473 914 516.5 942.5 c 128,-1,32
 560 971 560 971 615 992.5 c 128,-1,33
 670 1014 670 1014 731 1014 c 0,34,35
 777 1014 777 1014 820.5 1007.5 c 128,-1,36
 864 1001 864 1001 900 982.5 c 128,-1,37
 936 964 936 964 962 932 c 128,-1,38
 988 900 988 900 1000 849 c 1,39,40
 1015 865 1015 865 1046.5 893 c 128,-1,41
 1078 921 1078 921 1122.5 948 c 128,-1,42
 1167 975 1167 975 1221 994.5 c 128,-1,43
 1275 1014 1275 1014 1335 1014 c 0,44,45
 1389 1014 1389 1014 1439 1004.5 c 128,-1,46
 1489 995 1489 995 1527.5 968 c 128,-1,47
 1566 941 1566 941 1588.5 892.5 c 128,-1,48
 1611 844 1611 844 1611 766 c 2,49,-1
 1611 175 l 2,50,51
 1611 139 1611 139 1625.5 120.5 c 128,-1,52
 1640 102 1640 102 1661 93.5 c 128,-1,53
 1682 85 1682 85 1705.5 83 c 128,-1,54
 1729 81 1729 81 1748 78 c 0,55,56
 1765 76 1765 76 1773 69.5 c 128,-1,57
 1781 63 1781 63 1781 41 c 0,58,59
 1781 30 1781 30 1772.5 15 c 128,-1,60
 1764 0 1764 0 1747 0 c 2,61,-1
 1315 0 l 2,62,63
 1298 0 1298 0 1289.5 15 c 128,-1,64
 1281 30 1281 30 1281 41 c 0,65,66
 1281 57 1281 57 1286.5 66.5 c 128,-1,67
 1292 76 1292 76 1312 78 c 0,68,69
 1328 79 1328 79 1346.5 84 c 128,-1,70
 1365 89 1365 89 1381 97 c 128,-1,71
 1397 105 1397 105 1407.5 116.5 c 128,-1,72
 1418 128 1418 128 1418 142 c 2,73,-1
 1418 785 l 2,74,75
 1418 798 1418 798 1413.5 817 c 128,-1,76
 1409 836 1409 836 1395 853.5 c 128,-1,77
 1381 871 1381 871 1354.5 883.5 c 128,-1,78
 1328 896 1328 896 1284 896 c 0,79,80
 1237 896 1237 896 1196 883.5 c 128,-1,81
 1155 871 1155 871 1120.5 852.5 c 128,-1,82
 1086 834 1086 834 1058 812 c 128,-1,83
 1030 790 1030 790 1009 771 c 1,84,-1
 1009 175 l 2,85,86
 1009 139 1009 139 1022 120.5 c 128,-1,87
 1035 102 1035 102 1054 93.5 c 128,-1,88
 1073 85 1073 85 1095 83 c 128,-1,89
 1117 81 1117 81 1136 78 c 0,90,91
 1153 76 1153 76 1161 69.5 c 128,-1,92
 1169 63 1169 63 1169 41 c 0,93,94
 1169 30 1169 30 1160.5 15 c 128,-1,95
 1152 0 1152 0 1135 0 c 2,96,-1
 713 0 l 2,97,98
 696 0 696 0 687.5 15 c 128,-1,99
 679 30 679 30 679 41 c 0,100,101
 679 57 679 57 684.5 66.5 c 128,-1,102
 690 76 690 76 710 78 c 0,103,104
 726 79 726 79 744.5 84 c 128,-1,105
 763 89 763 89 779 97 c 128,-1,106
 795 105 795 105 805.5 116.5 c 128,-1,107
 816 128 816 128 816 142 c 2,108,-1
 816 785 l 2,109,110
 816 798 816 798 811.5 817 c 128,-1,111
 807 836 807 836 792.5 853.5 c 128,-1,112
 778 871 778 871 751 883.5 c 128,-1,113
 724 896 724 896 680 896 c 0,114,115
 633 896 633 896 592.5 883.5 c 128,-1,116
 552 871 552 871 518 852.5 c 128,-1,117
 484 834 484 834 456.5 812 c 128,-1,118
 429 790 429 790 408 771 c 1,119,-1
 408 175 l 2,120,121
 408 143 408 143 418.5 124.5 c 128,-1,122
 429 106 429 106 445.5 96 c 128,-1,123
 462 86 462 86 482 83 c 128,-1,124
 502 80 502 80 520 78 c 0,125,126
 541 76 541 76 548.5 70 c 128,-1,127
 556 64 556 64 556 41 c 0,128,129
 556 30 556 30 547.5 15 c 128,-1,130
 539 0 539 0 522 0 c 2,131,-1
 102 0 l 2,132,133
 85 0 85 0 76.5 15 c 128,-1,134
 68 30 68 30 68 41 c 0,0,1
EndSplineSet
EndChar

StartChar: n
Encoding: 110 110 80
Width: 1210
GlyphClass: 2
Flags: W
LayerCount: 2
Fore
SplineSet
68 41 m 0,0,1
 68 57 68 57 74.5 66.5 c 128,-1,2
 81 76 81 76 101 78 c 0,3,4
 119 80 119 80 139.5 84 c 128,-1,5
 160 88 160 88 177.5 95.5 c 128,-1,6
 195 103 195 103 206 114 c 128,-1,7
 217 125 217 125 217 142 c 2,8,-1
 217 778 l 2,9,10
 217 824 217 824 200.5 847.5 c 128,-1,11
 184 871 184 871 161 881.5 c 128,-1,12
 138 892 138 892 112.5 895 c 128,-1,13
 87 898 87 898 68 903 c 1,14,15
 57 908 57 908 50.5 916 c 128,-1,16
 44 924 44 924 44 943 c 0,17,18
 44 955 44 955 50 970.5 c 128,-1,19
 56 986 56 986 68 987 c 0,20,21
 116 990 116 990 161.5 992 c 128,-1,22
 207 994 207 994 246 995 c 128,-1,23
 285 996 285 996 316 996.5 c 128,-1,24
 347 997 347 997 368 997 c 0,25,26
 376 997 376 997 387 989 c 128,-1,27
 398 981 398 981 398 957 c 2,28,-1
 398 845 l 1,29,30
 411 858 411 858 443.5 886 c 128,-1,31
 476 914 476 914 522 942.5 c 128,-1,32
 568 971 568 971 624.5 992.5 c 128,-1,33
 681 1014 681 1014 742 1014 c 0,34,35
 796 1014 796 1014 846 1004.5 c 128,-1,36
 896 995 896 995 934.5 968 c 128,-1,37
 973 941 973 941 995.5 892.5 c 128,-1,38
 1018 844 1018 844 1018 766 c 2,39,-1
 1018 175 l 2,40,41
 1018 139 1018 139 1032.5 120.5 c 128,-1,42
 1047 102 1047 102 1068 93.5 c 128,-1,43
 1089 85 1089 85 1112.5 83 c 128,-1,44
 1136 81 1136 81 1155 78 c 0,45,46
 1172 76 1172 76 1180 69.5 c 128,-1,47
 1188 63 1188 63 1188 41 c 0,48,49
 1188 30 1188 30 1179.5 15 c 128,-1,50
 1171 0 1171 0 1154 0 c 2,51,-1
 722 0 l 2,52,53
 705 0 705 0 696.5 15 c 128,-1,54
 688 30 688 30 688 41 c 0,55,56
 688 57 688 57 693.5 66.5 c 128,-1,57
 699 76 699 76 719 78 c 0,58,59
 735 79 735 79 753.5 84 c 128,-1,60
 772 89 772 89 788 97 c 128,-1,61
 804 105 804 105 814.5 116.5 c 128,-1,62
 825 128 825 128 825 142 c 2,63,-1
 825 785 l 2,64,65
 825 798 825 798 820.5 817 c 128,-1,66
 816 836 816 836 802 853.5 c 128,-1,67
 788 871 788 871 761.5 883.5 c 128,-1,68
 735 896 735 896 691 896 c 0,69,70
 644 896 644 896 601.5 883.5 c 128,-1,71
 559 871 559 871 523 852.5 c 128,-1,72
 487 834 487 834 458 812 c 128,-1,73
 429 790 429 790 408 771 c 1,74,-1
 408 175 l 2,75,76
 408 143 408 143 418.5 124.5 c 128,-1,77
 429 106 429 106 445.5 96 c 128,-1,78
 462 86 462 86 482 83 c 128,-1,79
 502 80 502 80 520 78 c 0,80,81
 541 76 541 76 548.5 70 c 128,-1,82
 556 64 556 64 556 41 c 0,83,84
 556 30 556 30 547.5 15 c 128,-1,85
 539 0 539 0 522 0 c 2,86,-1
 102 0 l 2,87,88
 85 0 85 0 76.5 15 c 128,-1,89
 68 30 68 30 68 41 c 0,0,1
EndSplineSet
EndChar

StartChar: o
Encoding: 111 111 81
Width: 1104
GlyphClass: 2
Flags: W
LayerCount: 2
Fore
SplineSet
77 492 m 256,0,1
 77 600 77 600 110 695 c 128,-1,2
 143 790 143 790 204.5 861 c 128,-1,3
 266 932 266 932 355 973 c 128,-1,4
 444 1014 444 1014 557 1014 c 0,5,6
 669 1014 669 1014 756.5 973 c 128,-1,7
 844 932 844 932 904 861 c 128,-1,8
 964 790 964 790 995.5 695 c 128,-1,9
 1027 600 1027 600 1027 492 c 256,10,11
 1027 384 1027 384 994.5 289 c 128,-1,12
 962 194 962 194 901 123.5 c 128,-1,13
 840 53 840 53 751 12 c 128,-1,14
 662 -29 662 -29 550 -29 c 0,15,16
 437 -29 437 -29 349.5 12 c 128,-1,17
 262 53 262 53 201 123.5 c 128,-1,18
 140 194 140 194 108.5 289 c 128,-1,19
 77 384 77 384 77 492 c 256,0,1
553 59 m 0,20,21
 628 59 628 59 677 89 c 128,-1,22
 726 119 726 119 754.5 175 c 128,-1,23
 783 231 783 231 794 311 c 128,-1,24
 805 391 805 391 805 492 c 0,25,26
 805 592 805 592 793.5 672.5 c 128,-1,27
 782 753 782 753 752.5 809.5 c 128,-1,28
 723 866 723 866 673.5 896 c 128,-1,29
 624 926 624 926 549 926 c 0,30,31
 473 926 473 926 424.5 895.5 c 128,-1,32
 376 865 376 865 347.5 809 c 128,-1,33
 319 753 319 753 308 672.5 c 128,-1,34
 297 592 297 592 297 492 c 0,35,36
 297 391 297 391 308.5 311 c 128,-1,37
 320 231 320 231 349 175 c 128,-1,38
 378 119 378 119 427.5 89 c 128,-1,39
 477 59 477 59 553 59 c 0,20,21
EndSplineSet
Substitution2: "Single Substitution lookup 12 subtable" ordmasculine
Substitution2: "'aalt' Access All Alternates in Latin lookup 0 subtable" ordmasculine
EndChar

StartChar: p
Encoding: 112 112 82
Width: 1170
GlyphClass: 2
Flags: W
LayerCount: 2
Fore
SplineSet
199 778 m 2,0,1
 199 824 199 824 182.5 847 c 128,-1,2
 166 870 166 870 143 880.5 c 128,-1,3
 120 891 120 891 94 894 c 128,-1,4
 68 897 68 897 50 903 c 0,5,6
 39 907 39 907 32.5 915.5 c 128,-1,7
 26 924 26 924 26 943 c 0,8,9
 26 955 26 955 32 970.5 c 128,-1,10
 38 986 38 986 50 987 c 0,11,12
 98 990 98 990 143.5 992 c 128,-1,13
 189 994 189 994 228 995 c 128,-1,14
 267 996 267 996 298 996.5 c 128,-1,15
 329 997 329 997 350 997 c 0,16,17
 358 997 358 997 369 989 c 128,-1,18
 380 981 380 981 380 957 c 2,19,-1
 380 893 l 1,20,21
 405 922 405 922 439 944.5 c 128,-1,22
 473 967 473 967 510.5 982.5 c 128,-1,23
 548 998 548 998 587 1006 c 128,-1,24
 626 1014 626 1014 662 1014 c 0,25,26
 780 1014 780 1014 861.5 970.5 c 128,-1,27
 943 927 943 927 994 854.5 c 128,-1,28
 1045 782 1045 782 1067.5 687.5 c 128,-1,29
 1090 593 1090 593 1090 492 c 256,30,31
 1090 391 1090 391 1064 297 c 128,-1,32
 1038 203 1038 203 983.5 130 c 128,-1,33
 929 57 929 57 843.5 13.5 c 128,-1,34
 758 -30 758 -30 640 -30 c 0,35,36
 561 -30 561 -30 493 -14 c 128,-1,37
 425 2 425 2 380 43 c 1,38,-1
 390 -108 l 1,39,-1
 390 -302 l 2,40,41
 390 -319 390 -319 406.5 -330 c 128,-1,42
 423 -341 423 -341 448.5 -348 c 128,-1,43
 474 -355 474 -355 505 -359 c 128,-1,44
 536 -363 536 -363 566 -366 c 0,45,46
 586 -368 586 -368 592.5 -377.5 c 128,-1,47
 599 -387 599 -387 599 -403 c 0,48,49
 599 -414 599 -414 590.5 -429 c 128,-1,50
 582 -444 582 -444 565 -444 c 2,51,-1
 75 -444 l 2,52,53
 58 -444 58 -444 49.5 -429 c 128,-1,54
 41 -414 41 -414 41 -403 c 0,55,56
 41 -380 41 -380 48.5 -374 c 128,-1,57
 56 -368 56 -368 77 -366 c 0,58,59
 95 -364 95 -364 116.5 -361 c 128,-1,60
 138 -358 138 -358 156.5 -348 c 128,-1,61
 175 -338 175 -338 187 -319.5 c 128,-1,62
 199 -301 199 -301 199 -269 c 2,63,-1
 199 778 l 2,0,1
390 157 m 1,64,65
 446 65 446 65 603 65 c 0,66,67
 687 65 687 65 740 98 c 128,-1,68
 793 131 793 131 824 188.5 c 128,-1,69
 855 246 855 246 866.5 324 c 128,-1,70
 878 402 878 402 878 492 c 256,71,72
 878 582 878 582 866.5 660 c 128,-1,73
 855 738 855 738 824.5 795 c 128,-1,74
 794 852 794 852 741 885 c 128,-1,75
 688 918 688 918 604 918 c 0,76,77
 576 918 576 918 545.5 910 c 128,-1,78
 515 902 515 902 486.5 888 c 128,-1,79
 458 874 458 874 432.5 856 c 128,-1,80
 407 838 407 838 390 817 c 1,81,-1
 390 157 l 1,64,65
EndSplineSet
EndChar

StartChar: q
Encoding: 113 113 83
Width: 1146
GlyphClass: 2
Flags: W
LayerCount: 2
Fore
SplineSet
80 491 m 256,0,1
 80 592 80 592 106 686.5 c 128,-1,2
 132 781 132 781 186.5 853.5 c 128,-1,3
 241 926 241 926 326 970 c 128,-1,4
 411 1014 411 1014 530 1014 c 0,5,6
 621 1014 621 1014 688.5 992 c 128,-1,7
 756 970 756 970 796 932 c 1,8,9
 831 935 831 935 855.5 953.5 c 128,-1,10
 880 972 880 972 912 1008 c 0,11,12
 929 1028 929 1028 948 1028 c 0,13,14
 960 1028 960 1028 968 1019.5 c 128,-1,15
 976 1011 976 1011 976 994 c 2,16,-1
 976 -275 l 2,17,18
 976 -305 976 -305 987.5 -322.5 c 128,-1,19
 999 -340 999 -340 1017 -349 c 128,-1,20
 1035 -358 1035 -358 1056.5 -361 c 128,-1,21
 1078 -364 1078 -364 1098 -366 c 0,22,23
 1119 -368 1119 -368 1126.5 -374 c 128,-1,24
 1134 -380 1134 -380 1134 -403 c 0,25,26
 1134 -414 1134 -414 1125.5 -429 c 128,-1,27
 1117 -444 1117 -444 1100 -444 c 2,28,-1
 635 -444 l 2,29,30
 618 -444 618 -444 609.5 -429 c 128,-1,31
 601 -414 601 -414 601 -403 c 0,32,33
 601 -387 601 -387 607.5 -377.5 c 128,-1,34
 614 -368 614 -368 634 -366 c 0,35,36
 662 -363 662 -363 689 -359 c 128,-1,37
 716 -355 716 -355 737.5 -348 c 128,-1,38
 759 -341 759 -341 772 -330 c 128,-1,39
 785 -319 785 -319 785 -302 c 2,40,-1
 785 -29 l 1,41,-1
 795 88 l 1,42,43
 769 58 769 58 735 36 c 128,-1,44
 701 14 701 14 663 -0.5 c 128,-1,45
 625 -15 625 -15 585 -22.5 c 128,-1,46
 545 -30 545 -30 508 -30 c 0,47,48
 390 -30 390 -30 308.5 13.5 c 128,-1,49
 227 57 227 57 176 129.5 c 128,-1,50
 125 202 125 202 102.5 296 c 128,-1,51
 80 390 80 390 80 491 c 256,0,1
292 491 m 256,52,53
 292 401 292 401 304 323 c 128,-1,54
 316 245 316 245 347.5 188 c 128,-1,55
 379 131 379 131 433 98 c 128,-1,56
 487 65 487 65 571 65 c 0,57,58
 599 65 599 65 630 73.5 c 128,-1,59
 661 82 661 82 690 96.5 c 128,-1,60
 719 111 719 111 743.5 130.5 c 128,-1,61
 768 150 768 150 785 171 c 1,62,-1
 785 817 l 1,63,64
 729 918 729 918 567 918 c 0,65,66
 483 918 483 918 430 885 c 128,-1,67
 377 852 377 852 346 794.5 c 128,-1,68
 315 737 315 737 303.5 659 c 128,-1,69
 292 581 292 581 292 491 c 256,52,53
EndSplineSet
EndChar

StartChar: r
Encoding: 114 114 84
Width: 839
GlyphClass: 2
Flags: W
LayerCount: 2
Fore
SplineSet
78 41 m 0,0,1
 78 57 78 57 84.5 66.5 c 128,-1,2
 91 76 91 76 111 78 c 256,3,4
 131 80 131 80 152 84 c 128,-1,5
 173 88 173 88 189.5 95.5 c 128,-1,6
 206 103 206 103 216.5 114 c 128,-1,7
 227 125 227 125 227 142 c 2,8,-1
 227 778 l 2,9,10
 227 824 227 824 211 846.5 c 128,-1,11
 195 869 195 869 172 878.5 c 128,-1,12
 149 888 149 888 123.5 890 c 128,-1,13
 98 892 98 892 78 899 c 0,14,15
 67 903 67 903 60.5 911.5 c 128,-1,16
 54 920 54 920 54 939 c 0,17,18
 54 951 54 951 60.5 966.5 c 128,-1,19
 67 982 67 982 78 983 c 0,20,21
 178 989 178 989 256.5 992.5 c 128,-1,22
 335 996 335 996 378 997 c 0,23,24
 386 997 386 997 397 989 c 128,-1,25
 408 981 408 981 408 957 c 2,26,-1
 408 834 l 1,27,28
 419 854 419 854 442 885 c 128,-1,29
 465 916 465 916 498.5 944.5 c 128,-1,30
 532 973 532 973 575.5 993.5 c 128,-1,31
 619 1014 619 1014 673 1014 c 0,32,33
 721 1014 721 1014 750 1000.5 c 128,-1,34
 779 987 779 987 794 967 c 128,-1,35
 809 947 809 947 814 924 c 128,-1,36
 819 901 819 901 819 883 c 0,37,38
 819 826 819 826 787.5 798 c 128,-1,39
 756 770 756 770 705 771 c 0,40,41
 692 771 692 771 687 775 c 1,42,43
 678 780 678 780 667 797.5 c 128,-1,44
 656 815 656 815 645.5 836 c 128,-1,45
 635 857 635 857 625 877 c 128,-1,46
 615 897 615 897 609 908 c 1,47,48
 580 903 580 903 551.5 887 c 128,-1,49
 523 871 523 871 497.5 846.5 c 128,-1,50
 472 822 472 822 451.5 791 c 128,-1,51
 431 760 431 760 418 726 c 1,52,-1
 418 175 l 2,53,54
 418 143 418 143 435 124.5 c 128,-1,55
 452 106 452 106 478 96.5 c 128,-1,56
 504 87 504 87 534 83.5 c 128,-1,57
 564 80 564 80 590 78 c 0,58,59
 611 76 611 76 618.5 70 c 128,-1,60
 626 64 626 64 626 41 c 0,61,62
 626 30 626 30 617.5 15 c 128,-1,63
 609 0 609 0 592 0 c 2,64,-1
 112 0 l 2,65,66
 95 0 95 0 86.5 15 c 128,-1,67
 78 30 78 30 78 41 c 0,0,1
EndSplineSet
EndChar

StartChar: s
Encoding: 115 115 85
Width: 885
GlyphClass: 2
Flags: W
LayerCount: 2
Fore
SplineSet
108 44 m 0,0,1
 109 84 109 84 108 124.5 c 128,-1,2
 107 165 107 165 105.5 201 c 128,-1,3
 104 237 104 237 101.5 266.5 c 128,-1,4
 99 296 99 296 98 316 c 0,5,6
 96 339 96 339 107 349 c 128,-1,7
 118 359 118 359 131 359 c 0,8,9
 142 359 142 359 151.5 353.5 c 128,-1,10
 161 348 161 348 164 337 c 0,11,12
 167 328 167 328 170 315 c 128,-1,13
 173 302 173 302 179 284 c 128,-1,14
 185 266 185 266 196 242.5 c 128,-1,15
 207 219 207 219 227 188 c 1,16,17
 245 153 245 153 274 127.5 c 128,-1,18
 303 102 303 102 335.5 86 c 128,-1,19
 368 70 368 70 400.5 62.5 c 128,-1,20
 433 55 433 55 458 55 c 0,21,22
 491 55 491 55 526.5 61.5 c 128,-1,23
 562 68 562 68 592 86.5 c 128,-1,24
 622 105 622 105 641.5 137.5 c 128,-1,25
 661 170 661 170 661 222 c 0,26,27
 661 258 661 258 643.5 286 c 128,-1,28
 626 314 626 314 596 336.5 c 128,-1,29
 566 359 566 359 527 377.5 c 128,-1,30
 488 396 488 396 445 412 c 0,31,32
 389 433 389 433 332 459.5 c 128,-1,33
 275 486 275 486 229 522.5 c 128,-1,34
 183 559 183 559 154 609.5 c 128,-1,35
 125 660 125 660 125 729 c 0,36,37
 125 811 125 811 159 865.5 c 128,-1,38
 193 920 193 920 245.5 953 c 128,-1,39
 298 986 298 986 360.5 1000 c 128,-1,40
 423 1014 423 1014 480 1014 c 0,41,42
 519 1014 519 1014 548.5 1009 c 128,-1,43
 578 1004 578 1004 599.5 997.5 c 128,-1,44
 621 991 621 991 635.5 985 c 128,-1,45
 650 979 650 979 660 977 c 0,46,47
 678 974 678 974 687.5 975.5 c 128,-1,48
 697 977 697 977 702 981.5 c 128,-1,49
 707 986 707 986 709 992 c 128,-1,50
 711 998 711 998 714 1005 c 0,51,52
 719 1016 719 1016 728 1021.5 c 128,-1,53
 737 1027 737 1027 747 1027 c 0,54,55
 758 1027 758 1027 767 1018.5 c 128,-1,56
 776 1010 776 1010 776 994 c 0,57,58
 776 987 776 987 775 960 c 128,-1,59
 774 933 774 933 773.5 898 c 128,-1,60
 773 863 773 863 773.5 825 c 128,-1,61
 774 787 774 787 778 757 c 0,62,63
 782 728 782 728 773 717.5 c 128,-1,64
 764 707 764 707 752 706 c 1,65,66
 729 706 729 706 722 722 c 0,67,68
 709 752 709 752 692 788 c 128,-1,69
 675 824 675 824 647 855 c 128,-1,70
 619 886 619 886 576.5 907 c 128,-1,71
 534 928 534 928 470 928 c 0,72,73
 432 928 432 928 399 921.5 c 128,-1,74
 366 915 366 915 341 898.5 c 128,-1,75
 316 882 316 882 301.5 853 c 128,-1,76
 287 824 287 824 287 778 c 0,77,78
 287 742 287 742 309 714 c 128,-1,79
 331 686 331 686 366.5 662.5 c 128,-1,80
 402 639 402 639 447.5 618 c 128,-1,81
 493 597 493 597 541 576 c 0,82,83
 595 552 595 552 648.5 523 c 128,-1,84
 702 494 702 494 744 456.5 c 128,-1,85
 786 419 786 419 812 372 c 128,-1,86
 838 325 838 325 838 266 c 0,87,88
 838 196 838 196 807.5 141 c 128,-1,89
 777 86 777 86 725.5 48 c 128,-1,90
 674 10 674 10 605.5 -10 c 128,-1,91
 537 -30 537 -30 461 -30 c 0,92,93
 414 -30 414 -30 381 -21.5 c 128,-1,94
 348 -13 348 -13 320.5 -3 c 128,-1,95
 293 7 293 7 267 15.5 c 128,-1,96
 241 24 241 24 208 24 c 0,97,98
 193 24 193 24 178 16.5 c 128,-1,99
 163 9 163 9 146 9 c 256,100,101
 129 9 129 9 118.5 18 c 128,-1,102
 108 27 108 27 108 44 c 0,0,1
EndSplineSet
EndChar

StartChar: t
Encoding: 116 116 86
Width: 707
GlyphClass: 2
Flags: W
LayerCount: 2
Fore
SplineSet
189 892 m 1,0,-1
 54 892 l 2,1,2
 48 892 48 892 43.5 897.5 c 128,-1,3
 39 903 39 903 36 910.5 c 128,-1,4
 33 918 33 918 31.5 926.5 c 128,-1,5
 30 935 30 935 30 941 c 0,6,7
 30 960 30 960 36.5 969.5 c 128,-1,8
 43 979 43 979 54 984 c 1,9,10
 104 988 104 988 142 1003 c 128,-1,11
 180 1018 180 1018 209 1050.5 c 128,-1,12
 238 1083 238 1083 260.5 1135.5 c 128,-1,13
 283 1188 283 1188 303 1268 c 0,14,15
 305 1278 305 1278 311.5 1283 c 128,-1,16
 318 1288 318 1288 327 1289.5 c 128,-1,17
 336 1291 336 1291 345.5 1291 c 128,-1,18
 355 1291 355 1291 364 1291 c 0,19,20
 377 1291 377 1291 378.5 1282 c 128,-1,21
 380 1273 380 1273 380 1267 c 2,22,-1
 380 994 l 1,23,-1
 650 994 l 1,24,25
 662 993 662 993 668 982.5 c 128,-1,26
 674 972 674 972 674 960 c 0,27,28
 674 941 674 941 667.5 919 c 128,-1,29
 661 897 661 897 650 892 c 1,30,-1
 380 892 l 1,31,-1
 380 296 l 2,32,33
 380 232 380 232 389.5 192 c 128,-1,34
 399 152 399 152 414 129 c 128,-1,35
 429 106 429 106 448 97.5 c 128,-1,36
 467 89 467 89 486 89 c 0,37,38
 517 89 517 89 540.5 93 c 128,-1,39
 564 97 564 97 583.5 104 c 128,-1,40
 603 111 603 111 620 120 c 128,-1,41
 637 129 637 129 655 138 c 1,42,-1
 689 78 l 1,43,44
 677 64 677 64 649.5 45.5 c 128,-1,45
 622 27 622 27 587.5 10 c 128,-1,46
 553 -7 553 -7 515.5 -18.5 c 128,-1,47
 478 -30 478 -30 444 -30 c 0,48,49
 387 -30 387 -30 340.5 -19 c 128,-1,50
 294 -8 294 -8 260 20.5 c 128,-1,51
 226 49 226 49 207.5 98 c 128,-1,52
 189 147 189 147 189 223 c 2,53,-1
 189 892 l 1,0,-1
EndSplineSet
EndChar

StartChar: u
Encoding: 117 117 87
Width: 1178
GlyphClass: 2
Flags: W
LayerCount: 2
Fore
SplineSet
189 819 m 2,0,1
 189 851 189 851 178.5 869.5 c 128,-1,2
 168 888 168 888 152 898 c 128,-1,3
 136 908 136 908 116.5 911 c 128,-1,4
 97 914 97 914 79 916 c 0,5,6
 58 918 58 918 50.5 924 c 128,-1,7
 43 930 43 930 43 953 c 0,8,9
 43 964 43 964 51.5 979 c 128,-1,10
 60 994 60 994 77 994 c 2,11,-1
 345 994 l 2,12,13
 366 994 366 994 374 984 c 128,-1,14
 382 974 382 974 382 958 c 2,15,-1
 382 253 l 2,16,17
 382 225 382 225 386.5 199.5 c 128,-1,18
 391 174 391 174 405 155 c 128,-1,19
 419 136 419 136 445.5 124.5 c 128,-1,20
 472 113 472 113 516 113 c 0,21,22
 567 113 567 113 606 120 c 128,-1,23
 645 127 645 127 677 140.5 c 128,-1,24
 709 154 709 154 735.5 174 c 128,-1,25
 762 194 762 194 786 220 c 1,26,-1
 786 819 l 2,27,28
 786 851 786 851 771.5 869.5 c 128,-1,29
 757 888 757 888 733.5 897.5 c 128,-1,30
 710 907 710 907 681 910.5 c 128,-1,31
 652 914 652 914 623 916 c 0,32,33
 602 918 602 918 594.5 924 c 128,-1,34
 587 930 587 930 587 953 c 0,35,36
 587 964 587 964 595.5 979 c 128,-1,37
 604 994 604 994 621 994 c 2,38,-1
 940 994 l 2,39,40
 961 994 961 994 969 984 c 128,-1,41
 977 974 977 974 977 958 c 2,42,-1
 977 210 l 2,43,44
 977 157 977 157 987.5 122.5 c 128,-1,45
 998 88 998 88 1015 88 c 0,46,47
 1029 88 1029 88 1042 89.5 c 128,-1,48
 1055 91 1055 91 1073 96 c 0,49,50
 1085 99 1085 99 1093.5 92.5 c 128,-1,51
 1102 86 1102 86 1107 75.5 c 128,-1,52
 1112 65 1112 65 1112.5 53.5 c 128,-1,53
 1113 42 1113 42 1107 37 c 0,54,55
 1102 32 1102 32 1087 21.5 c 128,-1,56
 1072 11 1072 11 1048.5 0.5 c 128,-1,57
 1025 -10 1025 -10 992.5 -17.5 c 128,-1,58
 960 -25 960 -25 920 -25 c 0,59,60
 888 -25 888 -25 865.5 -9 c 128,-1,61
 843 7 843 7 828 31 c 128,-1,62
 813 55 813 55 804 82.5 c 128,-1,63
 795 110 795 110 791 132 c 1,64,-1
 791 131 l 1,65,66
 778 107 778 107 747 79 c 128,-1,67
 716 51 716 51 674.5 27.5 c 128,-1,68
 633 4 633 4 584 -11.5 c 128,-1,69
 535 -27 535 -27 485 -27 c 0,70,71
 431 -27 431 -27 378 -16.5 c 128,-1,72
 325 -6 325 -6 283 24.5 c 128,-1,73
 241 55 241 55 215 112 c 128,-1,74
 189 169 189 169 189 262 c 2,75,-1
 189 819 l 2,0,1
EndSplineSet
EndChar

StartChar: v
Encoding: 118 118 88
Width: 1017
GlyphClass: 2
Flags: W
LayerCount: 2
Fore
SplineSet
139 829 m 2,0,1
 128 856 128 856 114.5 872.5 c 128,-1,2
 101 889 101 889 85.5 898 c 128,-1,3
 70 907 70 907 52.5 910.5 c 128,-1,4
 35 914 35 914 17 916 c 0,5,6
 -4 918 -4 918 -11.5 924 c 128,-1,7
 -19 930 -19 930 -19 953 c 0,8,9
 -19 964 -19 964 -10.5 979 c 128,-1,10
 -2 994 -2 994 15 994 c 2,11,-1
 425 994 l 2,12,13
 442 994 442 994 450.5 979 c 128,-1,14
 459 964 459 964 459 953 c 0,15,16
 459 937 459 937 452.5 927.5 c 128,-1,17
 446 918 446 918 426 916 c 0,18,19
 361 911 361 911 336 897 c 128,-1,20
 311 883 311 883 324 852 c 2,21,-1
 573 238 l 1,22,-1
 798 850 l 2,23,24
 810 881 810 881 777.5 896.5 c 128,-1,25
 745 912 745 912 685 916 c 0,26,27
 665 918 665 918 658.5 927.5 c 128,-1,28
 652 937 652 937 652 953 c 0,29,30
 652 964 652 964 660.5 979 c 128,-1,31
 669 994 669 994 686 994 c 2,32,-1
 1021 994 l 2,33,34
 1038 994 1038 994 1046.5 979 c 128,-1,35
 1055 964 1055 964 1055 953 c 0,36,37
 1055 930 1055 930 1047.5 924 c 128,-1,38
 1040 918 1040 918 1019 916 c 0,39,40
 1001 914 1001 914 983.5 910 c 128,-1,41
 966 906 966 906 950.5 897 c 128,-1,42
 935 888 935 888 921.5 872 c 128,-1,43
 908 856 908 856 897 829 c 2,44,-1
 566 -9 l 1,45,-1
 492 -9 l 1,46,-1
 139 829 l 2,0,1
EndSplineSet
EndChar

StartChar: w
Encoding: 119 119 89
Width: 1510
GlyphClass: 2
Flags: W
LayerCount: 2
Fore
SplineSet
139 829 m 2,0,1
 129 856 129 856 115.5 872.5 c 128,-1,2
 102 889 102 889 86.5 898 c 128,-1,3
 71 907 71 907 53 910.5 c 128,-1,4
 35 914 35 914 17 916 c 0,5,6
 -4 918 -4 918 -11.5 924 c 128,-1,7
 -19 930 -19 930 -19 953 c 0,8,9
 -19 964 -19 964 -10.5 979 c 128,-1,10
 -2 994 -2 994 15 994 c 2,11,-1
 425 994 l 2,12,13
 442 994 442 994 450.5 979 c 128,-1,14
 459 964 459 964 459 953 c 0,15,16
 459 937 459 937 452.5 927.5 c 128,-1,17
 446 918 446 918 426 916 c 0,18,19
 408 914 408 914 387 911 c 128,-1,20
 366 908 366 908 349 902.5 c 128,-1,21
 332 897 332 897 323 887 c 128,-1,22
 314 877 314 877 320 862 c 2,23,-1
 526 276 l 1,24,-1
 711 848 l 1,25,-1
 758 976 l 1,26,-1
 859 976 l 1,27,-1
 1121 279 l 1,28,-1
 1299 829 l 2,29,30
 1310 861 1310 861 1280.5 886 c 128,-1,31
 1251 911 1251 911 1181 916 c 0,32,33
 1161 918 1161 918 1154.5 927.5 c 128,-1,34
 1148 937 1148 937 1148 953 c 0,35,36
 1148 964 1148 964 1156.5 979 c 128,-1,37
 1165 994 1165 994 1182 994 c 2,38,-1
 1507 994 l 2,39,40
 1524 994 1524 994 1532.5 979 c 128,-1,41
 1541 964 1541 964 1541 953 c 0,42,43
 1541 930 1541 930 1533.5 924 c 128,-1,44
 1526 918 1526 918 1505 916 c 0,45,46
 1487 914 1487 914 1470.5 910.5 c 128,-1,47
 1454 907 1454 907 1440 898 c 128,-1,48
 1426 889 1426 889 1414 872.5 c 128,-1,49
 1402 856 1402 856 1393 829 c 2,50,-1
 1111 -9 l 1,51,-1
 1037 -9 l 1,52,-1
 761 713 l 1,53,-1
 519 -9 l 1,54,-1
 445 -9 l 1,55,-1
 139 829 l 2,0,1
EndSplineSet
EndChar

StartChar: x
Encoding: 120 120 90
Width: 1034
GlyphClass: 2
Flags: W
LayerCount: 2
Fore
SplineSet
12 41 m 0,0,1
 12 78 12 78 45 78 c 0,2,3
 70 78 70 78 91.5 86 c 128,-1,4
 113 94 113 94 130 106.5 c 128,-1,5
 147 119 147 119 161 134.5 c 128,-1,6
 175 150 175 150 187 165 c 2,7,-1
 433 479 l 1,8,-1
 197 829 l 2,9,10
 180 853 180 853 164 869 c 128,-1,11
 148 885 148 885 131 894.5 c 128,-1,12
 114 904 114 904 96.5 908.5 c 128,-1,13
 79 913 79 913 60 916 c 0,14,15
 43 918 43 918 35 924.5 c 128,-1,16
 27 931 27 931 27 953 c 0,17,18
 27 964 27 964 35.5 979 c 128,-1,19
 44 994 44 994 61 994 c 2,20,-1
 451 994 l 2,21,22
 468 994 468 994 476.5 979 c 128,-1,23
 485 964 485 964 485 953 c 0,24,25
 485 937 485 937 479.5 927.5 c 128,-1,26
 474 918 474 918 454 916 c 0,27,28
 438 914 438 914 422.5 913.5 c 128,-1,29
 407 913 407 913 397 908.5 c 128,-1,30
 387 904 387 904 386 893.5 c 128,-1,31
 385 883 385 883 398 862 c 2,32,-1
 547 622 l 1,33,-1
 709 848 l 2,34,35
 722 866 722 866 717.5 878.5 c 128,-1,36
 713 891 713 891 699.5 899 c 128,-1,37
 686 907 686 907 667.5 910.5 c 128,-1,38
 649 914 649 914 633 916 c 0,39,40
 613 918 613 918 607.5 927.5 c 128,-1,41
 602 937 602 937 602 953 c 0,42,43
 602 964 602 964 610.5 979 c 128,-1,44
 619 994 619 994 636 994 c 2,45,-1
 959 994 l 2,46,47
 976 994 976 994 984.5 979 c 128,-1,48
 993 964 993 964 993 953 c 0,49,50
 993 916 993 916 960 916 c 0,51,52
 909 916 909 916 873.5 890 c 128,-1,53
 838 864 838 864 813 829 c 2,54,-1
 599 542 l 1,55,-1
 858 165 l 2,56,57
 891 117 891 117 924 100 c 128,-1,58
 957 83 957 83 995 78 c 0,59,60
 1012 76 1012 76 1020 69.5 c 128,-1,61
 1028 63 1028 63 1028 41 c 0,62,63
 1028 30 1028 30 1019.5 15 c 128,-1,64
 1011 0 1011 0 994 0 c 2,65,-1
 597 0 l 2,66,67
 580 0 580 0 571.5 15 c 128,-1,68
 563 30 563 30 563 41 c 0,69,70
 563 57 563 57 568.5 66.5 c 128,-1,71
 574 76 574 76 594 78 c 0,72,73
 609 79 609 79 624 81 c 128,-1,74
 639 83 639 83 648.5 88 c 128,-1,75
 658 93 658 93 659.5 103.5 c 128,-1,76
 661 114 661 114 650 132 c 2,77,-1
 484 399 l 1,78,-1
 296 146 l 2,79,80
 282 128 282 128 286.5 115.5 c 128,-1,81
 291 103 291 103 304.5 95.5 c 128,-1,82
 318 88 318 88 337 83.5 c 128,-1,83
 356 79 356 79 372 78 c 0,84,85
 392 76 392 76 397.5 66.5 c 128,-1,86
 403 57 403 57 403 41 c 0,87,88
 403 30 403 30 394.5 15 c 128,-1,89
 386 0 386 0 369 0 c 2,90,-1
 46 0 l 2,91,92
 29 0 29 0 20.5 15 c 128,-1,93
 12 30 12 30 12 41 c 0,0,1
EndSplineSet
EndChar

StartChar: y
Encoding: 121 121 91
Width: 1008
GlyphClass: 2
Flags: W
LayerCount: 2
Fore
SplineSet
119 -186 m 0,0,1
 125 -186 125 -186 139 -188 c 128,-1,2
 153 -190 153 -190 161 -200 c 2,3,-1
 264 -326 l 1,4,5
 283 -317 283 -317 304.5 -301.5 c 128,-1,6
 326 -286 326 -286 350 -254.5 c 128,-1,7
 374 -223 374 -223 401.5 -168.5 c 128,-1,8
 429 -114 429 -114 461 -27 c 1,9,-1
 148 829 l 2,10,11
 138 856 138 856 124.5 872.5 c 128,-1,12
 111 889 111 889 95.5 898 c 128,-1,13
 80 907 80 907 62 910.5 c 128,-1,14
 44 914 44 914 26 916 c 0,15,16
 5 918 5 918 -2.5 924 c 128,-1,17
 -10 930 -10 930 -10 953 c 0,18,19
 -10 964 -10 964 -2 979 c 128,-1,20
 6 994 6 994 23 994 c 2,21,-1
 439 994 l 2,22,23
 456 994 456 994 464.5 979 c 128,-1,24
 473 964 473 964 473 953 c 0,25,26
 473 937 473 937 466.5 927.5 c 128,-1,27
 460 918 460 918 440 916 c 0,28,29
 422 914 422 914 401 911.5 c 128,-1,30
 380 909 380 909 363.5 903 c 128,-1,31
 347 897 347 897 338 887.5 c 128,-1,32
 329 878 329 878 334 862 c 2,33,-1
 550 199 l 1,34,-1
 779 862 l 2,35,36
 784 878 784 878 773.5 887.5 c 128,-1,37
 763 897 763 897 744.5 903 c 128,-1,38
 726 909 726 909 703.5 911.5 c 128,-1,39
 681 914 681 914 663 916 c 0,40,41
 643 918 643 918 636.5 927.5 c 128,-1,42
 630 937 630 937 630 953 c 0,43,44
 630 964 630 964 638.5 979 c 128,-1,45
 647 994 647 994 664 994 c 2,46,-1
 1000 994 l 2,47,48
 1017 994 1017 994 1025.5 979 c 128,-1,49
 1034 964 1034 964 1034 953 c 0,50,51
 1034 930 1034 930 1026.5 924 c 128,-1,52
 1019 918 1019 918 998 916 c 0,53,54
 980 914 980 914 964 910.5 c 128,-1,55
 948 907 948 907 934 898 c 128,-1,56
 920 889 920 889 908 872.5 c 128,-1,57
 896 856 896 856 886 829 c 2,58,-1
 573 -9 l 2,59,60
 558 -48 558 -48 538 -96 c 128,-1,61
 518 -144 518 -144 493 -192.5 c 128,-1,62
 468 -241 468 -241 438 -287.5 c 128,-1,63
 408 -334 408 -334 374 -369.5 c 128,-1,64
 340 -405 340 -405 301 -427 c 128,-1,65
 262 -449 262 -449 220 -449 c 0,66,67
 172 -449 172 -449 137 -435.5 c 128,-1,68
 102 -422 102 -422 79 -400.5 c 128,-1,69
 56 -379 56 -379 45 -352.5 c 128,-1,70
 34 -326 34 -326 34 -300 c 0,71,72
 34 -270 34 -270 43.5 -248.5 c 128,-1,73
 53 -227 53 -227 66 -213 c 128,-1,74
 79 -199 79 -199 93.5 -192.5 c 128,-1,75
 108 -186 108 -186 119 -186 c 0,0,1
EndSplineSet
EndChar

StartChar: z
Encoding: 122 122 92
Width: 909
GlyphClass: 2
Flags: W
LayerCount: 2
Fore
SplineSet
64 40 m 2,0,1
 64 45 64 45 65.5 51 c 128,-1,2
 67 57 67 57 71.5 66 c 128,-1,3
 76 75 76 75 84 89 c 128,-1,4
 92 103 92 103 106 123 c 1,5,-1
 606 911 l 1,6,-1
 309 911 l 2,7,8
 287 911 287 911 268 895.5 c 128,-1,9
 249 880 249 880 233.5 855.5 c 128,-1,10
 218 831 218 831 205.5 801 c 128,-1,11
 193 771 193 771 184 742.5 c 128,-1,12
 175 714 175 714 170 690 c 128,-1,13
 165 666 165 666 164 654 c 0,14,15
 162 634 162 634 152.5 627.5 c 128,-1,16
 143 621 143 621 127 621 c 0,17,18
 116 621 116 621 106 629.5 c 128,-1,19
 96 638 96 638 96 655 c 2,20,-1
 103 953 l 2,21,22
 103 971 103 971 119 982 c 128,-1,23
 135 993 135 993 150 994 c 1,24,-1
 814 994 l 2,25,26
 826 994 826 994 837 987.5 c 128,-1,27
 848 981 848 981 848 967 c 2,28,-1
 848 943 l 2,29,30
 848 935 848 935 845.5 929 c 128,-1,31
 843 923 843 923 838 915 c 2,32,-1
 301 83 l 1,33,-1
 627 83 l 2,34,35
 649 83 649 83 668 98.5 c 128,-1,36
 687 114 687 114 703 138.5 c 128,-1,37
 719 163 719 163 731.5 193 c 128,-1,38
 744 223 744 223 752.5 251.5 c 128,-1,39
 761 280 761 280 766.5 304 c 128,-1,40
 772 328 772 328 773 340 c 0,41,42
 775 360 775 360 784.5 366.5 c 128,-1,43
 794 373 794 373 810 373 c 0,44,45
 821 373 821 373 831 364.5 c 128,-1,46
 841 356 841 356 841 339 c 2,47,-1
 833 41 l 2,48,49
 833 21 833 21 817 11 c 128,-1,50
 801 1 801 1 786 0 c 1,51,-1
 88 0 l 2,52,53
 76 0 76 0 70 5 c 128,-1,54
 64 10 64 10 64 24 c 2,55,-1
 64 40 l 2,0,1
EndSplineSet
EndChar

StartChar: braceleft
Encoding: 123 123 93
Width: 881
GlyphClass: 2
Flags: W
LayerCount: 2
Fore
SplineSet
355 358 m 2,0,1
 355 399 355 399 338.5 434 c 128,-1,2
 322 469 322 469 292.5 494.5 c 128,-1,3
 263 520 263 520 223 534.5 c 128,-1,4
 183 549 183 549 136 549 c 2,5,-1
 106 549 l 1,6,-1
 106 659 l 1,7,-1
 136 659 l 2,8,9
 183 659 183 659 223 673.5 c 128,-1,10
 263 688 263 688 292.5 713.5 c 128,-1,11
 322 739 322 739 338.5 774 c 128,-1,12
 355 809 355 809 355 850 c 2,13,-1
 355 1237 l 2,14,15
 355 1320 355 1320 389.5 1377 c 128,-1,16
 424 1434 424 1434 476 1469.5 c 128,-1,17
 528 1505 528 1505 588.5 1520.5 c 128,-1,18
 649 1536 649 1536 702 1536 c 2,19,-1
 815 1536 l 1,20,-1
 815 1449 l 1,21,-1
 702 1449 l 2,22,23
 661 1449 661 1449 633.5 1433.5 c 128,-1,24
 606 1418 606 1418 588.5 1393 c 128,-1,25
 571 1368 571 1368 563.5 1338 c 128,-1,26
 556 1308 556 1308 556 1280 c 2,27,-1
 556 873 l 2,28,29
 556 812 556 812 531.5 766 c 128,-1,30
 507 720 507 720 464.5 687 c 128,-1,31
 422 654 422 654 365 633.5 c 128,-1,32
 308 613 308 613 244 603 c 1,33,34
 308 592 308 592 365 572 c 128,-1,35
 422 552 422 552 464.5 519.5 c 128,-1,36
 507 487 507 487 531.5 441.5 c 128,-1,37
 556 396 556 396 556 335 c 2,38,-1
 556 -72 l 2,39,40
 556 -101 556 -101 563.5 -130.5 c 128,-1,41
 571 -160 571 -160 588.5 -185 c 128,-1,42
 606 -210 606 -210 633.5 -225.5 c 128,-1,43
 661 -241 661 -241 702 -241 c 2,44,-1
 815 -241 l 1,45,-1
 815 -328 l 1,46,-1
 702 -328 l 2,47,48
 649 -328 649 -328 588.5 -312.5 c 128,-1,49
 528 -297 528 -297 476 -262 c 128,-1,50
 424 -227 424 -227 389.5 -169.5 c 128,-1,51
 355 -112 355 -112 355 -29 c 2,52,-1
 355 358 l 2,0,1
EndSplineSet
EndChar

StartChar: bar
Encoding: 124 124 94
Width: 768
GlyphClass: 2
Flags: W
LayerCount: 2
Fore
SplineSet
311 1535 m 1,0,-1
 456 1535 l 1,1,-1
 456 -367 l 1,2,-1
 311 -367 l 1,3,-1
 311 1535 l 1,0,-1
EndSplineSet
EndChar

StartChar: asciitilde
Encoding: 126 126 96
Width: 1317
GlyphClass: 2
Flags: W
LayerCount: 2
Fore
SplineSet
202 446 m 0,0,1
 188 467 188 467 201 488 c 0,2,3
 223 525 223 525 246.5 562.5 c 128,-1,4
 270 600 270 600 300 630 c 1,5,6
 331 667 331 667 376 686 c 128,-1,7
 421 705 421 705 471 705 c 0,8,9
 512 705 512 705 546 695.5 c 128,-1,10
 580 686 580 686 611.5 671.5 c 128,-1,11
 643 657 643 657 674 640.5 c 128,-1,12
 705 624 705 624 739 609 c 1,13,14
 795 581 795 581 838 576 c 128,-1,15
 881 571 881 571 913.5 579.5 c 128,-1,16
 946 588 946 588 969.5 606 c 128,-1,17
 993 624 993 624 1011.5 643.5 c 128,-1,18
 1030 663 1030 663 1044 680 c 128,-1,19
 1058 697 1058 697 1071 702 c 1,20,21
 1082 704 1082 704 1092.5 701.5 c 128,-1,22
 1103 699 1103 699 1114 684 c 0,23,24
 1128 663 1128 663 1115 642 c 0,25,26
 1093 605 1093 605 1074.5 572.5 c 128,-1,27
 1056 540 1056 540 1026 510 c 1,28,29
 1011 492 1011 492 991.5 476 c 128,-1,30
 972 460 972 460 949.5 449 c 128,-1,31
 927 438 927 438 902.5 431.5 c 128,-1,32
 878 425 878 425 855 425 c 0,33,34
 812 425 812 425 776.5 434.5 c 128,-1,35
 741 444 741 444 708.5 458.5 c 128,-1,36
 676 473 676 473 644 489.5 c 128,-1,37
 612 506 612 506 577 521 c 1,38,39
 521 549 521 549 478 554 c 128,-1,40
 435 559 435 559 402.5 550.5 c 128,-1,41
 370 542 370 542 346.5 524 c 128,-1,42
 323 506 323 506 304.5 486.5 c 128,-1,43
 286 467 286 467 272 450 c 128,-1,44
 258 433 258 433 245 428 c 1,45,46
 234 426 234 426 223.5 428.5 c 128,-1,47
 213 431 213 431 202 446 c 0,0,1
EndSplineSet
EndChar

StartChar: ccedilla
Encoding: 231 231 103
Width: 930
Flags: W
LayerCount: 2
Fore
SplineSet
465 -26 m 1,0,1
 366 -17 366 -17 293 24 c 128,-1,2
 220 65 220 65 172 133.5 c 128,-1,3
 124 202 124 202 100.5 296 c 128,-1,4
 77 390 77 390 77 504 c 0,5,6
 77 622 77 622 114.5 716.5 c 128,-1,7
 152 811 152 811 215 877 c 128,-1,8
 278 943 278 943 362 978.5 c 128,-1,9
 446 1014 446 1014 539 1014 c 0,10,11
 582 1014 582 1014 628 1006.5 c 128,-1,12
 674 999 674 999 716 983.5 c 128,-1,13
 758 968 758 968 793.5 944 c 128,-1,14
 829 920 829 920 851 887 c 0,15,16
 884 836 884 836 888.5 794.5 c 128,-1,17
 893 753 893 753 881 723.5 c 128,-1,18
 869 694 869 694 846.5 678 c 128,-1,19
 824 662 824 662 803 662 c 0,20,21
 774 662 774 662 750 669.5 c 128,-1,22
 726 677 726 677 711 710 c 1,23,-1
 632 901 l 1,24,25
 614 912 614 912 584.5 915 c 128,-1,26
 555 918 555 918 526 918 c 0,27,28
 471 918 471 918 428.5 901.5 c 128,-1,29
 386 885 386 885 356.5 840 c 128,-1,30
 327 795 327 795 312 715.5 c 128,-1,31
 297 636 297 636 297 510 c 0,32,33
 297 397 297 397 320 314.5 c 128,-1,34
 343 232 343 232 379 179 c 128,-1,35
 415 126 415 126 459 100.5 c 128,-1,36
 503 75 503 75 545 75 c 0,37,38
 636 75 636 75 700 109.5 c 128,-1,39
 764 144 764 144 799 208 c 0,40,41
 802 214 802 214 805 220 c 128,-1,42
 808 226 808 226 818 224 c 1,43,-1
 864 201 l 1,44,45
 877 196 877 196 874.5 187.5 c 128,-1,46
 872 179 872 179 869 173 c 0,47,48
 831 93 831 93 756 39 c 128,-1,49
 681 -15 681 -15 572 -26 c 1,50,-1
 565 -88 l 1,51,52
 596 -99 596 -99 628 -117.5 c 128,-1,53
 660 -136 660 -136 686 -159 c 128,-1,54
 712 -182 712 -182 728.5 -207.5 c 128,-1,55
 745 -233 745 -233 745 -258 c 0,56,57
 745 -306 745 -306 726 -339.5 c 128,-1,58
 707 -373 707 -373 674.5 -394.5 c 128,-1,59
 642 -416 642 -416 599.5 -426 c 128,-1,60
 557 -436 557 -436 511 -436 c 0,61,62
 473 -436 473 -436 439.5 -433.5 c 128,-1,63
 406 -431 406 -431 364 -422 c 0,64,65
 353 -420 353 -420 343.5 -412 c 128,-1,66
 334 -404 334 -404 334 -393 c 0,67,68
 334 -373 334 -373 336.5 -364.5 c 128,-1,69
 339 -356 339 -356 350 -349 c 0,70,71
 362 -342 362 -342 385 -339.5 c 128,-1,72
 408 -337 408 -337 435.5 -335 c 128,-1,73
 463 -333 463 -333 491.5 -329 c 128,-1,74
 520 -325 520 -325 543.5 -315 c 128,-1,75
 567 -305 567 -305 582 -287.5 c 128,-1,76
 597 -270 597 -270 597 -239 c 0,77,78
 597 -207 597 -207 574.5 -188 c 128,-1,79
 552 -169 552 -169 524 -159 c 0,80,81
 491 -148 491 -148 451 -145 c 1,82,-1
 451 -144 l 1,83,-1
 465 -26 l 1,84,-1
 465 -26 l 1,0,1
EndSplineSet
EndChar

StartChar: dagger
Encoding: 8224 8224 112
Width: 967
GlyphClass: 2
Flags: W
LayerCount: 2
Fore
SplineSet
395 117 m 0,0,1
 395 122 395 122 397 162.5 c 128,-1,2
 399 203 399 203 402 266.5 c 128,-1,3
 405 330 405 330 409.5 410 c 128,-1,4
 414 490 414 490 418.5 574.5 c 128,-1,5
 423 659 423 659 427.5 741 c 128,-1,6
 432 823 432 823 436 890.5 c 128,-1,7
 440 958 440 958 443 1004 c 128,-1,8
 446 1050 446 1050 447 1063 c 1,9,10
 426 1059 426 1059 385.5 1049 c 128,-1,11
 345 1039 345 1039 302 1028.5 c 128,-1,12
 259 1018 259 1018 224 1010 c 128,-1,13
 189 1002 189 1002 179 1002 c 0,14,15
 129 1002 129 1002 95.5 1026.5 c 128,-1,16
 62 1051 62 1051 62 1101 c 0,17,18
 62 1150 62 1150 95.5 1170.5 c 128,-1,19
 129 1191 129 1191 179 1191 c 0,20,21
 186 1191 186 1191 204 1186.5 c 128,-1,22
 222 1182 222 1182 247 1175 c 128,-1,23
 272 1168 272 1168 301 1159.5 c 128,-1,24
 330 1151 330 1151 357.5 1143 c 128,-1,25
 385 1135 385 1135 408.5 1128.5 c 128,-1,26
 432 1122 432 1122 446 1119 c 1,27,28
 443 1134 443 1134 437.5 1161.5 c 128,-1,29
 432 1189 432 1189 425.5 1222.5 c 128,-1,30
 419 1256 419 1256 411.5 1291.5 c 128,-1,31
 404 1327 404 1327 398 1358 c 128,-1,32
 392 1389 392 1389 388 1411 c 128,-1,33
 384 1433 384 1433 384 1440 c 0,34,35
 384 1490 384 1490 409 1523.5 c 128,-1,36
 434 1557 434 1557 485 1557 c 0,37,38
 534 1557 534 1557 559.5 1523.5 c 128,-1,39
 585 1490 585 1490 585 1440 c 0,40,41
 585 1433 585 1433 581 1411 c 128,-1,42
 577 1389 577 1389 570.5 1358 c 128,-1,43
 564 1327 564 1327 556.5 1291.5 c 128,-1,44
 549 1256 549 1256 541.5 1222.5 c 128,-1,45
 534 1189 534 1189 528.5 1161.5 c 128,-1,46
 523 1134 523 1134 521 1119 c 1,47,48
 542 1124 542 1124 582.5 1136 c 128,-1,49
 623 1148 623 1148 665.5 1160 c 128,-1,50
 708 1172 708 1172 743 1181.5 c 128,-1,51
 778 1191 778 1191 789 1191 c 0,52,53
 838 1191 838 1191 871.5 1170.5 c 128,-1,54
 905 1150 905 1150 905 1101 c 0,55,56
 905 1051 905 1051 871.5 1026.5 c 128,-1,57
 838 1002 838 1002 789 1002 c 0,58,59
 778 1002 778 1002 743 1010 c 128,-1,60
 708 1018 708 1018 665.5 1028.5 c 128,-1,61
 623 1039 623 1039 582 1049 c 128,-1,62
 541 1059 541 1059 520 1063 c 1,63,64
 521 1050 521 1050 524 1004 c 128,-1,65
 527 958 527 958 531 890.5 c 128,-1,66
 535 823 535 823 539.5 741 c 128,-1,67
 544 659 544 659 549 574.5 c 128,-1,68
 554 490 554 490 558 410 c 128,-1,69
 562 330 562 330 565.5 266.5 c 128,-1,70
 569 203 569 203 571 162.5 c 128,-1,71
 573 122 573 122 573 117 c 0,72,73
 573 92 573 92 568.5 70.5 c 128,-1,74
 564 49 564 49 553.5 33.5 c 128,-1,75
 543 18 543 18 526 9 c 128,-1,76
 509 0 509 0 485 0 c 0,77,78
 435 0 435 0 415 33.5 c 128,-1,79
 395 67 395 67 395 117 c 0,0,1
EndSplineSet
EndChar

StartChar: degree
Encoding: 176 176 113
Width: 859
GlyphClass: 2
Flags: W
LayerCount: 2
Fore
SplineSet
428 774 m 256,0,1
 352 774 352 774 289.5 798.5 c 128,-1,2
 227 823 227 823 182.5 868 c 128,-1,3
 138 913 138 913 113.5 975.5 c 128,-1,4
 89 1038 89 1038 89 1113 c 256,5,6
 89 1188 89 1188 114 1250.5 c 128,-1,7
 139 1313 139 1313 184.5 1357 c 128,-1,8
 230 1401 230 1401 293 1425.5 c 128,-1,9
 356 1450 356 1450 432 1450 c 256,10,11
 508 1450 508 1450 570 1425.5 c 128,-1,12
 632 1401 632 1401 676 1357 c 128,-1,13
 720 1313 720 1313 744.5 1250.5 c 128,-1,14
 769 1188 769 1188 769 1113 c 256,15,16
 769 1038 769 1038 744 975.5 c 128,-1,17
 719 913 719 913 674 868 c 128,-1,18
 629 823 629 823 566.5 798.5 c 128,-1,19
 504 774 504 774 428 774 c 256,0,1
430 884 m 0,20,21
 519 884 519 884 573 941 c 128,-1,22
 627 998 627 998 627 1113 c 0,23,24
 627 1170 627 1170 612.5 1213 c 128,-1,25
 598 1256 598 1256 571.5 1284 c 128,-1,26
 545 1312 545 1312 508 1326 c 128,-1,27
 471 1340 471 1340 427 1340 c 0,28,29
 337 1340 337 1340 284 1284 c 128,-1,30
 231 1228 231 1228 231 1113 c 0,31,32
 231 1056 231 1056 245.5 1013 c 128,-1,33
 260 970 260 970 286 941.5 c 128,-1,34
 312 913 312 913 348.5 898.5 c 128,-1,35
 385 884 385 884 430 884 c 0,20,21
EndSplineSet
EndChar

StartChar: cent
Encoding: 162 162 114
Width: 1137
GlyphClass: 2
Flags: W
LayerCount: 2
Fore
SplineSet
184 504 m 0,0,1
 184 608 184 608 213.5 694 c 128,-1,2
 243 780 243 780 294 844.5 c 128,-1,3
 345 909 345 909 413.5 950 c 128,-1,4
 482 991 482 991 561 1006 c 1,5,-1
 561 1225 l 1,6,-1
 667 1225 l 1,7,-1
 667 1013 l 1,8,9
 708 1011 708 1011 751 1003 c 128,-1,10
 794 995 794 995 833 979.5 c 128,-1,11
 872 964 872 964 904.5 941 c 128,-1,12
 937 918 937 918 958 887 c 0,13,14
 991 836 991 836 995.5 794.5 c 128,-1,15
 1000 753 1000 753 988 723.5 c 128,-1,16
 976 694 976 694 953.5 678 c 128,-1,17
 931 662 931 662 910 662 c 0,18,19
 881 662 881 662 857 669.5 c 128,-1,20
 833 677 833 677 818 710 c 1,21,-1
 739 901 l 1,22,23
 721 912 721 912 691.5 915 c 128,-1,24
 662 918 662 918 633 918 c 0,25,26
 578 918 578 918 535.5 901.5 c 128,-1,27
 493 885 493 885 463.5 840 c 128,-1,28
 434 795 434 795 419 715.5 c 128,-1,29
 404 636 404 636 404 510 c 0,30,31
 404 397 404 397 427 314.5 c 128,-1,32
 450 232 450 232 486 179 c 128,-1,33
 522 126 522 126 566 100.5 c 128,-1,34
 610 75 610 75 652 75 c 0,35,36
 743 75 743 75 807 109.5 c 128,-1,37
 871 144 871 144 906 208 c 0,38,39
 909 214 909 214 912 220 c 128,-1,40
 915 226 915 226 925 224 c 1,41,-1
 971 201 l 1,42,43
 984 196 984 196 981.5 187.5 c 128,-1,44
 979 179 979 179 976 173 c 0,45,46
 936 90 936 90 859 36 c 128,-1,47
 782 -18 782 -18 667 -27 c 1,48,-1
 667 -228 l 1,49,-1
 561 -228 l 1,50,-1
 561 -25 l 1,51,52
 465 -15 465 -15 394 27 c 128,-1,53
 323 69 323 69 276.5 137.5 c 128,-1,54
 230 206 230 206 207 298.5 c 128,-1,55
 184 391 184 391 184 504 c 0,0,1
EndSplineSet
EndChar

StartChar: sterling
Encoding: 163 163 115
Width: 1274
GlyphClass: 2
Flags: W
LayerCount: 2
Fore
SplineSet
54 92 m 0,0,1
 54 119 54 119 69 139 c 128,-1,2
 84 159 84 159 107.5 173.5 c 128,-1,3
 131 188 131 188 159 198 c 128,-1,4
 187 208 187 208 212.5 215 c 128,-1,5
 238 222 238 222 258 227 c 128,-1,6
 278 232 278 232 286 236 c 1,7,8
 296 258 296 258 302.5 287 c 128,-1,9
 309 316 309 316 313 347.5 c 128,-1,10
 317 379 317 379 318.5 411.5 c 128,-1,11
 320 444 320 444 320 473 c 2,12,-1
 320 638 l 1,13,-1
 180 638 l 1,14,15
 168 639 168 639 162 649.5 c 128,-1,16
 156 660 156 660 156 672 c 0,17,18
 156 691 156 691 162.5 705.5 c 128,-1,19
 169 720 169 720 180 725 c 1,20,-1
 320 725 l 1,21,-1
 320 871 l 2,22,23
 320 997 320 997 345 1103 c 128,-1,24
 370 1209 370 1209 427.5 1285.5 c 128,-1,25
 485 1362 485 1362 579 1405 c 128,-1,26
 673 1448 673 1448 810 1448 c 0,27,28
 896 1448 896 1448 960 1421.5 c 128,-1,29
 1024 1395 1024 1395 1065.5 1358.5 c 128,-1,30
 1107 1322 1107 1322 1125.5 1282.5 c 128,-1,31
 1144 1243 1144 1243 1140 1218 c 0,32,33
 1135 1193 1135 1193 1120 1164.5 c 128,-1,34
 1105 1136 1105 1136 1082 1116.5 c 128,-1,35
 1059 1097 1059 1097 1030 1091.5 c 128,-1,36
 1001 1086 1001 1086 968 1106 c 1,37,-1
 823 1352 l 1,38,39
 806 1356 806 1356 776 1356 c 0,40,41
 715 1356 715 1356 668.5 1331 c 128,-1,42
 622 1306 622 1306 590.5 1249.5 c 128,-1,43
 559 1193 559 1193 542.5 1100.5 c 128,-1,44
 526 1008 526 1008 526 873 c 2,45,-1
 526 725 l 1,46,-1
 919 725 l 1,47,48
 931 724 931 724 937 713.5 c 128,-1,49
 943 703 943 703 943 691 c 0,50,51
 943 672 943 672 936.5 657.5 c 128,-1,52
 930 643 930 643 919 638 c 1,53,-1
 527 638 l 1,54,-1
 527 603 l 2,55,56
 527 529 527 529 516.5 464 c 128,-1,57
 506 399 506 399 489 346.5 c 128,-1,58
 472 294 472 294 450 254.5 c 128,-1,59
 428 215 428 215 405 193 c 1,60,61
 454 178 454 178 489.5 161 c 128,-1,62
 525 144 525 144 559.5 128.5 c 128,-1,63
 594 113 594 113 634 102 c 128,-1,64
 674 91 674 91 734 88 c 0,65,66
 800 85 800 85 849.5 99 c 128,-1,67
 899 113 899 113 933 138 c 128,-1,68
 967 163 967 163 986 197 c 128,-1,69
 1005 231 1005 231 1010 268 c 1,70,-1
 952 418 l 1,71,72
 952 428 952 428 969 444.5 c 128,-1,73
 986 461 986 461 1012.5 470.5 c 128,-1,74
 1039 480 1039 480 1073 477.5 c 128,-1,75
 1107 475 1107 475 1142 447 c 0,76,77
 1162 431 1162 431 1178 401.5 c 128,-1,78
 1194 372 1194 372 1202 335 c 128,-1,79
 1210 298 1210 298 1208 257 c 128,-1,80
 1206 216 1206 216 1190 177 c 0,81,82
 1175 140 1175 140 1142 105 c 128,-1,83
 1109 70 1109 70 1061.5 43 c 128,-1,84
 1014 16 1014 16 953.5 0 c 128,-1,85
 893 -16 893 -16 823 -16 c 0,86,87
 744 -16 744 -16 681.5 -5 c 128,-1,88
 619 6 619 6 568.5 22.5 c 128,-1,89
 518 39 518 39 479.5 57 c 128,-1,90
 441 75 441 75 409.5 90 c 128,-1,91
 378 105 378 105 353.5 113.5 c 128,-1,92
 329 122 329 122 307 118 c 1,93,94
 301 106 301 106 288.5 86 c 128,-1,95
 276 66 276 66 256.5 47 c 128,-1,96
 237 28 237 28 211 14 c 128,-1,97
 185 0 185 0 152 0 c 0,98,99
 138 0 138 0 121 3 c 128,-1,100
 104 6 104 6 89 16 c 128,-1,101
 74 26 74 26 64 44 c 128,-1,102
 54 62 54 62 54 92 c 0,0,1
872 1326 m 2,103,104
 870 1329 870 1329 866.5 1332.5 c 128,-1,105
 863 1336 863 1336 858 1340 c 2,106,-1
 872 1326 l 2,103,104
EndSplineSet
EndChar

StartChar: section
Encoding: 167 167 116
Width: 1024
GlyphClass: 2
Flags: W
LayerCount: 2
Fore
SplineSet
249 -199 m 0,0,1
 247 -165 247 -165 263 -143.5 c 128,-1,2
 279 -122 279 -122 300.5 -110.5 c 128,-1,3
 322 -99 322 -99 343.5 -97 c 128,-1,4
 365 -95 365 -95 374 -101 c 0,5,6
 383 -106 383 -106 394 -120.5 c 128,-1,7
 405 -135 405 -135 417.5 -156 c 128,-1,8
 430 -177 430 -177 444.5 -203 c 128,-1,9
 459 -229 459 -229 476 -257 c 1,10,11
 560 -253 560 -253 605 -208.5 c 128,-1,12
 650 -164 650 -164 642 -81 c 0,13,14
 639 -49 639 -49 621.5 -17.5 c 128,-1,15
 604 14 604 14 576 46.5 c 128,-1,16
 548 79 548 79 512 113 c 128,-1,17
 476 147 476 147 436 182.5 c 128,-1,18
 396 218 396 218 355.5 257 c 128,-1,19
 315 296 315 296 278 338 c 0,20,21
 257 362 257 362 240 392 c 128,-1,22
 223 422 223 422 211 455 c 128,-1,23
 199 488 199 488 192.5 523.5 c 128,-1,24
 186 559 186 559 186 594 c 0,25,26
 186 635 186 635 197.5 673.5 c 128,-1,27
 209 712 209 712 230 749.5 c 128,-1,28
 251 787 251 787 280 824 c 128,-1,29
 309 861 309 861 345 899 c 1,30,31
 309 949 309 949 285.5 1000 c 128,-1,32
 262 1051 262 1051 258 1108 c 0,33,34
 253 1184 253 1184 275 1247 c 128,-1,35
 297 1310 297 1310 339 1355 c 128,-1,36
 381 1400 381 1400 439.5 1424.5 c 128,-1,37
 498 1449 498 1449 567 1449 c 0,38,39
 615 1449 615 1449 654 1432 c 128,-1,40
 693 1415 693 1415 721 1389.5 c 128,-1,41
 749 1364 749 1364 764.5 1334 c 128,-1,42
 780 1304 780 1304 782 1278 c 0,43,44
 785 1244 785 1244 769 1222.5 c 128,-1,45
 753 1201 753 1201 731 1189.5 c 128,-1,46
 709 1178 709 1178 687.5 1176 c 128,-1,47
 666 1174 666 1174 657 1180 c 0,48,49
 648 1185 648 1185 637 1199.5 c 128,-1,50
 626 1214 626 1214 613 1235 c 128,-1,51
 600 1256 600 1256 585.5 1282 c 128,-1,52
 571 1308 571 1308 554 1336 c 1,53,54
 476 1332 476 1332 433.5 1287.5 c 128,-1,55
 391 1243 391 1243 399 1160 c 0,56,57
 403 1112 403 1112 439.5 1064.5 c 128,-1,58
 476 1017 476 1017 529.5 966 c 128,-1,59
 583 915 583 915 645 859.5 c 128,-1,60
 707 804 707 804 763 741 c 0,61,62
 784 717 784 717 801 687 c 128,-1,63
 818 657 818 657 830 624 c 128,-1,64
 842 591 842 591 848.5 555.5 c 128,-1,65
 855 520 855 520 855 485 c 0,66,67
 855 444 855 444 843.5 405 c 128,-1,68
 832 366 832 366 811 328.5 c 128,-1,69
 790 291 790 291 760.5 254 c 128,-1,70
 731 217 731 217 695 179 c 1,71,72
 731 129 731 129 755 78 c 128,-1,73
 779 27 779 27 783 -29 c 0,74,75
 788 -105 788 -105 767 -166.5 c 128,-1,76
 746 -228 746 -228 704.5 -271 c 128,-1,77
 663 -314 663 -314 604 -337 c 128,-1,78
 545 -360 545 -360 474 -360 c 0,79,80
 426 -360 426 -360 385.5 -344.5 c 128,-1,81
 345 -329 345 -329 315.5 -305.5 c 128,-1,82
 286 -282 286 -282 268.5 -253.5 c 128,-1,83
 251 -225 251 -225 249 -199 c 0,0,1
453 457 m 0,84,85
 492 408 492 408 537 360.5 c 128,-1,86
 582 313 582 313 625 265 c 1,87,88
 632 282 632 282 639 302 c 128,-1,89
 646 322 646 322 652 342.5 c 128,-1,90
 658 363 658 363 662 382 c 128,-1,91
 666 401 666 401 666 416 c 0,92,93
 666 453 666 453 659.5 482.5 c 128,-1,94
 653 512 653 512 642.5 536 c 128,-1,95
 632 560 632 560 618 581 c 128,-1,96
 604 602 604 602 588 622 c 0,97,98
 547 670 547 670 502 717 c 128,-1,99
 457 764 457 764 415 812 c 1,100,101
 408 795 408 795 401 775 c 128,-1,102
 394 755 394 755 388 735 c 128,-1,103
 382 715 382 715 378.5 696 c 128,-1,104
 375 677 375 677 375 663 c 0,105,106
 375 626 375 626 381 596.5 c 128,-1,107
 387 567 387 567 397.5 542.5 c 128,-1,108
 408 518 408 518 422.5 497.5 c 128,-1,109
 437 477 437 477 453 457 c 0,84,85
EndSplineSet
EndChar

StartChar: bullet
Encoding: 8226 8226 117
Width: 804
GlyphClass: 2
Flags: W
LayerCount: 2
Fore
SplineSet
402 336 m 256,0,1
 346 336 346 336 299 354.5 c 128,-1,2
 252 373 252 373 218 407.5 c 128,-1,3
 184 442 184 442 165 491 c 128,-1,4
 146 540 146 540 146 601 c 256,5,6
 146 662 146 662 165 711 c 128,-1,7
 184 760 184 760 218 794.5 c 128,-1,8
 252 829 252 829 299 847.5 c 128,-1,9
 346 866 346 866 402 866 c 256,10,11
 458 866 458 866 505 847.5 c 128,-1,12
 552 829 552 829 586.5 794.5 c 128,-1,13
 621 760 621 760 640 711 c 128,-1,14
 659 662 659 662 659 601 c 256,15,16
 659 540 659 540 640 491 c 128,-1,17
 621 442 621 442 586.5 407.5 c 128,-1,18
 552 373 552 373 505 354.5 c 128,-1,19
 458 336 458 336 402 336 c 256,0,1
EndSplineSet
EndChar

StartChar: paragraph
Encoding: 182 182 118
Width: 1024
GlyphClass: 2
Flags: W
LayerCount: 2
Fore
SplineSet
218 -199 m 0,0,1
 242 -197 242 -197 268.5 -194 c 128,-1,2
 295 -191 295 -191 317.5 -181 c 128,-1,3
 340 -171 340 -171 355 -152.5 c 128,-1,4
 370 -134 370 -134 370 -102 c 2,5,-1
 369 575 l 1,6,7
 295 595 295 595 235.5 634 c 128,-1,8
 176 673 176 673 134.5 727.5 c 128,-1,9
 93 782 93 782 70.5 851 c 128,-1,10
 48 920 48 920 48 1000 c 0,11,12
 48 1117 48 1117 85.5 1197 c 128,-1,13
 123 1277 123 1277 184.5 1327 c 128,-1,14
 246 1377 246 1377 326 1399 c 128,-1,15
 406 1421 406 1421 490 1421 c 2,16,-1
 705 1419 l 1,17,-1
 1013 1419 l 2,18,19
 1022 1419 1022 1419 1028 1413 c 128,-1,20
 1034 1407 1034 1407 1038.5 1399 c 128,-1,21
 1043 1391 1043 1391 1045 1382.5 c 128,-1,22
 1047 1374 1047 1374 1047 1368 c 0,23,24
 1047 1345 1047 1345 1039.5 1339 c 128,-1,25
 1032 1333 1032 1333 1011 1331 c 0,26,27
 988 1329 988 1329 966 1326 c 128,-1,28
 944 1323 944 1323 927 1313 c 128,-1,29
 910 1303 910 1303 899.5 1284.5 c 128,-1,30
 889 1266 889 1266 889 1234 c 2,31,-1
 889 -135 l 2,32,33
 889 -152 889 -152 903 -163 c 128,-1,34
 917 -174 917 -174 938 -181.5 c 128,-1,35
 959 -189 959 -189 985 -193 c 128,-1,36
 1011 -197 1011 -197 1035 -199 c 0,37,38
 1055 -201 1055 -201 1061.5 -210.5 c 128,-1,39
 1068 -220 1068 -220 1068 -236 c 0,40,41
 1068 -242 1068 -242 1066 -250.5 c 128,-1,42
 1064 -259 1064 -259 1059.5 -267 c 128,-1,43
 1055 -275 1055 -275 1049 -281 c 128,-1,44
 1043 -287 1043 -287 1034 -287 c 2,45,-1
 722 -287 l 1,46,-1
 722 1302 l 1,47,-1
 542 1302 l 1,48,-1
 542 -287 l 1,49,-1
 216 -287 l 2,50,51
 207 -287 207 -287 201 -281 c 128,-1,52
 195 -275 195 -275 190.5 -267 c 128,-1,53
 186 -259 186 -259 184 -250.5 c 128,-1,54
 182 -242 182 -242 182 -236 c 0,55,56
 182 -213 182 -213 189.5 -207 c 128,-1,57
 197 -201 197 -201 218 -199 c 0,0,1
EndSplineSet
EndChar

StartChar: germandbls
Encoding: 223 223 119
Width: 1123
GlyphClass: 2
Flags: W
LayerCount: 2
Fore
SplineSet
40 51 m 0,0,1
 40 67 40 67 46.5 76.5 c 128,-1,2
 53 86 53 86 73 88 c 0,3,4
 91 90 91 90 108.5 94 c 128,-1,5
 126 98 126 98 139.5 105.5 c 128,-1,6
 153 113 153 113 161 124 c 128,-1,7
 169 135 169 135 169 152 c 2,8,-1
 169 1061 l 2,9,10
 169 1157 169 1157 199 1246.5 c 128,-1,11
 229 1336 229 1336 287 1405.5 c 128,-1,12
 345 1475 345 1475 430.5 1517 c 128,-1,13
 516 1559 516 1559 627 1559 c 0,14,15
 690 1559 690 1559 749 1544 c 128,-1,16
 808 1529 808 1529 854.5 1497.5 c 128,-1,17
 901 1466 901 1466 929 1416 c 128,-1,18
 957 1366 957 1366 957 1296 c 0,19,20
 957 1234 957 1234 938.5 1195 c 128,-1,21
 920 1156 920 1156 892 1129 c 128,-1,22
 864 1102 864 1102 831.5 1083.5 c 128,-1,23
 799 1065 799 1065 771 1044.5 c 128,-1,24
 743 1024 743 1024 724.5 997 c 128,-1,25
 706 970 706 970 706 928 c 0,26,27
 706 902 706 902 733 870.5 c 128,-1,28
 760 839 760 839 801 800.5 c 128,-1,29
 842 762 842 762 889.5 715.5 c 128,-1,30
 937 669 937 669 978 612.5 c 128,-1,31
 1019 556 1019 556 1046 489.5 c 128,-1,32
 1073 423 1073 423 1073 344 c 0,33,34
 1073 267 1073 267 1049.5 199 c 128,-1,35
 1026 131 1026 131 983 80.5 c 128,-1,36
 940 30 940 30 878.5 0.5 c 128,-1,37
 817 -29 817 -29 742 -29 c 0,38,39
 669 -29 669 -29 617 -13 c 128,-1,40
 565 3 565 3 532 29.5 c 128,-1,41
 499 56 499 56 484 89 c 128,-1,42
 469 122 469 122 469 156 c 0,43,44
 469 177 469 177 478.5 193.5 c 128,-1,45
 488 210 488 210 502 221 c 128,-1,46
 516 232 516 232 532 238 c 128,-1,47
 548 244 548 244 560 244 c 0,48,49
 580 244 580 244 594 239.5 c 128,-1,50
 608 235 608 235 611 222 c 1,51,-1
 665 89 l 1,52,53
 671 79 671 79 682 72 c 1,54,55
 690 65 690 65 703.5 60 c 128,-1,56
 717 55 717 55 736 55 c 0,57,58
 761 55 761 55 786.5 66 c 128,-1,59
 812 77 812 77 832.5 104.5 c 128,-1,60
 853 132 853 132 866 178 c 128,-1,61
 879 224 879 224 879 294 c 0,62,63
 879 361 879 361 854 414 c 128,-1,64
 829 467 829 467 791 511.5 c 128,-1,65
 753 556 753 556 709.5 596.5 c 128,-1,66
 666 637 666 637 628 679 c 128,-1,67
 590 721 590 721 565 769 c 128,-1,68
 540 817 540 817 540 878 c 0,69,70
 540 925 540 925 556.5 958 c 128,-1,71
 573 991 573 991 598.5 1018 c 128,-1,72
 624 1045 624 1045 653 1069.5 c 128,-1,73
 682 1094 682 1094 707.5 1124 c 128,-1,74
 733 1154 733 1154 749.5 1193 c 128,-1,75
 766 1232 766 1232 766 1288 c 0,76,77
 766 1376 766 1376 719.5 1425 c 128,-1,78
 673 1474 673 1474 598 1474 c 0,79,80
 574 1474 574 1474 547.5 1471 c 128,-1,81
 521 1468 521 1468 494.5 1455.5 c 128,-1,82
 468 1443 468 1443 443.5 1418.5 c 128,-1,83
 419 1394 419 1394 400.5 1351.5 c 128,-1,84
 382 1309 382 1309 371 1246 c 128,-1,85
 360 1183 360 1183 360 1093 c 2,86,-1
 360 0 l 1,87,-1
 74 0 l 2,88,89
 65 0 65 0 59 6 c 128,-1,90
 53 12 53 12 48.5 20 c 128,-1,91
 44 28 44 28 42 36.5 c 128,-1,92
 40 45 40 45 40 51 c 0,0,1
EndSplineSet
EndChar

StartChar: registered
Encoding: 174 174 120
Width: 1929
GlyphClass: 2
Flags: W
LayerCount: 2
Fore
SplineSet
70 613 m 0,0,1
 70 736 70 736 102 850.5 c 128,-1,2
 134 965 134 965 192 1064.5 c 128,-1,3
 250 1164 250 1164 331.5 1245.5 c 128,-1,4
 413 1327 413 1327 512.5 1385.5 c 128,-1,5
 612 1444 612 1444 726 1476 c 128,-1,6
 840 1508 840 1508 964 1508 c 0,7,8
 1087 1508 1087 1508 1201.5 1476 c 128,-1,9
 1316 1444 1316 1444 1415.5 1385.5 c 128,-1,10
 1515 1327 1515 1327 1596.5 1245.5 c 128,-1,11
 1678 1164 1678 1164 1736.5 1064.5 c 128,-1,12
 1795 965 1795 965 1827 850.5 c 128,-1,13
 1859 736 1859 736 1859 613 c 256,14,15
 1859 490 1859 490 1827 375.5 c 128,-1,16
 1795 261 1795 261 1736.5 161.5 c 128,-1,17
 1678 62 1678 62 1596.5 -19.5 c 128,-1,18
 1515 -101 1515 -101 1415.5 -159 c 128,-1,19
 1316 -217 1316 -217 1201.5 -249 c 128,-1,20
 1087 -281 1087 -281 964 -281 c 0,21,22
 840 -281 840 -281 726 -249 c 128,-1,23
 612 -217 612 -217 512.5 -159 c 128,-1,24
 413 -101 413 -101 331.5 -19.5 c 128,-1,25
 250 62 250 62 192 161.5 c 128,-1,26
 134 261 134 261 102 375 c 128,-1,27
 70 489 70 489 70 613 c 0,0,1
160 613 m 256,28,29
 160 502 160 502 188.5 398.5 c 128,-1,30
 217 295 217 295 269.5 204.5 c 128,-1,31
 322 114 322 114 395.5 39.5 c 128,-1,32
 469 -35 469 -35 558.5 -88.5 c 128,-1,33
 648 -142 648 -142 750.5 -171.5 c 128,-1,34
 853 -201 853 -201 964 -201 c 256,35,36
 1075 -201 1075 -201 1178 -171.5 c 128,-1,37
 1281 -142 1281 -142 1370 -88.5 c 128,-1,38
 1459 -35 1459 -35 1533 39.5 c 128,-1,39
 1607 114 1607 114 1659 204.5 c 128,-1,40
 1711 295 1711 295 1740 398.5 c 128,-1,41
 1769 502 1769 502 1769 613 c 256,42,43
 1769 724 1769 724 1740 827.5 c 128,-1,44
 1711 931 1711 931 1659 1021.5 c 128,-1,45
 1607 1112 1607 1112 1533 1187 c 128,-1,46
 1459 1262 1459 1262 1370 1315.5 c 128,-1,47
 1281 1369 1281 1369 1178 1398.5 c 128,-1,48
 1075 1428 1075 1428 964 1428 c 256,49,50
 853 1428 853 1428 750.5 1398.5 c 128,-1,51
 648 1369 648 1369 558.5 1315.5 c 128,-1,52
 469 1262 469 1262 395.5 1187 c 128,-1,53
 322 1112 322 1112 269.5 1021.5 c 128,-1,54
 217 931 217 931 188.5 827.5 c 128,-1,55
 160 724 160 724 160 613 c 256,28,29
563 167 m 0,56,57
 563 177 563 177 567 188 c 128,-1,58
 571 199 571 199 584 201 c 1,59,60
 600 202 600 202 615.5 204.5 c 128,-1,61
 631 207 631 207 644 212 c 128,-1,62
 657 217 657 217 665 224.5 c 128,-1,63
 673 232 673 232 673 243 c 2,64,-1
 673 981 l 2,65,66
 673 1002 673 1002 664 1014 c 128,-1,67
 655 1026 655 1026 641.5 1032.5 c 128,-1,68
 628 1039 628 1039 611.5 1041 c 128,-1,69
 595 1043 595 1043 580 1044 c 1,70,71
 566 1046 566 1046 561.5 1050 c 128,-1,72
 557 1054 557 1054 557 1069 c 0,73,74
 557 1077 557 1077 562.5 1083 c 128,-1,75
 568 1089 568 1089 579 1089 c 2,76,-1
 986 1089 l 2,77,78
 1055 1089 1055 1089 1117 1076.5 c 128,-1,79
 1179 1064 1179 1064 1225.5 1036 c 128,-1,80
 1272 1008 1272 1008 1299 962 c 128,-1,81
 1326 916 1326 916 1326 847 c 0,82,83
 1326 795 1326 795 1305.5 753.5 c 128,-1,84
 1285 712 1285 712 1250.5 680 c 128,-1,85
 1216 648 1216 648 1169 625 c 128,-1,86
 1122 602 1122 602 1070 588 c 1,87,88
 1115 584 1115 584 1147 568 c 128,-1,89
 1179 552 1179 552 1202.5 527.5 c 128,-1,90
 1226 503 1226 503 1242 472.5 c 128,-1,91
 1258 442 1258 442 1272.5 409 c 128,-1,92
 1287 376 1287 376 1301.5 342 c 128,-1,93
 1316 308 1316 308 1335 278 c 1,94,95
 1357 235 1357 235 1381.5 219.5 c 128,-1,96
 1406 204 1406 204 1431 201 c 0,97,98
 1445 199 1445 199 1454.5 190.5 c 128,-1,99
 1464 182 1464 182 1464 167 c 0,100,101
 1464 159 1464 159 1458.5 147.5 c 128,-1,102
 1453 136 1453 136 1442 136 c 2,103,-1
 1294 136 l 2,104,105
 1240 136 1240 136 1207.5 168 c 128,-1,106
 1175 200 1175 200 1154.5 248 c 128,-1,107
 1134 296 1134 296 1120 352 c 128,-1,108
 1106 408 1106 408 1087 456 c 128,-1,109
 1068 504 1068 504 1039.5 536 c 128,-1,110
 1011 568 1011 568 963 568 c 2,111,-1
 829 568 l 1,112,-1
 829 264 l 2,113,114
 829 243 829 243 840 231 c 128,-1,115
 851 219 851 219 867.5 212.5 c 128,-1,116
 884 206 884 206 903.5 204 c 128,-1,117
 923 202 923 202 941 201 c 1,118,119
 955 199 955 199 960 190 c 128,-1,120
 965 181 965 181 965 167 c 0,121,122
 965 159 965 159 959.5 147.5 c 128,-1,123
 954 136 954 136 943 136 c 2,124,-1
 585 136 l 2,125,126
 574 136 574 136 568.5 147.5 c 128,-1,127
 563 159 563 159 563 167 c 0,56,57
931 645 m 2,128,129
 971 645 971 645 1011.5 651 c 128,-1,130
 1052 657 1052 657 1084 676 c 128,-1,131
 1116 695 1116 695 1136 731 c 128,-1,132
 1156 767 1156 767 1156 827 c 256,133,134
 1156 887 1156 887 1139 923.5 c 128,-1,135
 1122 960 1122 960 1092.5 979.5 c 128,-1,136
 1063 999 1063 999 1023 1005.5 c 128,-1,137
 983 1012 983 1012 936 1012 c 2,138,-1
 829 1012 l 1,139,-1
 829 645 l 1,140,-1
 931 645 l 2,128,129
EndSplineSet
EndChar

StartChar: copyright
Encoding: 169 169 121
Width: 1929
GlyphClass: 2
Flags: W
LayerCount: 2
Fore
SplineSet
70 613 m 0,0,1
 70 736 70 736 102 850.5 c 128,-1,2
 134 965 134 965 192 1064.5 c 128,-1,3
 250 1164 250 1164 331.5 1245.5 c 128,-1,4
 413 1327 413 1327 512.5 1385.5 c 128,-1,5
 612 1444 612 1444 726 1476 c 128,-1,6
 840 1508 840 1508 964 1508 c 0,7,8
 1087 1508 1087 1508 1201.5 1476 c 128,-1,9
 1316 1444 1316 1444 1415.5 1385.5 c 128,-1,10
 1515 1327 1515 1327 1596.5 1245.5 c 128,-1,11
 1678 1164 1678 1164 1736.5 1064.5 c 128,-1,12
 1795 965 1795 965 1827 850.5 c 128,-1,13
 1859 736 1859 736 1859 613 c 256,14,15
 1859 490 1859 490 1827 375.5 c 128,-1,16
 1795 261 1795 261 1736.5 161.5 c 128,-1,17
 1678 62 1678 62 1596.5 -19.5 c 128,-1,18
 1515 -101 1515 -101 1415.5 -159 c 128,-1,19
 1316 -217 1316 -217 1201.5 -249 c 128,-1,20
 1087 -281 1087 -281 964 -281 c 0,21,22
 840 -281 840 -281 726 -249 c 128,-1,23
 612 -217 612 -217 512.5 -159 c 128,-1,24
 413 -101 413 -101 331.5 -19.5 c 128,-1,25
 250 62 250 62 192 161.5 c 128,-1,26
 134 261 134 261 102 375 c 128,-1,27
 70 489 70 489 70 613 c 0,0,1
160 613 m 256,28,29
 160 502 160 502 188.5 398.5 c 128,-1,30
 217 295 217 295 269.5 204.5 c 128,-1,31
 322 114 322 114 395.5 39.5 c 128,-1,32
 469 -35 469 -35 558.5 -88.5 c 128,-1,33
 648 -142 648 -142 750.5 -171.5 c 128,-1,34
 853 -201 853 -201 964 -201 c 256,35,36
 1075 -201 1075 -201 1178 -171.5 c 128,-1,37
 1281 -142 1281 -142 1370 -88.5 c 128,-1,38
 1459 -35 1459 -35 1533 39.5 c 128,-1,39
 1607 114 1607 114 1659 204.5 c 128,-1,40
 1711 295 1711 295 1740 398.5 c 128,-1,41
 1769 502 1769 502 1769 613 c 256,42,43
 1769 724 1769 724 1740 827.5 c 128,-1,44
 1711 931 1711 931 1659 1021.5 c 128,-1,45
 1607 1112 1607 1112 1533 1187 c 128,-1,46
 1459 1262 1459 1262 1370 1315.5 c 128,-1,47
 1281 1369 1281 1369 1178 1398.5 c 128,-1,48
 1075 1428 1075 1428 964 1428 c 256,49,50
 853 1428 853 1428 750.5 1398.5 c 128,-1,51
 648 1369 648 1369 558.5 1315.5 c 128,-1,52
 469 1262 469 1262 395.5 1187 c 128,-1,53
 322 1112 322 1112 269.5 1021.5 c 128,-1,54
 217 931 217 931 188.5 827.5 c 128,-1,55
 160 724 160 724 160 613 c 256,28,29
540 622 m 0,56,57
 540 747 540 747 576.5 838 c 128,-1,58
 613 929 613 929 676.5 988.5 c 128,-1,59
 740 1048 740 1048 826 1076.5 c 128,-1,60
 912 1105 912 1105 1012 1105 c 0,61,62
 1040 1105 1040 1105 1078.5 1100 c 128,-1,63
 1117 1095 1117 1095 1156.5 1081.5 c 128,-1,64
 1196 1068 1196 1068 1232.5 1043 c 128,-1,65
 1269 1018 1269 1018 1295 979 c 0,66,67
 1328 928 1328 928 1338 888 c 128,-1,68
 1348 848 1348 848 1342 820 c 128,-1,69
 1336 792 1336 792 1319 777.5 c 128,-1,70
 1302 763 1302 763 1281 763 c 0,71,72
 1255 763 1255 763 1237 771 c 128,-1,73
 1219 779 1219 779 1206.5 792.5 c 128,-1,74
 1194 806 1194 806 1185.5 822 c 128,-1,75
 1177 838 1177 838 1170 855 c 1,76,77
 1162 871 1162 871 1157 888 c 128,-1,78
 1152 905 1152 905 1147 921 c 128,-1,79
 1142 937 1142 937 1136 951 c 128,-1,80
 1130 965 1130 965 1121 976 c 1,81,82
 1109 986 1109 986 1095 994 c 0,83,84
 1083 1001 1083 1001 1065.5 1007 c 128,-1,85
 1048 1013 1048 1013 1027 1013 c 0,86,87
 966 1013 966 1013 911 996 c 128,-1,88
 856 979 856 979 814 934.5 c 128,-1,89
 772 890 772 890 747.5 812 c 128,-1,90
 723 734 723 734 723 612 c 0,91,92
 723 491 723 491 750 413.5 c 128,-1,93
 777 336 777 336 818.5 291.5 c 128,-1,94
 860 247 860 247 908.5 230 c 128,-1,95
 957 213 957 213 999 213 c 0,96,97
 1040 213 1040 213 1082 221 c 128,-1,98
 1124 229 1124 229 1160.5 250.5 c 128,-1,99
 1197 272 1197 272 1224.5 311.5 c 128,-1,100
 1252 351 1252 351 1265 414 c 0,101,102
 1266 420 1266 420 1268 427.5 c 128,-1,103
 1270 435 1270 435 1279 435 c 2,104,-1
 1351 436 l 2,105,106
 1364 436 1364 436 1365.5 427.5 c 128,-1,107
 1367 419 1367 419 1367 412 c 0,108,109
 1364 334 1364 334 1332 279 c 128,-1,110
 1300 224 1300 224 1249.5 189 c 128,-1,111
 1199 154 1199 154 1134.5 138 c 128,-1,112
 1070 122 1070 122 1003 122 c 0,113,114
 772 122 772 122 656 246 c 128,-1,115
 540 370 540 370 540 622 c 0,56,57
EndSplineSet
EndChar

StartChar: trademark
Encoding: 8482 8482 122
Width: 1930
GlyphClass: 2
Flags: W
LayerCount: 2
Fore
SplineSet
860 697 m 0,0,1
 860 713 860 713 866.5 722.5 c 128,-1,2
 873 732 873 732 893 734 c 0,3,4
 911 736 911 736 930 739.5 c 128,-1,5
 949 743 949 743 964 752.5 c 128,-1,6
 979 762 979 762 988.5 780 c 128,-1,7
 998 798 998 798 998 830 c 2,8,-1
 998 1254 l 2,9,10
 998 1286 998 1286 987.5 1304.5 c 128,-1,11
 977 1323 977 1323 961 1333 c 128,-1,12
 945 1343 945 1343 925 1346 c 128,-1,13
 905 1349 905 1349 887 1351 c 0,14,15
 866 1353 866 1353 858.5 1359 c 128,-1,16
 851 1365 851 1365 851 1388 c 0,17,18
 851 1399 851 1399 859.5 1408.5 c 128,-1,19
 868 1418 868 1418 885 1419 c 1,20,-1
 1219 1419 l 1,21,-1
 1391 1112 l 1,22,-1
 1403 1112 l 1,23,-1
 1548 1419 l 1,24,-1
 1893 1419 l 2,25,26
 1910 1419 1910 1419 1918.5 1409 c 128,-1,27
 1927 1399 1927 1399 1927 1388 c 0,28,29
 1927 1372 1927 1372 1920.5 1362.5 c 128,-1,30
 1914 1353 1914 1353 1894 1351 c 0,31,32
 1881 1349 1881 1349 1868 1345 c 128,-1,33
 1855 1341 1855 1341 1844 1333.5 c 128,-1,34
 1833 1326 1833 1326 1826 1314.5 c 128,-1,35
 1819 1303 1819 1303 1819 1287 c 2,36,-1
 1818 831 l 2,37,38
 1818 799 1818 799 1825.5 780.5 c 128,-1,39
 1833 762 1833 762 1845 752 c 128,-1,40
 1857 742 1857 742 1871.5 739 c 128,-1,41
 1886 736 1886 736 1900 734 c 0,42,43
 1921 732 1921 732 1928.5 726 c 128,-1,44
 1936 720 1936 720 1936 697 c 0,45,46
 1936 686 1936 686 1927.5 676 c 128,-1,47
 1919 666 1919 666 1902 666 c 2,48,-1
 1547 666 l 2,49,50
 1530 666 1530 666 1521.5 680 c 128,-1,51
 1513 694 1513 694 1513 705 c 0,52,53
 1513 721 1513 721 1519.5 726.5 c 128,-1,54
 1526 732 1526 732 1546 734 c 0,55,56
 1559 736 1559 736 1572 740 c 128,-1,57
 1585 744 1585 744 1596 751.5 c 128,-1,58
 1607 759 1607 759 1614 770 c 128,-1,59
 1621 781 1621 781 1621 798 c 2,60,-1
 1622 1351 l 1,61,-1
 1615 1351 l 1,62,-1
 1391 850 l 1,63,-1
 1341 850 l 1,64,-1
 1342 854 l 1,65,-1
 1340 850 l 1,66,-1
 1095 1263 l 1,67,-1
 1095 831 l 2,68,69
 1095 799 1095 799 1105.5 780.5 c 128,-1,70
 1116 762 1116 762 1132.5 752 c 128,-1,71
 1149 742 1149 742 1169 739 c 128,-1,72
 1189 736 1189 736 1207 734 c 0,73,74
 1228 732 1228 732 1235.5 726 c 128,-1,75
 1243 720 1243 720 1243 697 c 0,76,77
 1243 686 1243 686 1234.5 676 c 128,-1,78
 1226 666 1226 666 1209 666 c 2,79,-1
 894 666 l 2,80,81
 877 666 877 666 868.5 676 c 128,-1,82
 860 686 860 686 860 697 c 0,0,1
213 665 m 2,83,84
 196 665 196 665 187.5 675 c 128,-1,85
 179 685 179 685 179 696 c 0,86,87
 179 712 179 712 185.5 721.5 c 128,-1,88
 192 731 192 731 212 733 c 0,89,90
 247 735 247 735 268 739.5 c 128,-1,91
 289 744 289 744 300 754 c 128,-1,92
 311 764 311 764 314 781.5 c 128,-1,93
 317 799 317 799 317 827 c 2,94,-1
 318 1320 l 1,95,-1
 255 1320 l 2,96,97
 212 1320 212 1320 182 1300 c 128,-1,98
 152 1280 152 1280 132.5 1253.5 c 128,-1,99
 113 1227 113 1227 103 1200 c 128,-1,100
 93 1173 93 1173 91 1159 c 0,101,102
 89 1139 89 1139 79.5 1132.5 c 128,-1,103
 70 1126 70 1126 54 1126 c 0,104,105
 43 1126 43 1126 28 1134.5 c 128,-1,106
 13 1143 13 1143 13 1160 c 0,107,108
 14 1193 14 1193 19 1238 c 128,-1,109
 24 1283 24 1283 31.5 1323 c 128,-1,110
 39 1363 39 1363 49.5 1391 c 128,-1,111
 60 1419 60 1419 73 1419 c 2,112,-1
 740 1419 l 2,113,114
 753 1419 753 1419 763.5 1391 c 128,-1,115
 774 1363 774 1363 781.5 1323 c 128,-1,116
 789 1283 789 1283 793.5 1238 c 128,-1,117
 798 1193 798 1193 800 1160 c 1,118,119
 800 1143 800 1143 785 1134.5 c 128,-1,120
 770 1126 770 1126 759 1126 c 0,121,122
 743 1126 743 1126 733.5 1132.5 c 128,-1,123
 724 1139 724 1139 722 1159 c 0,124,125
 720 1173 720 1173 710 1200 c 128,-1,126
 700 1227 700 1227 680.5 1253.5 c 128,-1,127
 661 1280 661 1280 631 1300 c 128,-1,128
 601 1320 601 1320 558 1320 c 2,129,-1
 495 1320 l 1,130,-1
 494 830 l 2,131,132
 494 798 494 798 500 779.5 c 128,-1,133
 506 761 506 761 519.5 751 c 128,-1,134
 533 741 533 741 554.5 738 c 128,-1,135
 576 735 576 735 606 733 c 0,136,137
 627 731 627 731 634.5 725 c 128,-1,138
 642 719 642 719 642 696 c 0,139,140
 642 685 642 685 633.5 675 c 128,-1,141
 625 665 625 665 608 665 c 2,142,-1
 213 665 l 2,83,84
EndSplineSet
EndChar

StartChar: acute
Encoding: 180 180 123
Width: 1024
GlyphClass: 2
Flags: W
LayerCount: 2
Fore
SplineSet
334 1159 m 1,0,1
 395 1230 395 1230 444 1292.5 c 128,-1,2
 493 1355 493 1355 529 1404.5 c 128,-1,3
 565 1454 565 1454 588.5 1487 c 128,-1,4
 612 1520 612 1520 624 1531 c 0,5,6
 638 1544 638 1544 657 1554 c 128,-1,7
 676 1564 676 1564 697 1566 c 128,-1,8
 718 1568 718 1568 740 1561 c 128,-1,9
 762 1554 762 1554 781 1534 c 256,10,11
 800 1514 800 1514 806 1493 c 128,-1,12
 812 1472 812 1472 809 1452.5 c 128,-1,13
 806 1433 806 1433 795.5 1416 c 128,-1,14
 785 1399 785 1399 771 1386 c 0,15,16
 759 1375 759 1375 727 1354.5 c 128,-1,17
 695 1334 695 1334 645.5 1300.5 c 128,-1,18
 596 1267 596 1267 531 1218.5 c 128,-1,19
 466 1170 466 1170 390 1101 c 1,20,-1
 334 1159 l 1,0,1
EndSplineSet
EndChar

StartChar: dieresis
Encoding: 168 168 124
Width: 1024
GlyphClass: 2
Flags: W
LayerCount: 2
Fore
SplineSet
727 1250 m 0,0,1
 671 1250 671 1250 643.5 1287.5 c 128,-1,2
 616 1325 616 1325 616 1384 c 256,3,4
 616 1443 616 1443 643.5 1480.5 c 128,-1,5
 671 1518 671 1518 727 1518 c 0,6,7
 782 1518 782 1518 810 1480.5 c 128,-1,8
 838 1443 838 1443 838 1384 c 256,9,10
 838 1325 838 1325 810 1287.5 c 128,-1,11
 782 1250 782 1250 727 1250 c 0,0,1
302 1250 m 0,12,13
 246 1250 246 1250 218.5 1287.5 c 128,-1,14
 191 1325 191 1325 191 1384 c 256,15,16
 191 1443 191 1443 218.5 1480.5 c 128,-1,17
 246 1518 246 1518 302 1518 c 0,18,19
 357 1518 357 1518 385 1480.5 c 128,-1,20
 413 1443 413 1443 413 1384 c 256,21,22
 413 1325 413 1325 385 1287.5 c 128,-1,23
 357 1250 357 1250 302 1250 c 0,12,13
EndSplineSet
EndChar

